<svg id="svg" version="1.1" width="400" height="296.7965367965368" xmlns="http://www.w3.org/2000/svg" xmlns:xlink="http://www.w3.org/1999/xlink" style="display: block;"><g id="svgg"><path id="path0" d="M111.111 5.986 C 100.768 7.595,93.533 15.890,91.354 28.639 C 91.209 29.486,91.063 30.207,91.029 30.241 C 90.994 30.275,90.431 29.738,89.776 29.048 C 85.674 24.720,85.534 24.589,85.015 24.589 C 84.404 24.589,83.892 25.251,84.047 25.843 C 84.170 26.312,90.867 33.485,91.248 33.556 C 91.395 33.584,93.541 32.753,96.018 31.710 C 100.990 29.615,101.437 29.318,100.943 28.434 C 100.494 27.630,99.925 27.725,96.453 29.181 C 94.720 29.908,93.255 30.455,93.196 30.397 C 92.395 29.595,95.728 19.986,97.963 16.653 C 113.271 -6.169,152.933 14.846,209.684 75.848 C 220.484 87.458,238.402 107.775,238.235 108.223 C 238.206 108.300,237.091 109.181,235.758 110.179 C 209.327 129.978,195.366 162.514,199.137 195.521 C 204.006 238.143,237.576 272.139,280.071 277.485 C 336.130 284.536,385.385 241.154,385.347 184.762 C 385.304 122.899,326.306 78.193,266.667 94.832 C 258.047 97.237,247.383 102.069,240.990 106.468 C 240.554 106.768,240.133 107.006,240.055 106.998 C 239.977 106.990,237.887 104.605,235.411 101.697 C 179.599 36.160,135.488 2.194,111.111 5.986 M51.255 70.720 L 51.255 97.112 42.121 97.188 C 33.502 97.260,32.907 97.285,31.561 97.633 C 25.849 99.111,21.788 103.788,21.119 109.659 C 20.994 110.759,20.953 137.140,20.988 194.459 L 21.039 277.662 21.433 279.048 C 22.975 284.478,27.004 288.253,32.353 289.280 C 34.269 289.648,148.425 289.645,150.349 289.277 C 156.123 288.173,160.606 283.557,161.547 277.749 C 161.798 276.196,161.803 110.685,161.551 109.091 C 160.670 103.503,156.626 99.055,151.136 97.636 C 149.774 97.285,149.206 97.260,140.563 97.188 L 131.429 97.112 131.429 70.720 L 131.429 44.329 91.342 44.329 L 51.255 44.329 51.255 70.720 M128.485 70.622 C 128.485 83.560,128.434 94.976,128.372 95.990 L 128.259 97.835 123.783 97.835 C 121.321 97.835,119.294 97.816,119.278 97.792 C 119.261 97.768,119.199 89.255,119.138 78.874 L 119.028 60.000 118.558 58.373 C 117.360 54.223,114.740 50.430,111.515 48.173 C 110.896 47.740,110.316 47.321,110.225 47.243 C 110.135 47.164,114.206 47.100,119.273 47.100 L 128.485 47.100 128.485 70.622 M105.986 47.722 C 110.855 49.154,114.938 53.395,116.566 58.713 L 116.960 60.000 117.057 80.519 C 117.153 100.842,117.157 101.052,117.526 102.363 C 119.127 108.054,123.569 110.384,127.192 107.434 L 128.153 106.651 128.090 127.395 C 128.020 150.558,128.094 149.095,126.761 153.809 C 120.531 175.850,95.810 186.978,75.325 176.961 C 63.561 171.209,55.926 160.079,54.720 146.926 C 54.608 145.700,54.546 127.682,54.546 96.323 L 54.545 47.625 58.918 47.576 C 77.032 47.371,105.089 47.459,105.986 47.722 M122.100 64.503 C 120.814 66.070,120.818 65.889,122.035 67.549 C 123.033 68.910,123.463 69.218,123.463 68.571 C 123.463 68.252,123.579 68.225,124.940 68.225 L 126.418 68.225 126.369 66.104 L 126.320 63.983 124.892 63.932 C 123.806 63.894,123.463 63.824,123.463 63.640 C 123.463 63.059,123.092 63.294,122.100 64.503 M125.338 65.697 C 125.685 66.044,125.500 66.230,125.048 65.988 C 124.604 65.751,123.542 65.746,123.105 65.980 C 122.846 66.119,122.771 66.103,122.771 65.908 C 122.771 65.304,124.781 65.139,125.338 65.697 M124.748 66.173 C 125.339 66.442,125.141 66.690,124.511 66.471 C 124.163 66.349,123.900 66.353,123.659 66.481 C 123.427 66.606,123.275 66.609,123.203 66.493 C 122.968 66.112,124.101 65.877,124.748 66.173 M124.589 66.840 C 124.651 66.941,124.475 67.013,124.166 67.013 C 123.875 67.013,123.636 66.935,123.636 66.840 C 123.636 66.745,123.827 66.667,124.059 66.667 C 124.292 66.667,124.530 66.745,124.589 66.840 M124.476 69.874 C 124.223 70.011,123.847 70.475,123.638 70.905 C 123.036 72.150,122.261 72.154,122.642 70.910 C 122.955 69.890,122.290 69.391,121.823 70.294 C 121.172 71.552,121.752 72.900,122.944 72.900 C 123.646 72.900,123.910 72.674,124.537 71.532 C 125.185 70.353,125.725 70.926,125.282 72.321 C 125.117 72.838,125.840 73.090,126.175 72.632 C 127.241 71.173,125.948 69.074,124.476 69.874 M121.612 73.876 C 121.366 74.517,121.779 74.715,123.551 74.805 C 125.045 74.881,125.262 74.933,125.368 75.235 C 125.692 76.165,125.353 76.341,123.117 76.407 L 121.645 76.450 121.645 76.970 L 121.645 77.489 123.330 77.539 C 125.244 77.595,125.883 77.382,126.317 76.542 C 126.832 75.548,126.485 74.341,125.547 73.856 C 124.795 73.467,121.763 73.483,121.612 73.876 M123.377 78.215 C 122.172 78.542,121.517 79.659,121.593 81.256 L 121.645 82.338 124.021 82.386 L 126.398 82.434 126.511 81.982 C 127.049 79.840,125.268 77.700,123.377 78.215 M124.912 79.666 C 125.266 79.945,125.368 80.177,125.368 80.705 L 125.368 81.385 123.983 81.385 L 122.597 81.385 122.603 80.823 C 122.615 79.556,123.933 78.896,124.912 79.666 M125.576 82.978 C 125.461 83.093,125.368 83.519,125.368 83.925 L 125.368 84.664 123.506 84.713 L 121.645 84.762 121.645 85.281 L 121.645 85.801 123.969 85.849 C 126.657 85.906,126.574 85.954,126.577 84.320 C 126.580 83.230,126.401 82.771,125.974 82.771 C 125.869 82.771,125.690 82.864,125.576 82.978 M125.473 86.508 C 125.415 86.658,125.368 87.087,125.368 87.460 L 125.368 88.139 123.463 88.139 L 121.558 88.139 121.558 88.663 L 121.558 89.187 124.026 89.139 L 126.494 89.091 126.547 88.059 C 126.619 86.640,126.496 86.234,125.989 86.234 C 125.763 86.234,125.531 86.357,125.473 86.508 M121.632 90.102 C 121.583 90.229,121.566 90.950,121.594 91.704 L 121.645 93.074 124.069 93.074 L 126.494 93.074 126.494 91.515 L 126.494 89.957 125.974 89.957 C 125.463 89.957,125.454 89.973,125.403 90.952 C 125.327 92.400,124.502 92.509,124.502 91.071 C 124.502 89.757,123.582 89.807,123.497 91.126 C 123.406 92.546,122.597 92.351,122.597 90.909 C 122.597 89.874,121.932 89.318,121.632 90.102 M297.519 93.513 C 354.947 97.404,394.502 151.432,380.670 207.090 C 371.666 243.326,340.801 270.789,303.806 275.484 C 241.383 283.405,189.999 228.207,202.345 166.494 C 211.212 122.174,252.560 90.468,297.519 93.513 M121.637 93.725 C 121.317 94.559,121.647 97.056,122.078 97.056 C 122.439 97.056,122.520 96.964,122.565 96.499 L 122.619 95.942 124.556 95.893 L 126.494 95.844 126.494 95.325 L 126.494 94.805 124.556 94.756 L 122.619 94.707 122.565 94.150 C 122.507 93.551,121.824 93.237,121.637 93.725 M51.302 124.719 C 51.365 149.978,51.312 148.701,52.484 153.420 C 56.937 171.356,72.927 183.896,91.342 183.896 C 112.002 183.896,129.220 168.219,131.252 147.557 C 131.362 146.445,131.429 137.419,131.429 123.791 L 131.429 101.818 140.223 101.818 C 150.012 101.818,150.050 101.822,152.263 102.985 C 155.078 104.464,156.737 107.046,157.077 110.476 C 157.407 113.815,157.184 276.995,156.848 278.073 C 155.865 281.220,153.756 283.403,150.592 284.548 L 149.524 284.935 92.294 284.985 C 53.309 285.019,34.623 284.977,33.680 284.854 C 29.914 284.364,26.555 281.313,25.812 277.708 C 25.678 277.058,25.637 252.721,25.669 192.900 L 25.714 109.004 26.109 107.965 C 26.918 105.835,28.542 103.972,30.476 102.956 C 32.599 101.840,32.578 101.842,42.375 101.830 L 51.244 101.818 51.302 124.719 M86.840 108.862 C 57.653 112.765,45.606 148.167,66.362 169.041 C 84.402 187.184,115.584 180.369,124.570 156.319 C 133.827 131.544,113.011 105.363,86.840 108.862 M93.472 112.944 L 93.524 113.939 91.437 113.939 L 89.351 113.939 89.351 112.895 L 89.351 111.850 91.385 111.899 L 93.420 111.948 93.472 112.944 M98.874 112.732 C 106.849 114.666,113.956 119.681,118.374 126.494 L 119.048 127.532 119.134 134.632 L 119.221 141.732 121.342 141.780 L 123.463 141.829 123.463 143.896 L 123.463 145.963 121.342 146.012 L 119.221 146.061 119.134 153.262 L 119.048 160.463 118.371 161.487 C 113.437 168.955,105.016 174.484,96.759 175.677 L 95.942 175.795 95.893 173.655 L 95.844 171.515 91.342 171.515 L 86.840 171.515 86.791 173.636 C 86.734 176.113,87.004 175.940,84.190 175.309 C 76.211 173.520,69.255 168.736,64.574 161.818 L 63.636 160.433 63.550 153.247 L 63.463 146.061 61.342 146.012 L 59.221 145.963 59.221 143.896 L 59.221 141.829 61.342 141.780 L 63.463 141.732 63.550 134.632 L 63.636 127.532 64.567 126.147 C 67.610 121.615,72.198 117.563,76.970 115.194 C 79.486 113.944,84.263 112.385,85.584 112.382 L 86.061 112.381 86.061 114.808 L 86.061 117.234 91.385 117.189 L 96.710 117.143 96.758 114.693 C 96.801 112.478,96.834 112.249,97.104 112.309 C 97.268 112.345,98.065 112.536,98.874 112.732 M261.407 127.181 C 260.545 127.488,259.647 128.354,259.119 129.387 C 258.277 131.034,258.273 131.302,258.762 148.831 C 259.303 168.170,259.275 168.615,257.611 167.470 C 253.466 164.619,245.368 167.778,245.368 172.248 C 245.368 172.479,245.114 172.919,244.788 173.255 L 244.207 173.853 242.573 173.853 C 239.308 173.853,236.536 175.226,235.359 177.426 C 235.213 177.697,234.930 177.814,234.212 177.898 C 223.744 179.129,223.881 193.429,234.568 215.093 L 236.190 218.380 236.444 220.489 C 237.077 225.760,237.344 232.469,237.043 235.584 C 236.704 239.086,236.701 239.048,237.316 239.048 C 238.167 239.048,238.321 237.964,238.334 231.861 C 238.352 223.268,237.822 218.840,236.448 216.100 C 226.621 196.505,224.965 182.447,232.165 179.736 C 235.590 178.447,236.789 179.219,237.328 183.058 C 237.630 185.206,238.294 186.679,239.973 188.918 C 243.436 193.535,243.369 195.410,239.740 195.400 C 237.150 195.394,235.906 194.423,234.093 190.996 C 231.791 186.644,231.110 185.834,230.739 187.004 C 230.640 187.315,232.584 191.086,234.154 193.627 C 235.883 196.427,239.875 197.562,242.796 196.085 C 243.202 195.880,243.306 195.893,243.695 196.199 C 247.680 199.334,253.446 197.193,253.581 192.527 L 253.618 191.255 254.904 191.211 C 259.115 191.066,261.345 189.302,260.101 187.099 C 259.439 185.925,259.412 186.058,260.406 185.555 C 262.033 184.730,263.917 182.096,263.433 181.323 C 263.010 180.648,262.548 180.878,262.027 182.023 C 261.453 183.286,260.499 184.229,259.359 184.665 L 258.577 184.963 256.172 183.986 C 249.217 181.162,245.216 178.047,245.199 175.443 C 245.191 174.253,245.755 173.873,245.955 174.933 C 246.327 176.900,248.887 178.551,252.306 179.027 C 255.137 179.422,255.687 178.930,255.613 176.075 L 255.558 173.975 256.394 174.091 C 256.853 174.154,258.554 174.359,260.173 174.545 C 265.455 175.153,265.887 175.387,267.715 178.615 C 269.057 180.985,269.895 182.236,272.993 186.494 C 276.806 191.737,277.576 193.815,276.460 195.851 C 275.082 198.364,274.042 200.770,273.247 203.279 C 272.096 206.915,270.634 210.537,268.397 215.303 L 266.619 219.092 266.533 221.032 C 266.297 226.381,268.341 240.519,269.351 240.519 C 269.993 240.519,270.025 240.050,269.558 237.438 C 268.376 230.811,267.815 225.961,267.802 222.251 L 267.792 219.481 269.325 216.282 C 271.653 211.422,272.815 208.595,274.201 204.416 C 275.531 200.404,276.352 198.421,277.192 197.193 C 279.164 194.305,278.373 191.651,273.614 185.195 L 271.699 182.597 271.692 180.866 C 271.683 178.745,271.442 175.819,270.993 172.381 C 270.479 168.439,270.142 162.095,269.874 151.255 C 269.703 144.378,269.097 133.328,268.826 132.139 C 267.948 128.298,264.583 126.049,261.407 127.181 M265.232 128.773 C 267.736 130.340,268.143 133.393,268.731 155.065 C 268.957 163.362,269.179 167.732,269.531 170.736 C 269.968 174.478,270.275 177.523,270.370 179.048 L 270.461 180.519 270.079 180.051 C 269.869 179.794,269.268 178.792,268.744 177.825 C 266.965 174.539,265.813 173.931,260.065 173.242 L 259.265 173.146 259.185 171.218 C 259.109 169.366,259.125 169.250,259.600 168.301 C 260.517 166.466,260.524 166.134,260.038 148.485 C 259.753 138.132,259.649 132.045,259.748 131.440 C 260.219 128.569,262.857 127.286,265.232 128.773 M122.927 137.965 C 122.937 138.204,122.843 138.355,122.684 138.355 C 122.475 138.355,122.428 138.109,122.445 137.100 L 122.465 135.844 122.688 136.710 C 122.810 137.186,122.918 137.751,122.927 137.965 M60.260 137.229 C 60.260 138.114,60.204 138.355,60.000 138.355 C 59.687 138.355,59.678 138.132,59.943 136.983 C 60.208 135.834,60.260 135.874,60.260 137.229 M74.265 139.449 C 69.214 141.340,70.330 148.622,75.671 148.622 C 80.490 148.622,82.137 142.137,77.903 139.833 C 76.845 139.257,75.233 139.087,74.265 139.449 M104.395 139.449 C 100.885 140.763,99.948 144.770,102.544 147.366 C 105.268 150.090,110.117 148.220,110.441 144.321 C 110.705 141.138,107.272 138.372,104.395 139.449 M261.869 144.301 C 261.660 144.638,262.237 144.803,263.923 144.886 C 265.828 144.980,266.895 144.811,266.974 144.405 C 267.028 144.123,262.041 144.022,261.869 144.301 M60.244 150.693 L 60.229 151.948 59.988 151.082 C 59.671 149.945,59.675 149.437,60.000 149.437 C 60.208 149.437,60.257 149.685,60.244 150.693 M122.996 150.000 C 122.935 150.310,122.788 150.913,122.670 151.342 L 122.455 152.121 122.440 150.779 C 122.426 149.553,122.454 149.437,122.766 149.437 C 123.060 149.437,123.092 149.517,122.996 150.000 M262.039 156.080 C 261.874 156.346,262.352 156.494,263.700 156.592 C 265.382 156.714,266.732 156.539,266.799 156.190 C 266.855 155.897,262.219 155.789,262.039 156.080 M337.922 164.972 C 331.674 165.836,327.177 171.050,326.801 177.867 L 326.708 179.543 327.293 179.641 C 327.615 179.695,329.554 179.936,331.602 180.177 C 333.649 180.417,335.617 180.658,335.974 180.712 L 336.623 180.810 336.629 180.059 C 336.655 176.820,337.786 174.719,339.502 174.719 C 341.567 174.719,341.888 175.426,341.958 180.126 C 342.038 185.575,341.632 186.163,337.676 186.320 L 335.498 186.407 335.452 190.670 L 335.405 194.933 337.183 195.014 C 341.108 195.193,341.643 196.035,341.644 202.045 C 341.645 207.322,341.435 207.944,339.475 208.465 C 337.413 209.014,336.288 207.603,336.141 204.286 C 336.096 203.262,336.011 202.426,335.952 202.428 C 334.372 202.489,326.156 203.655,326.042 203.834 C 325.136 205.264,326.799 212.060,328.619 214.367 C 332.652 219.480,343.427 219.778,348.225 214.911 C 351.533 211.555,352.982 205.080,352.065 197.749 C 351.625 194.227,350.808 192.784,348.221 190.952 L 347.792 190.649 348.312 190.260 C 351.329 188.001,352.103 185.733,352.109 179.134 C 352.114 173.589,351.662 171.693,349.701 169.029 C 347.450 165.970,342.652 164.318,337.922 164.972 M256.190 168.092 C 257.582 168.818,257.815 169.232,257.945 171.218 C 258.036 172.606,258.013 172.987,257.837 172.987 C 257.292 172.987,253.263 172.235,251.716 171.845 C 250.011 171.414,248.783 171.424,247.143 171.880 C 246.614 172.027,246.627 171.589,247.178 170.648 C 248.560 168.290,253.750 166.818,256.190 168.092 M252.237 173.248 C 255.216 173.937,254.897 173.611,254.941 176.012 C 254.990 178.742,254.601 178.975,251.306 178.185 C 248.115 177.420,246.084 175.571,246.435 173.749 C 246.608 172.850,249.455 172.604,252.237 173.248 M92.641 175.498 L 92.641 176.104 91.342 176.104 L 90.043 176.104 90.043 175.498 L 90.043 174.892 91.342 174.892 L 92.641 174.892 92.641 175.498 M244.008 175.931 C 244.254 177.597,245.105 178.874,247.008 180.429 L 248.269 181.459 249.185 183.760 C 249.688 185.025,250.469 186.802,250.919 187.708 C 253.071 192.040,252.770 194.618,249.957 195.950 C 247.496 197.115,243.952 195.834,243.776 193.716 C 243.652 192.220,242.822 190.671,240.182 187.013 C 239.292 185.780,238.812 184.511,238.602 182.838 C 238.376 181.032,238.054 180.187,237.144 179.014 L 236.379 178.029 237.175 177.144 C 238.479 175.693,240.153 175.057,242.509 175.116 L 243.893 175.152 244.008 175.931 M292.468 176.476 C 292.468 176.588,294.026 180.058,295.931 184.186 C 297.835 188.314,299.394 191.718,299.394 191.750 C 299.394 191.782,297.751 195.307,295.742 199.584 C 293.734 203.860,292.050 207.457,292.001 207.576 C 291.930 207.746,292.932 207.792,296.681 207.792 L 301.450 207.792 302.743 203.766 C 303.454 201.552,304.087 199.565,304.151 199.351 C 304.417 198.449,304.739 199.108,306.117 203.377 L 307.542 207.792 312.318 207.792 C 316.070 207.792,317.074 207.746,317.005 207.576 C 316.956 207.457,315.262 203.892,313.239 199.654 C 311.216 195.416,309.560 191.864,309.557 191.762 C 309.555 191.659,311.124 188.225,313.045 184.131 C 314.965 180.036,316.537 176.594,316.537 176.482 C 316.537 176.330,315.362 176.277,311.958 176.277 L 307.380 176.277 306.321 179.610 C 305.738 181.444,305.162 183.255,305.041 183.636 C 304.692 184.727,304.576 184.508,303.279 180.317 L 302.056 176.364 297.262 176.318 C 293.669 176.283,292.468 176.323,292.468 176.476 M252.168 183.574 C 253.142 184.064,254.874 184.837,256.017 185.292 L 258.095 186.120 258.666 187.169 C 259.609 188.904,258.464 189.783,255.076 189.922 L 253.227 189.998 253.013 189.283 C 252.895 188.890,252.523 188.043,252.186 187.401 C 251.656 186.391,250.216 183.005,250.216 182.767 C 250.216 182.610,250.400 182.686,252.168 183.574 M261.299 190.609 C 261.299 192.335,266.576 196.834,267.972 196.298 C 268.395 196.136,268.211 195.988,266.557 195.162 C 264.799 194.283,262.931 192.598,262.233 191.262 C 261.739 190.319,261.299 190.010,261.299 190.609 M256.200 192.835 C 250.991 198.940,247.973 207.164,248.169 214.719 C 248.215 216.502,248.271 216.883,248.485 216.883 C 248.704 216.883,248.749 216.447,248.773 214.113 C 248.851 206.614,251.552 199.420,256.541 193.426 C 257.253 192.571,257.835 191.791,257.835 191.693 C 257.835 191.211,257.217 191.643,256.200 192.835 M87.208 203.559 C 60.329 207.219,48.927 239.059,67.330 259.065 C 83.857 277.031,114.574 270.434,122.586 247.198 C 130.544 224.118,111.226 200.288,87.208 203.559 M93.333 207.365 L 93.333 208.323 91.385 208.274 L 89.437 208.225 89.385 207.316 L 89.333 206.407 91.333 206.407 L 93.333 206.407 93.333 207.365 M86.407 209.094 L 86.407 211.434 91.385 211.388 L 96.364 211.342 96.412 209.048 C 96.439 207.786,96.502 206.753,96.552 206.753 C 96.930 206.753,101.090 207.906,101.991 208.260 C 107.893 210.582,113.377 215.009,116.642 220.087 L 117.143 220.866 117.229 227.532 L 117.316 234.199 119.351 234.248 L 121.385 234.297 121.385 236.283 L 121.385 238.268 119.307 238.268 L 117.229 238.268 117.230 244.978 L 117.231 251.688 116.095 253.370 C 111.770 259.771,101.935 265.958,96.061 265.973 L 95.584 265.974 95.584 263.983 L 95.584 261.991 91.342 261.991 L 87.100 261.991 87.100 263.983 L 87.100 265.974 86.673 265.974 C 80.676 265.974,70.816 259.695,66.393 253.057 L 65.459 251.656 65.413 245.005 L 65.368 238.355 63.333 238.306 L 61.299 238.257 61.299 236.277 L 61.299 234.297 63.333 234.248 L 65.368 234.199 65.413 227.646 L 65.459 221.093 66.207 219.940 C 70.185 213.809,76.670 209.145,83.723 207.343 C 84.961 207.027,86.071 206.765,86.190 206.761 C 86.353 206.755,86.407 207.333,86.407 209.094 M120.849 230.779 C 120.859 231.017,120.765 231.169,120.606 231.169 C 120.397 231.169,120.350 230.923,120.367 229.913 L 120.387 228.658 120.610 229.524 C 120.732 230.000,120.840 230.565,120.849 230.779 M62.338 230.130 C 62.338 230.938,62.280 231.169,62.078 231.169 C 61.768 231.169,61.764 231.094,62.006 229.965 C 62.252 228.819,62.338 228.862,62.338 230.130 M75.728 232.019 C 71.640 233.055,71.140 238.595,74.978 240.332 C 79.105 242.200,82.881 237.185,80.096 233.534 C 79.220 232.386,77.136 231.663,75.728 232.019 M104.156 231.973 C 98.830 233.267,99.427 240.682,104.858 240.691 C 108.707 240.697,110.539 236.337,107.970 233.283 C 107.205 232.375,105.257 231.705,104.156 231.973 M62.327 242.554 C 62.315 243.824,62.119 243.656,61.899 242.187 C 61.798 241.515,61.824 241.385,62.058 241.385 C 62.289 241.385,62.336 241.590,62.327 242.554 M120.755 242.554 C 120.411 244.215,120.375 244.231,120.360 242.727 C 120.348 241.525,120.380 241.385,120.671 241.385 C 120.981 241.385,120.985 241.440,120.755 242.554 M92.608 265.758 L 92.663 266.320 91.440 266.320 L 90.216 266.320 90.216 265.706 L 90.216 265.092 91.385 265.144 L 92.554 265.195 92.608 265.758 " stroke="none" fill="#a7a9ac" fill-rule="evenodd"></path></g></svg>