<svg width="100" height="100" xmlns="http://www.w3.org/2000/svg">
 <style type="text/css">.st0{fill:none;stroke:#000000;stroke-width:1.3771;stroke-miterlimit:10;}</style>

 <g>
  <title>background</title>
  <rect fill="none" id="canvas_background" height="102" width="102" y="-1" x="-1"/>
 </g>
 <g>
  <title>Layer 1</title>
  <path id="svg_5" d="m55.066677,29.9" class="st0"/>
  <path id="svg_6" d="m46.866677,29.9" class="st0"/>
  <path stroke="null" id="svg_1" d="m81.546955,89.73329l-62.660549,0c-4.855614,0 -8.78635,-3.930736 -8.78635,-8.78635l0,-62.660549c0,-4.855614 3.930736,-8.78635 8.78635,-8.78635l62.660549,0c4.855614,0 8.78635,3.930736 8.78635,8.78635l0,62.660549c0,4.855614 -3.930736,8.78635 -8.78635,8.78635zm-62.660549,-78.61471c-3.930736,0 -7.167812,3.237076 -7.167812,7.167812l0,62.660549c0,3.930736 3.237076,7.167812 7.167812,7.167812l62.660549,0c3.930736,0 7.167812,-3.237076 7.167812,-7.167812l0,-62.660549c0,-3.930736 -3.237076,-7.167812 -7.167812,-7.167812l-62.660549,0z"/>
  <path stroke="null" id="svg_4" d="m50.197412,12.660117c-20.437244,0 -37.05289,16.615645 -37.05289,37.05289c0.166157,20.437244 16.615646,37.052889 37.05289,37.052889c20.437244,0 37.05289,-16.615645 37.05289,-37.052889c0,-20.437245 -16.615646,-37.05289 -37.05289,-37.05289zm5.649319,2.82466l-1.495408,4.818537l-7.809353,0l-1.661565,-4.818537c1.661565,-0.332313 3.489286,-0.49847 5.317007,-0.49847c1.993877,0 3.821598,0.166157 5.649319,0.49847zm-10.966326,68.45646l1.495408,-4.818538l7.809354,0l1.495408,4.652381c-1.827721,0.332313 -3.655442,0.498469 -5.64932,0.498469c-1.661564,0.166157 -3.323129,0 -5.15085,-0.332312zm13.12636,-0.49847l-2.160034,-6.480102l-11.132482,0l-2.160034,6.646259c-15.452551,-3.489286 -27.083503,-17.280272 -27.083503,-33.895917c0,-16.44949 11.630952,-30.406632 27.083503,-33.895918l2.160034,6.812415l11.132482,0l2.160034,-6.646258c15.286394,3.655442 26.75119,17.280271 26.75119,33.729761c0.166156,16.449489 -11.298639,30.240475 -26.75119,33.72976z"/>
  <ellipse stroke="null" ry="4.749962" rx="4.749962" id="svg_11" cy="50.08333" cx="33.4168" fill-opacity="null" stroke-opacity="null" stroke-width="null" fill="null"/>
  <ellipse stroke="null" ry="4.749962" rx="4.749962" id="svg_12" cy="49.749962" cx="66.749869" fill-opacity="null" stroke-opacity="null" stroke-width="null" fill="null"/>
 </g>
</svg>