<svg id="svg" version="1.1" width="400" height="602.0100502512563" xmlns="http://www.w3.org/2000/svg" xmlns:xlink="http://www.w3.org/1999/xlink" style="display: block;"><g id="svgg"><path id="path1" d="M329.733 136.776 C 328.900 137.284,328.049 138.422,327.249 140.098 C 324.406 146.055,319.644 145.055,322.162 139.029 C 323.041 136.925,321.438 135.854,320.212 137.726 C 318.510 140.323,319.306 145.014,321.653 146.228 C 324.542 147.722,326.818 146.527,328.942 142.400 C 331.712 137.019,336.434 138.391,334.009 143.872 C 333.212 145.676,333.203 145.813,333.858 146.292 C 334.926 147.073,335.179 146.932,336.011 145.100 C 338.575 139.451,334.407 133.925,329.733 136.776 M319.600 152.158 L 319.600 153.600 325.640 153.600 L 331.680 153.600 333.040 154.960 C 334.487 156.407,334.735 157.627,333.938 159.376 C 333.002 161.430,331.895 161.766,325.500 161.933 L 319.600 162.087 319.600 163.244 L 319.600 164.400 325.616 164.400 C 334.190 164.400,337.066 162.588,336.872 157.309 C 336.699 152.580,334.084 151.042,325.900 150.858 L 319.600 150.716 319.600 152.158 M324.800 169.016 C 320.912 170.760,319.533 173.428,319.686 178.911 L 319.800 183.000 328.200 183.000 L 336.600 183.000 336.584 178.779 C 336.555 170.864,330.979 166.244,324.800 169.016 M331.196 171.942 C 333.159 172.995,334.469 175.619,334.318 178.196 L 334.200 180.200 328.100 180.310 L 322.000 180.421 322.000 177.664 C 322.000 172.449,326.695 169.528,331.196 171.942 M334.400 189.731 C 334.400 193.878,334.978 193.600,326.367 193.600 L 319.600 193.600 319.600 194.808 L 319.600 196.016 328.100 195.908 L 336.600 195.800 336.600 191.200 L 336.600 186.600 335.500 186.473 L 334.400 186.347 334.400 189.731 M334.607 199.672 C 334.502 199.962,334.368 201.550,334.308 203.200 L 334.200 206.200 326.900 206.309 L 319.600 206.418 319.600 207.617 L 319.600 208.816 328.100 208.708 L 336.600 208.600 336.600 204.000 C 336.600 199.531,336.574 199.396,335.698 199.272 C 335.202 199.202,334.711 199.382,334.607 199.672 M319.867 213.467 C 319.720 213.613,319.600 216.047,319.600 218.875 L 319.600 224.016 328.100 223.908 L 336.600 223.800 336.600 218.600 L 336.600 213.400 335.600 213.400 C 334.612 213.400,334.599 213.445,334.484 217.186 C 334.356 221.347,334.219 221.584,331.933 221.594 C 329.312 221.605,329.200 221.456,329.200 217.957 L 329.200 214.800 328.000 214.800 L 326.800 214.800 326.800 217.957 C 326.800 221.378,326.654 221.600,324.400 221.600 C 322.097 221.600,322.000 221.430,322.000 217.400 C 322.000 214.382,321.881 213.640,321.367 213.443 C 320.554 213.131,320.197 213.136,319.867 213.467 M319.600 233.227 L 319.600 238.853 320.700 238.727 C 321.704 238.611,321.817 238.426,322.000 236.600 L 322.200 234.600 329.400 234.400 L 336.600 234.200 336.600 233.200 L 336.600 232.200 329.400 232.000 L 322.200 231.800 322.079 229.700 C 321.962 227.669,321.919 227.600,320.779 227.600 L 319.600 227.600 319.600 233.227 " stroke="none" fill="#000000" fill-rule="evenodd"></path><path id="path2" d="M330.200 135.982 C 328.965 136.492,327.773 137.982,326.596 140.483 C 325.076 143.715,323.761 144.561,322.391 143.191 C 321.956 142.756,321.600 142.570,321.600 142.777 C 321.600 142.985,321.981 143.421,322.446 143.747 C 324.023 144.852,325.524 143.711,327.249 140.098 C 331.027 132.181,339.642 137.099,336.011 145.100 C 335.179 146.933,334.926 147.073,333.856 146.290 C 333.196 145.808,333.202 145.684,333.970 143.990 C 334.417 143.006,334.781 141.840,334.778 141.400 C 334.776 140.960,334.447 141.500,334.048 142.600 C 333.649 143.700,333.191 144.902,333.030 145.270 C 332.688 146.054,334.473 147.449,335.224 146.985 C 336.054 146.472,337.182 143.433,337.191 141.687 C 337.214 137.334,333.754 134.511,330.200 135.982 M319.810 137.580 C 319.475 138.229,319.210 139.084,319.223 139.480 C 319.235 139.876,319.460 139.587,319.723 138.838 C 320.320 137.134,321.296 136.450,322.136 137.147 C 322.665 137.586,322.669 137.816,322.170 139.011 C 321.342 140.991,321.501 141.262,322.415 139.430 C 323.145 137.968,323.153 137.811,322.537 137.130 C 321.569 136.061,320.505 136.236,319.810 137.580 M329.984 140.423 C 329.505 141.096,329.222 141.756,329.356 141.890 C 329.490 142.024,329.600 141.950,329.600 141.725 C 329.600 141.501,330.041 140.841,330.581 140.258 C 331.120 139.676,331.403 139.200,331.208 139.200 C 331.014 139.200,330.463 139.750,329.984 140.423 M318.893 141.600 C 318.893 142.370,318.975 142.685,319.076 142.300 C 319.176 141.915,319.176 141.285,319.076 140.900 C 318.975 140.515,318.893 140.830,318.893 141.600 M328.603 143.190 C 328.455 143.657,327.692 144.681,326.908 145.466 C 326.018 146.355,325.807 146.717,326.347 146.429 C 327.308 145.914,329.443 142.910,329.095 142.562 C 328.973 142.440,328.752 142.722,328.603 143.190 M319.218 143.320 C 319.150 144.544,321.646 147.287,322.264 146.669 C 322.372 146.561,322.084 146.354,321.625 146.208 C 321.166 146.062,320.440 145.281,320.013 144.471 C 319.585 143.662,319.227 143.144,319.218 143.320 M319.358 150.966 C 319.238 151.278,319.199 152.043,319.270 152.666 L 319.400 153.800 325.690 154.000 C 332.776 154.225,333.404 154.479,333.862 157.305 C 334.066 158.560,333.929 158.933,332.880 159.981 L 331.662 161.200 325.931 161.206 C 319.464 161.213,319.088 161.328,319.270 163.242 L 319.400 164.600 325.300 164.617 L 331.201 164.633 325.400 164.506 L 319.600 164.379 319.600 163.233 L 319.600 162.087 325.500 161.933 C 331.895 161.766,333.002 161.430,333.938 159.376 C 334.735 157.627,334.487 156.407,333.040 154.960 L 331.680 153.600 325.640 153.600 L 319.600 153.600 319.600 152.158 L 319.600 150.716 325.900 150.858 C 333.990 151.040,335.690 151.934,336.826 156.600 C 337.092 157.695,337.121 157.712,337.152 156.800 C 337.235 154.404,334.578 151.435,331.769 150.783 C 329.082 150.160,319.613 150.300,319.358 150.966 M336.656 159.220 C 336.304 160.980,334.983 162.683,333.268 163.589 C 332.363 164.067,332.072 164.371,332.511 164.382 C 334.143 164.423,338.049 159.115,337.091 158.158 C 336.989 158.056,336.793 158.534,336.656 159.220 M323.946 169.117 C 320.383 170.973,319.200 173.396,319.200 178.840 C 319.200 184.047,318.341 183.600,328.353 183.600 C 337.661 183.600,337.227 183.807,337.125 179.420 L 337.051 176.200 336.825 179.600 L 336.600 183.000 328.200 183.000 L 319.800 183.000 319.686 178.907 C 319.500 172.217,321.927 169.071,327.800 168.388 L 330.200 168.109 328.146 168.055 C 326.601 168.014,325.559 168.277,323.946 169.117 M332.006 169.342 C 334.016 170.398,336.368 173.466,336.454 175.145 C 336.504 176.108,336.524 176.120,336.684 175.286 C 337.057 173.339,332.870 168.400,330.846 168.400 C 330.498 168.400,331.020 168.824,332.006 169.342 M324.965 171.956 C 323.360 172.935,321.998 174.685,322.009 175.754 C 322.015 176.331,322.262 176.063,322.786 174.908 C 325.468 168.999,334.306 171.456,333.909 178.000 L 333.800 179.800 327.900 179.800 C 324.654 179.800,321.999 179.940,322.000 180.110 C 322.000 180.281,324.745 180.371,328.100 180.310 L 334.200 180.200 334.318 178.196 C 334.624 172.974,329.214 169.365,324.965 171.956 M334.196 186.500 C 334.097 186.775,333.968 188.350,333.908 190.000 L 333.800 193.000 326.476 193.109 L 319.153 193.218 319.276 194.709 L 319.400 196.200 327.971 196.308 C 338.015 196.435,337.214 196.883,337.115 191.200 L 337.042 187.000 336.821 191.400 L 336.600 195.800 328.100 195.908 L 319.600 196.016 319.600 194.808 L 319.600 193.600 326.367 193.600 C 334.981 193.600,334.400 193.881,334.400 189.712 L 334.400 186.309 335.600 186.485 C 336.260 186.582,336.800 186.513,336.800 186.331 C 336.800 185.796,334.392 185.952,334.196 186.500 M334.518 199.118 C 334.227 199.304,333.990 200.684,333.918 202.612 L 333.800 205.800 326.500 205.909 L 319.200 206.018 319.200 207.609 L 319.200 209.200 327.957 209.200 C 338.149 209.200,337.200 209.749,337.200 203.847 C 337.200 199.130,336.485 197.868,334.518 199.118 M336.600 204.000 L 336.600 208.600 328.100 208.708 L 319.600 208.816 319.600 207.617 L 319.600 206.418 326.900 206.309 L 334.200 206.200 334.308 203.200 C 334.443 199.480,334.573 199.112,335.698 199.272 C 336.574 199.396,336.600 199.531,336.600 204.000 M319.375 213.321 C 319.265 213.608,319.226 216.173,319.287 219.021 L 319.400 224.200 327.971 224.308 C 338.070 224.436,337.186 224.987,337.194 218.549 C 337.201 213.241,336.907 212.486,335.020 212.959 C 334.061 213.200,334.025 213.333,333.914 217.104 L 333.800 221.000 331.800 221.000 L 329.800 221.000 329.572 218.000 L 329.344 215.000 329.272 218.057 C 329.192 221.455,329.305 221.605,331.933 221.594 C 334.219 221.584,334.356 221.347,334.484 217.186 C 334.599 213.445,334.612 213.400,335.600 213.400 L 336.600 213.400 336.600 218.600 L 336.600 223.800 328.088 223.908 L 319.577 224.016 319.688 218.708 L 319.800 213.400 320.909 213.477 C 321.519 213.519,321.914 213.384,321.786 213.177 C 321.437 212.613,319.605 212.723,319.375 213.321 M326.868 214.518 C 326.632 214.803,326.385 216.378,326.319 218.018 L 326.200 221.000 324.672 221.126 C 323.832 221.195,322.887 221.038,322.572 220.777 C 322.230 220.493,322.000 220.465,322.000 220.708 C 322.000 221.237,322.978 221.600,324.400 221.600 C 326.654 221.600,326.800 221.378,326.800 217.957 L 326.800 214.800 328.100 214.794 C 329.086 214.789,329.255 214.694,328.800 214.400 C 327.977 213.868,327.377 213.905,326.868 214.518 M319.200 233.200 L 319.200 239.200 320.557 239.200 C 322.027 239.200,322.436 238.666,322.347 236.867 C 322.303 235.977,322.254 236.033,322.047 237.200 C 321.843 238.356,321.608 238.622,320.700 238.727 L 319.600 238.853 319.600 233.252 L 319.600 227.651 320.900 227.489 C 322.180 227.331,322.177 227.327,320.700 227.264 L 319.200 227.200 319.200 233.200 M322.083 231.200 C 322.233 231.694,323.530 231.835,329.433 232.000 L 336.600 232.200 336.600 233.200 L 336.600 234.200 329.433 234.400 C 324.072 234.550,322.240 234.729,322.163 235.110 C 322.106 235.390,322.151 235.436,322.263 235.210 C 322.391 234.953,325.129 234.800,329.606 234.800 C 336.395 234.800,336.759 234.761,337.000 234.000 C 337.721 231.729,337.338 231.600,329.853 231.600 C 324.888 231.600,322.812 231.460,322.430 231.100 C 322.002 230.696,321.935 230.716,322.083 231.200 M140.400 401.997 C 126.640 404.567,120.892 420.630,130.128 430.703 C 140.867 442.414,160.240 435.022,160.374 419.163 C 160.463 408.707,150.468 400.117,140.400 401.997 M255.148 401.987 C 244.655 403.873,238.235 414.885,241.777 424.921 C 246.891 439.412,266.766 440.468,273.772 426.620 C 279.978 414.355,268.775 399.538,255.148 401.987 " stroke="none" fill="#000000" fill-rule="evenodd"></path><path id="path3" d="M49.798 38.899 C 49.297 40.974,49.815 428.506,50.325 433.000 C 63.005 544.796,180.061 606.075,278.200 552.293 C 322.421 528.060,350.155 484.179,356.000 429.200 C 356.324 426.152,356.413 371.959,356.323 231.600 L 356.200 38.200 203.108 38.099 L 50.016 37.999 49.798 38.899 M344.907 58.600 C 345.252 69.838,344.925 229.256,344.539 237.504 L 344.292 242.809 327.246 242.704 L 310.200 242.600 309.930 240.800 C 309.781 239.810,309.625 223.070,309.583 203.600 C 309.542 184.130,309.373 152.810,309.208 134.000 L 308.909 99.800 307.880 95.400 C 303.353 76.054,289.749 56.924,275.152 49.375 C 274.518 49.047,274.000 48.693,274.000 48.588 C 274.000 48.482,289.885 48.442,309.300 48.498 L 344.600 48.600 344.907 58.600 M259.634 51.230 C 279.756 57.741,295.103 75.008,300.314 97.000 L 301.357 101.400 301.597 178.200 C 301.837 254.669,301.842 255.015,302.685 258.400 C 308.732 282.687,327.112 291.940,341.700 278.040 L 343.600 276.230 343.600 350.435 C 343.600 428.306,343.550 430.788,341.773 441.400 C 327.892 524.303,246.916 576.387,165.868 554.542 C 111.434 539.871,71.867 494.440,63.496 437.000 L 62.622 431.000 62.507 241.200 C 62.443 136.810,62.478 51.175,62.583 50.900 C 62.736 50.502,82.573 50.400,159.921 50.400 L 257.068 50.400 259.634 51.230 M325.152 111.687 C 325.337 112.798,325.393 112.855,325.519 112.054 C 325.601 111.533,325.503 110.943,325.301 110.741 C 325.079 110.519,325.021 110.893,325.152 111.687 M336.967 121.600 C 336.967 125.890,337.026 127.645,337.098 125.500 C 337.170 123.355,337.170 119.845,337.098 117.700 C 337.026 115.555,336.967 117.310,336.967 121.600 M328.082 129.896 C 329.558 129.973,332.078 129.973,333.682 129.897 C 335.287 129.821,334.080 129.758,331.000 129.758 C 327.920 129.757,326.607 129.819,328.082 129.896 M329.683 135.867 C 328.420 136.490,326.915 138.566,326.035 140.900 C 325.332 142.764,325.929 142.114,326.818 140.047 C 329.037 134.888,334.723 134.047,336.624 138.596 C 338.237 142.457,335.989 148.415,333.637 146.510 L 332.752 145.794 333.567 143.997 C 335.954 138.736,331.974 137.238,329.324 142.400 C 327.145 146.647,324.900 147.921,321.848 146.646 C 319.034 145.470,318.052 140.981,319.849 137.505 C 321.182 134.928,323.667 136.883,322.398 139.510 C 320.814 142.788,323.190 145.540,325.287 142.857 C 325.741 142.276,325.722 142.261,325.122 142.731 C 323.052 144.351,321.713 142.054,323.029 139.137 C 323.684 137.682,323.685 137.557,323.035 136.839 C 319.834 133.302,316.644 141.056,319.613 145.155 C 322.550 149.209,326.859 148.183,329.605 142.776 C 331.974 138.112,335.511 139.027,333.241 143.716 C 332.171 145.926,332.184 146.167,333.418 146.975 C 334.842 147.908,335.790 147.459,336.763 145.389 C 339.599 139.355,335.042 133.226,329.683 135.867 M318.961 150.558 C 318.843 150.865,318.804 151.810,318.873 152.658 L 319.000 154.200 324.600 154.297 C 331.099 154.410,331.700 154.512,332.789 155.680 C 333.235 156.159,333.600 156.365,333.600 156.137 C 333.600 154.631,332.008 154.203,325.660 154.000 L 319.400 153.800 319.400 152.200 L 319.400 150.600 324.000 150.476 C 332.150 150.257,334.442 150.954,336.287 154.212 C 338.049 157.322,337.232 160.952,334.221 163.390 L 332.727 164.600 326.064 164.600 L 319.400 164.600 319.270 163.242 C 319.088 161.328,319.464 161.213,325.931 161.206 L 331.662 161.200 332.831 160.031 C 333.610 159.252,333.986 158.484,333.959 157.731 C 333.921 156.667,333.899 156.682,333.591 157.990 C 333.000 160.505,332.212 160.799,326.056 160.805 C 318.784 160.813,318.730 160.831,318.880 163.152 L 319.000 165.000 325.000 165.122 C 328.420 165.191,331.622 165.062,332.446 164.822 C 338.840 162.957,339.513 153.785,333.462 150.968 C 330.942 149.794,319.379 149.468,318.961 150.558 M324.303 168.336 C 320.509 170.132,318.780 173.202,318.498 178.642 C 318.203 184.349,317.589 184.000,327.934 184.000 C 338.228 184.000,337.600 184.301,337.600 179.370 C 337.600 170.477,331.127 165.105,324.303 168.336 M332.938 169.470 C 336.330 171.854,338.823 180.563,336.809 182.990 C 336.287 183.618,321.355 183.941,319.833 183.357 C 318.478 182.837,318.957 174.969,320.500 172.400 C 323.132 168.016,328.927 166.651,332.938 169.470 M324.873 172.412 C 323.238 173.409,321.903 176.224,322.076 178.311 L 322.200 179.800 328.000 179.800 L 333.800 179.800 333.909 178.000 C 334.205 173.120,328.996 169.899,324.873 172.412 M330.278 172.417 C 332.064 173.040,333.317 174.997,333.524 177.484 L 333.699 179.600 328.250 179.600 L 322.800 179.600 322.800 177.431 C 322.800 173.293,326.218 171.002,330.278 172.417 M333.867 185.867 C 333.720 186.013,333.600 187.532,333.600 189.241 L 333.600 192.350 326.385 192.475 C 318.571 192.610,318.419 192.656,318.406 194.877 C 318.394 196.962,319.363 197.200,327.863 197.200 C 338.252 197.200,337.600 197.582,337.600 191.490 C 337.600 188.189,337.441 186.401,337.120 186.080 C 336.610 185.570,334.314 185.419,333.867 185.867 M336.948 186.900 C 337.305 188.231,337.239 195.318,336.865 195.908 C 336.617 196.299,334.561 196.391,327.971 196.308 L 319.400 196.200 319.276 194.709 L 319.153 193.218 326.476 193.109 L 333.800 193.000 333.908 190.000 C 334.046 186.203,334.128 186.000,335.541 186.000 C 336.412 186.000,336.768 186.228,336.948 186.900 M333.867 198.667 C 333.720 198.813,333.600 200.343,333.600 202.067 L 333.600 205.200 326.889 205.200 C 318.758 205.200,316.859 206.138,318.791 209.200 C 319.260 209.943,334.707 210.320,336.516 209.632 L 337.600 209.220 337.600 204.290 C 337.600 200.989,337.441 199.201,337.120 198.880 C 336.610 198.370,334.314 198.219,333.867 198.667 M336.720 199.280 C 337.223 199.783,337.417 207.369,336.957 208.567 C 336.746 209.118,335.574 209.200,327.957 209.200 L 319.200 209.200 319.200 207.609 L 319.200 206.018 326.500 205.909 L 333.800 205.800 333.918 202.612 C 333.990 200.684,334.227 199.304,334.518 199.118 C 335.230 198.666,336.175 198.735,336.720 199.280 M318.880 212.880 C 318.329 213.431,318.201 223.467,318.734 224.308 C 318.983 224.699,321.158 224.791,328.228 224.708 L 337.400 224.600 337.512 219.055 C 337.638 212.773,337.471 212.292,335.234 212.480 L 333.800 212.600 333.686 216.500 L 333.571 220.400 331.802 220.400 L 330.034 220.400 329.917 217.304 C 329.813 214.564,329.708 214.194,329.000 214.083 C 328.344 213.980,328.308 214.030,328.800 214.363 C 329.213 214.643,329.462 215.738,329.600 217.884 L 329.800 221.000 331.800 221.000 L 333.800 221.000 333.914 217.104 C 334.025 213.333,334.061 213.200,335.020 212.959 C 336.907 212.486,337.201 213.241,337.194 218.549 C 337.186 224.987,338.070 224.436,327.971 224.308 L 319.400 224.200 319.400 218.600 L 319.400 213.000 320.600 213.000 L 321.800 213.000 321.917 216.579 C 322.054 220.786,322.344 221.283,324.565 221.120 L 326.200 221.000 326.319 218.018 C 326.385 216.378,326.632 214.803,326.868 214.518 C 327.190 214.130,327.135 214.000,326.649 214.000 C 326.104 214.000,326.000 214.515,326.000 217.200 L 326.000 220.400 324.400 220.400 L 322.800 220.400 322.800 216.880 C 322.800 212.977,322.517 212.400,320.600 212.400 C 319.918 212.400,319.144 212.616,318.880 212.880 M318.880 226.880 C 318.321 227.439,318.202 238.668,318.746 239.526 C 318.961 239.866,319.702 240.007,320.840 239.926 L 322.600 239.800 322.720 237.500 L 322.840 235.200 330.029 235.200 L 337.217 235.200 337.652 234.245 C 337.981 233.524,337.953 233.011,337.539 232.145 L 336.990 231.000 329.895 230.891 L 322.800 230.782 322.800 229.071 C 322.800 227.039,322.274 226.400,320.600 226.400 C 319.918 226.400,319.144 226.616,318.880 226.880 M322.000 228.920 C 322.000 231.561,322.116 231.600,329.853 231.600 C 337.338 231.600,337.721 231.729,337.000 234.000 C 336.759 234.761,336.395 234.800,329.573 234.800 C 322.090 234.800,322.199 234.773,322.386 236.543 C 322.582 238.392,322.036 239.200,320.592 239.200 L 319.200 239.200 319.200 233.200 L 319.200 227.200 320.600 227.200 C 321.983 227.200,322.000 227.221,322.000 228.920 M191.400 284.273 C 131.650 289.438,81.689 334.114,70.034 392.800 C 52.885 479.146,121.898 558.933,209.800 554.387 C 299.599 549.743,359.780 461.521,331.390 376.144 C 311.833 317.328,253.309 278.921,191.400 284.273 M207.900 296.396 L 210.800 296.400 210.800 300.400 L 210.800 304.400 202.986 304.400 L 195.171 304.400 195.286 300.500 L 195.400 296.600 198.800 296.358 C 200.670 296.224,202.830 296.177,203.600 296.253 C 204.370 296.329,206.305 296.393,207.900 296.396 M182.493 307.300 L 182.600 316.600 203.000 316.600 L 223.400 316.600 223.507 307.300 C 223.589 300.258,223.734 298.000,224.107 298.002 C 227.276 298.011,243.544 302.752,250.269 305.625 C 274.816 316.113,292.973 331.620,307.845 354.800 L 309.000 356.600 309.200 383.600 L 309.400 410.600 317.494 410.708 C 327.117 410.837,326.073 409.710,325.914 419.800 L 325.800 427.000 317.500 427.108 L 309.200 427.216 309.200 454.333 L 309.200 481.451 307.528 484.225 C 292.515 509.144,264.982 529.908,236.800 537.565 C 231.505 539.003,223.156 540.800,221.765 540.800 L 220.417 540.800 220.308 532.700 L 220.200 524.600 203.000 524.600 L 185.800 524.600 185.692 532.700 L 185.583 540.800 184.385 540.800 C 182.958 540.800,175.321 539.188,170.000 537.763 C 141.018 530.005,114.241 509.913,98.349 484.000 L 97.000 481.800 96.800 454.600 L 96.600 427.400 88.400 427.200 L 80.200 427.000 80.200 419.000 L 80.200 411.000 88.182 410.891 C 93.954 410.813,96.250 410.647,96.476 410.291 C 96.647 410.021,96.791 397.953,96.794 383.474 C 96.798 364.517,96.928 356.903,97.257 356.274 C 109.242 333.366,139.747 309.433,166.957 301.591 C 171.706 300.222,180.585 298.076,181.693 298.029 C 182.328 298.002,182.394 298.775,182.493 307.300 M323.223 393.200 C 324.259 397.837,324.245 398.000,322.800 398.000 L 321.600 398.000 321.625 392.900 C 321.654 387.229,321.900 387.276,323.223 393.200 M84.000 393.600 L 84.000 398.000 83.000 398.000 C 81.753 398.000,81.740 397.589,82.836 392.830 C 83.902 388.201,84.000 388.266,84.000 393.600 M137.919 401.972 C 127.234 405.389,122.092 417.148,126.969 427.017 C 134.865 442.993,158.342 439.102,160.861 421.400 C 162.649 408.833,149.989 398.113,137.919 401.972 M253.555 401.780 C 241.626 405.070,236.314 419.238,243.276 429.200 C 253.477 443.797,275.800 437.070,275.800 419.400 C 275.800 407.154,265.023 398.618,253.555 401.780 M148.475 402.646 C 157.446 405.525,162.579 415.818,159.474 424.701 C 153.739 441.109,130.473 439.991,126.142 423.099 C 122.855 410.278,135.674 398.537,148.475 402.646 M263.292 402.587 C 273.243 405.584,278.415 417.444,273.772 426.620 C 266.766 440.468,246.891 439.412,241.777 424.921 C 237.037 411.488,249.586 398.461,263.292 402.587 M83.968 444.700 C 83.934 449.864,83.743 449.765,82.460 443.919 C 81.635 440.164,81.661 440.000,83.067 440.000 C 83.993 440.000,84.000 440.034,83.968 444.700 M323.991 441.100 C 323.981 442.398,322.641 448.564,322.057 450.000 C 321.752 450.752,321.644 449.635,321.625 445.500 L 321.600 440.000 322.800 440.000 C 323.845 440.000,323.999 440.143,323.991 441.100 M207.919 539.700 L 207.800 542.200 203.800 542.317 C 198.006 542.486,198.000 542.483,198.000 539.592 L 198.000 537.200 203.019 537.200 L 208.038 537.200 207.919 539.700 " stroke="none" fill="#000000" fill-rule="evenodd"></path><path id="path4" d="M320.456 115.690 C 315.568 121.582,315.573 120.382,320.410 126.715 C 324.744 132.389,325.200 132.859,325.200 131.656 C 325.200 129.643,325.326 129.600,331.243 129.600 L 336.800 129.600 336.800 121.608 C 336.800 112.238,337.584 113.249,330.200 113.098 L 325.400 113.000 325.273 111.900 C 325.081 110.225,324.816 110.433,320.456 115.690 M332.300 119.189 C 333.992 119.957,334.529 121.022,333.436 121.441 C 333.126 121.561,332.355 121.390,331.722 121.063 C 329.742 120.039,327.918 119.891,325.987 120.598 C 323.532 121.496,323.054 121.511,322.885 120.694 C 322.487 118.766,329.055 117.716,332.300 119.189 M331.527 121.875 C 332.817 122.680,332.017 123.739,330.543 123.178 C 329.293 122.703,326.780 122.698,326.036 123.169 C 325.338 123.611,324.400 123.288,324.400 122.606 C 324.400 122.110,325.785 121.408,327.400 121.085 C 328.570 120.850,330.466 121.214,331.527 121.875 M330.400 124.200 C 331.005 124.929,331.114 124.886,328.300 125.013 C 326.123 125.111,325.419 124.714,326.267 123.867 C 326.789 123.344,329.898 123.595,330.400 124.200 " stroke="none" fill="#000000" fill-rule="evenodd"></path></g></svg>