<?xml version="1.0" encoding="utf-8"?>
<!-- Generator: Adobe Illustrator 26.0.0, SVG Export Plug-In . SVG Version: 6.00 Build 0)  -->
<svg version="1.1" id="Layer_1" xmlns="http://www.w3.org/2000/svg" xmlns:xlink="http://www.w3.org/1999/xlink" x="0px" y="0px"
	 viewBox="0 0 938 1364" style="enable-background:new 0 0 938 1364;" xml:space="preserve">
<style type="text/css">
	.st0{fill:#FFFFFF;stroke:#000000;stroke-width:5;stroke-miterlimit:10;}
	.st1{fill:#020101;stroke:#000000;stroke-width:8;stroke-miterlimit:10;}
</style>
<g id="_x23_ffffffff">
	<path class="st0" d="M347.1,76.2C350.4,76.5,345.5,79.2,347.1,76.2z"/>
	<path class="st0" d="M227,79.1c1.6-0.5,2.1,0,1.6,1.7C227,81.3,226.5,80.7,227,79.1z"/>
</g>
<g id="_x23_020101ff">
	<path class="st1" d="M686.4,20.2c4.5-1,9.1-0.7,13.7-0.6c15.7,2.2,31.1,7,45.2,14.2c8.5,5.1,17.5,9.5,25.3,15.7
		c5.6,4,10.5,8.9,15.8,13.3c16.6,14.4,33.1,28.9,49.8,43.2c5.6,6.4,12.7,11.3,17.6,18.3c4.4,5.9,9.3,11.5,13.3,17.6
		c4.3,8,8.7,15.9,12.9,24c3.7,9.5,6.8,19.2,10.3,28.8c2.5,10.6,4.3,21.3,6.5,31.9c1.3,5.1,0.5,10.5,1.4,15.7
		c0.5,3.6,0.4,7.2,0.6,10.9c1.9,13.2,0.6,26.6,1,39.9c1.1,18,0.5,36,0.9,54c0.3,15.3-0.4,30.7,0.7,46c0.1,26,0.4,52,0.4,78
		c-0.1,3.7,0.6,7.3,0.6,11c0.1,22.3,0.3,44.7,0.4,67c0.1,6.7-0.2,13.3,0.6,20c0.2,20.7,0.3,41.3,0.4,62c0.2,9-0.3,18,0.6,27
		c0.2,27.7,0.4,55.4,0.5,83c1,10,0.4,20,0.7,30c0.1,17.7,0.2,35.3,0.3,53c-0.2,6.3,0.9,12.7,0.6,19c0.1,19,0.3,38,0.3,57
		c0.2,8.7-0.3,17.3,0.6,26c0.2,27.3,0.4,54.7,0.5,82c1,10.3,0.4,20.7,0.7,31c0.1,19,0.3,38,0.2,57c0.3,10.3-1.3,20.6-1.2,31
		c-1.4,9.5-3.2,18.9-4.8,28.3c-1.4,11.3-6,21.8-9,32.7c-2.2,8.6-6.6,16.4-10.3,24.5c-2.5,5.1-4.5,10.5-7.8,15.2
		c-4.8,7.2-9.4,14.5-14.3,21.6c-5.9,6.8-11.9,13.5-17.8,20.2c-6.3,5.7-12.8,11.2-19.4,16.6c-5.6,3.9-11.6,7.1-17.4,10.7
		c-5.5,3.7-11.9,5.4-17.9,8.1c-8.7,3.9-18.6,4.5-27.8,2.1c-9.3-2.7-17.1-8.7-25.4-13.6c-16.5-10.2-33-20.4-49.5-30.5
		c-6.1-3.7-11.8-8.1-16.9-13.1c-9.6-9.9-14.1-24-13.7-37.7c-0.1-16.7-0.1-33.3-0.4-50c-1-28-0.4-56-0.9-84
		c-1.3-36.7-0.2-73.3-1.6-110c-0.3-27.3,0.1-54.7-0.8-82c-0.8-31.7,0.1-63.4-1.2-95c-0.2-24.7-0.1-49.3-0.5-74
		c-1.3-34.7-0.1-69.4-1.5-104c-0.2-24.7-0.1-49.3-0.5-74c-1.3-35-0.1-70-1.5-105c-0.3-27.7,0.1-55.4-0.8-83
		c-0.5-26.3-0.2-52.7-0.7-79c-1-29.6-0.4-59.3-1-89c-1-28.6-0.5-57.3-1-86c0-8.7-0.7-17.4-0.7-26.1c0.7-15.6,8.4-30.9,20.8-40.5
		C670.2,25.3,678,21.7,686.4,20.2 M676.2,30.2c-13.9,7.2-24.1,21.2-26.6,36.7c-1.9,9.6-0.1,19.4-0.4,29.1c0.7,80,1.8,160,2.6,240.1
		c-0.6,4,5.1,5.1,4.8,9.1c0.2,23.9,0.7,47.9,0.8,71.8c0,14.2,0.7,28.4,0.3,42.6c-1.5,0.4-3,0.7-4.6,0.9
		c1.6,125.1,2.8,250.2,4.3,375.3c0.7,2.8,4.6,4,4.8,7.3c0.4,38,1,76,1.3,114c-0.9,1.8-3,1.5-4.7,1.5c1,85.8,1.9,171.6,2.9,257.4
		c-0.2,12.1,3.9,24.3,12,33.3c4.3,6,11.3,8.8,17.2,12.8c15.8,9.6,31.4,19.8,47.4,29c-4.9-8.1-7.7-17.5-7.2-27
		c-0.9-36.7-0.4-73.4-1.4-110c-0.1-29-0.2-58-1-87c-0.1-29.7-0.2-59.3-1-89c-0.1-29.7-0.2-59.3-1-89c-0.1-27-0.2-54-0.8-81
		c-0.5-30-0.2-60-1.1-90c-0.4-31.7-0.2-63.4-1.1-95c0-25.3-0.3-50.7-0.6-76c-0.8-17.6-0.3-35.3-0.6-53c-0.1-25.7-1-51.4-0.9-77.1
		c-0.3-20-0.2-40-0.9-59.9c0-24.3-0.3-48.7-0.6-73c-1-35.3-0.3-70.7-1.4-106c-0.1-16.9-0.1-33.9-0.4-50.9
		c-1.5-16.4,6.5-33.2,19.9-42.8c8.9-6.6,20.2-9.6,31.2-8.8c7.4,1.5,14.8,2.8,22,5.2c7.1,2.2,13.8,5.6,20.7,8.4
		c-5.7-5.8-12.2-10.7-18.2-16.2c-14.3-12.5-28.7-25.4-45.7-34.1C734.6,33.3,721,26.3,706,25C695.9,23.6,685.3,25.4,676.2,30.2
		 M759.4,78.7c-10.5,1.6-20.6,7-27.2,15.5c-8.8,10.3-12.5,24.5-10.6,37.8c4.3,377.6,8.5,755.2,12.7,1132.8
		c-0.1,9.4,2.4,19.1,8.3,26.5c4.4,5.9,10.9,9.7,17.7,12.2c5.3,1.7,11,1.5,16.5,1.3c4.6-0.2,8.9-2.3,13.1-3.9c3.9-1.7,8.1-3,11.9-5
		c4.4-2.6,8.7-5.3,13.1-7.9c9.1-4.9,16.1-12.6,24.3-18.7c6.7-6.6,12.5-14.1,18.9-20.9c5.6-7.8,10.6-16.1,16-24
		c4.5-8.3,8.1-17.2,12.3-25.6c2.7-5.1,3.9-10.9,5.7-16.3c2.7-9.3,6.5-18.4,7.6-28.2c1.6-11.4,4.9-22.6,4.8-34.1
		c1.4-12,0.9-24.2,1-36.2c-0.1-27.7-0.3-55.3-0.5-83c-1.1-14.3-0.4-28.7-0.7-43c-0.3-18.7,0.2-37.4-0.9-56c0-26-0.3-52-0.4-78
		c-1.1-17.3-0.4-34.7-0.8-52c-0.3-15.7,0.3-31.4-0.8-47c-0.1-23.7-0.2-47.3-0.4-71c0.3-8.3-0.8-16.7-0.6-25
		c-0.1-19.4-0.2-38.7-0.3-58c-0.1-7.7,0.2-15.3-0.6-23c-0.1-23.3-0.2-46.6-0.4-70c-0.1-6,0.2-12.1-0.5-18c-0.2-15.7-0.1-31.3-0.3-47
		c-0.3-14.7,0.3-29.4-0.8-44c-0.1-27.3-0.2-54.7-0.5-82c-1.3-6.3,0.8-12.7-0.4-19c0-5-0.1-10-1-15c0-7.9-1.1-15.7-1.4-23.6
		c-1.8-9.5-3.8-19-5.6-28.5c-1.1-6.8-4.1-13-6.2-19.5c-2.3-6.3-4-12.9-7.4-18.7c-4-7-7.4-14.3-11.7-21.2c-5.4-7-10.6-14.1-16.2-20.8
		c-6.2-5.8-12.3-11.8-18.9-17.2c-15.3-11.8-33.3-20-52.2-23.8C770.8,77.7,765,78.5,759.4,78.7z"/>
	<path class="st1" d="M427.3,34.7c5.2-0.3,10.6-0.4,15.7,0.9c6.5,1.1,12.2,4.5,18,7.4c3.4,1.8,6.3,4.3,9.1,6.9
		c18.2,15.8,36.4,31.6,54.6,47.5c8.8,6.9,16.8,15.7,19.2,26.9c2.4,7.3,1.3,15,1.7,22.6c0.4,6.7-0.1,13.4,0.7,20.1
		c0.2,25.7,0.4,51.3,0.5,77c-0.3,5.4,0.7,10.6,0.6,16c0.2,26.3,0.3,52.7,0.5,79c0.8,6.6,0.4,13.3,0.6,20c0.2,23,0.3,46,0.4,69
		c0.8,6.6,0.4,13.3,0.6,20c0.2,22.3,0.3,44.7,0.4,67c1.1,16.3,0.5,32.7,0.8,49c0.3,16.6-0.3,33.3,0.8,50c0.1,22.3,0.3,44.7,0.4,67
		c0.1,6.7-0.2,13.3,0.5,20c0.2,27,0.4,54,0.5,81c-0.1,3,0.5,6,0.6,9c0.2,26.7,0.4,53.4,0.4,80c1.1,16.4,0.5,32.9,0.8,49.4
		c0.3,16.5-0.3,33.1,0.8,49.6c0.2,26.7,0.4,53.3,0.5,80c1,11.3,0.5,22.7,0.7,34c0.1,17.7,0.2,35.3,0.3,53c1.1,19.3,0.5,38.7,0.9,58
		c0.3,13.7-0.4,27.4,0.7,41.1c0.1,14,0.2,28,0.2,41.9c1.2,17.2-7.7,34.9-22.5,43.9c-9.1,6-20.3,7.3-30.9,7.6
		c-26,1.8-51.9,3.9-77.9,5.4c-6.1,1-12.4,0.2-18.5,1.2c-5.9,0.6-11.9,0.1-17.8,1.1c-16.3,0.5-32.5,2.2-48.7,2.5
		c-7.3,1.1-14.7,0.5-22,1.1c-5.3,0.8-10.7,0.6-16,0.8c-4.7-0.1-9.3,0.9-13.9,0.9c-7.7,0.4-15.5-0.4-23.2,0.8
		c-5.3,0.7-10.5-0.8-15.8-0.6c-5.2,0.2-10.1-1.6-15.1-2.5c-5.8-1.4-11.8-2.1-17.3-4.6c-6.4-2.8-12.9-5.4-19.2-8.2
		c-11.1-5.5-21.3-12.6-31.8-19c-16.3-10.1-32.6-20-48.8-30.2c-32.7-21.9-58-54.3-71.5-91.2c-6.9-17.4-10.6-35.8-13.5-54.2
		c-0.9-12.6-2.4-25.1-2.2-37.7c-0.1-12.7-0.1-25.5-0.4-38.2c-0.7-5.6-0.4-11.2-0.5-16.8c-0.1-19,0-38-0.3-57c-0.1-7,0.1-14-0.7-21
		c-0.2-26.7-0.1-53.4-0.5-80c-1.1-17.3-0.5-34.7-0.7-52c-0.2-16,0.1-32-0.9-48c-0.1-26.3-0.1-52.7-0.4-79c-1-13.6-0.5-27.3-0.7-41
		c-0.2-20.3,0.1-40.7-0.9-61c-0.1-26.3,0-52.7-0.5-79c-0.7-5.3-0.4-10.7-0.5-16c-0.1-24-0.1-48-0.5-72c-0.9-8-0.4-16-0.6-24
		c-0.2-25,0.2-50-1-75c-0.1-27-0.1-54-0.1-81c-0.2-6.1,1.2-12,1.1-18c1.8-12.8,4.1-25.5,7-38c3.2-11.1,6.9-22.1,11.1-32.9
		c4.4-9.7,9.4-19.2,14.6-28.5c4.1-6.5,8.7-12.7,13.3-18.9c6.9-9.6,15.5-17.8,23.9-26.1c6.6-5.8,13.7-11,20.8-16.1
		c21.5-14.2,46.7-23.6,72.6-24.9c2,0,4-0.1,6-0.4c5.8-1.1,11.8-0.1,17.7-1.3c5.5-0.5,11.1-0.1,16.6-1.1c8.3,0.1,16.5-1.4,24.8-1.3
		c6.7-1.2,13.6-0.4,20.4-1.6c4.4-0.5,8.9,0,13.4-0.7c5-0.9,10.1-0.2,15.1-1c5.2-1,10.6-0.2,15.9-1.1c5-0.9,10-0.1,15-0.9
		c5.3-1,10.7-0.2,16-1.1c5-0.9,10-0.1,15-0.9c5-0.9,10.1-0.2,15.1-1c5-1,10-0.2,15-1c5.8-1.1,11.8-0.1,17.7-1.3
		C416.2,35.3,421.8,35.8,427.3,34.7 M431.9,39.8c-6.9,1-14,0.4-20.9,1.5c-8.5,0.1-17,1.3-25.5,1.4c-7.1,1.1-14.4,0.6-21.5,1.7
		c-8.2,0-16.4,1.3-24.7,1.3c-6.4,1.1-13,0.5-19.4,1.5c-30.1,1.7-60.1,4-90.2,5.7c-6.5,1-13.2,0.4-19.7,1.5c-18.4,0.5-37,2-54.5,7.9
		c-29.6,9.9-55.2,29.4-75.2,53.1c-26.9,31.7-43,71.6-49,112.6c-1.4,8-1.8,16-2.7,24.1c-0.3,29.3,0,58.7,0.1,88c0,3,0.6,6,0.6,9
		c0.1,23.3,0.3,46.7,0.4,70c0.1,5.7-0.2,11.4,0.5,17c0.3,27.7,0.4,55.4,0.5,83c0,2.7,0.6,5.3,0.5,8c0.1,26.7,0.4,53.4,0.4,80
		c0,3.3,0.7,6.6,0.6,10c0.1,26.3,0.4,52.7,0.4,79c0,3,0.6,6,0.5,9c0.2,26.7,0.4,53.4,0.5,80c0,2.7,0.5,5.3,0.5,8
		c0.2,27.7,0.4,55.4,0.5,83c0.7,6,0.5,12,0.6,18c0.1,18.7,0.3,37.3,0.3,56c0.1,7-0.2,14,0.6,21c0.2,20.3,0.3,40.7,0.4,61
		c0.2,9.3-0.3,18.7,0.6,28c0.1,15.3,0.3,30.6,0.2,45.9c0.1,5.4,1.3,10.7,1.1,16.1c2.6,32.5,10.9,64.8,26.8,93.4
		c7.1,13.4,16.7,25.2,26.7,36.5c11.7,12.9,26.1,23.1,41.1,31.9c9.7,5.9,19.3,12.1,29.2,17.8c-10.5-10.3-20.4-21.3-28.4-33.6
		c-13.8-20.7-23.4-44-29-68.1c-4.6-18.9-6-38.5-7.1-57.9c1.1-10,0.2-20,0.4-30c-0.9-9-0.5-18-0.6-27c-0.1-21.3-0.2-42.7-0.5-64
		c-0.7-5.7-0.4-11.3-0.5-17c-0.1-23.3-0.3-46.7-0.4-70c0-3-0.6-6-0.5-9c-0.1-26.7-0.3-53.4-0.5-80c0-3-0.6-6-0.5-9
		c-0.1-27-0.3-54-0.5-81c-0.8-7-0.5-14-0.6-21c-0.1-18.7-0.2-37.3-0.3-56c-0.1-6,0.2-12-0.6-18c-0.2-27-0.3-54-0.5-81
		c-1.1-16.7-0.4-33.4-0.8-50.1c-0.3-16.3,0.3-32.6-0.8-48.9c-0.1-26.7-0.3-53.4-0.5-80c0-3.3-0.7-6.6-0.6-10c0-27-0.4-54-0.3-81
		c-0.6-23,3.2-46,9.7-68c9.6-31.9,26.8-61.8,50.8-85.1c24.6-24.5,56.5-42.4,91.1-47.2c8.3-0.6,16.7-1.4,25-1.4
		c10.6-1.3,21.4-0.3,32-1.6c12.4,0.1,24.6-1.3,37-1.4c7.8-1.2,15.7-0.3,23.4-1.5c5.4-0.5,10.8-0.1,16.2-0.8c5.6-0.8,11.2-0.3,16.8-1
		c5.4-0.8,10.9-0.3,16.3-1c5.8-0.9,11.7-0.3,17.5-1.3c23.1-1.2,46.1-3.4,69.2-4.7c7.5-1.3,15.2-0.8,22.6,0.8
		c-12-11-24.5-21.4-36.7-32.2c-7.8-6.5-15-14.1-24.2-18.7C448.6,40.7,440.2,38.9,431.9,39.8 M504.4,96.3
		c-27.3,1.4-54.5,4.2-81.8,5.6c-6.1,1.1-12.4,0.4-18.6,1.4c-15.9,0.6-31.8,2.1-47.8,2.5c-7.7,1.2-15.5,0.3-23.2,1.5
		c-5.8,0.5-11.5,0.2-17.3,0.6c-8.9,1.2-17.9,0.2-26.7,1.4c-7.4,0.4-14.9,0.1-22.3,0.6c-5.2,0.9-10.5,0.2-15.8,0.6
		c-39.5,2.6-76.2,23-103.1,51.5c-34.3,35.4-52.7,84.3-55.5,133.1c-0.3,36.7,0.2,73.3,0.3,110c-0.1,3.3,0.6,6.6,0.6,10
		c0.1,22.7,0.3,45.3,0.4,68c0.1,6.3-0.2,12.7,0.5,19c0.2,23.3,0.3,46.7,0.5,70c0.1,6.3-0.2,12.7,0.5,19c0.3,27,0.4,54,0.5,81
		c1.1,16.6,0.5,33.3,0.8,50c0.3,16.7-0.3,33.4,0.7,50c0.1,22.3,0.3,44.7,0.4,67c0.1,6.3-0.2,12.7,0.5,19c0.2,15.6,0.2,31.2,0.3,46.7
		c0.3,14.8-0.4,29.5,0.7,44.3c0.2,26.7,0.4,53.3,0.5,80c-0.1,2.7,0.4,5.3,0.5,8c0.2,27.7,0.3,55.3,0.5,83c1.5,15.3-0.4,30.8,1.6,46
		c4,47.9,23.1,95.7,58,129.5c14.7,14.4,31.8,26.6,51.1,33.9c5.1,2,10.1,4.7,15.5,5.9c10.6,2.2,21.1,5.3,32,5.1
		c7.7,0.5,15.3-1.1,23-0.8c6,0.1,12-0.1,18-0.4c8.2-1.2,16.5-0.2,24.6-1.4c7-0.6,14,0,21-1c21.8-0.9,43.6-2.7,65.4-3.6
		c6.5-1.1,13.1-0.3,19.6-1.3c23.1-1.3,46.1-3.3,69.2-4.7c8.3-1.3,17,0.2,24.9-3.2c17.3-5.2,29.8-22.1,30.9-40
		c-0.3-24.3,0.3-48.7-0.9-73c0-24-0.3-48-0.4-72c0.3-6.7-0.8-13.3-0.6-20c-0.1-16.3-0.1-32.7-0.3-49c-0.3-11.3,0.3-22.7-0.7-34
		c-0.1-27.7-0.3-55.3-0.5-83c-0.9-8.3-0.4-16.7-0.6-25c-0.1-21.3-0.2-42.7-0.4-64c-0.8-7-0.4-14-0.5-21c-0.1-22-0.3-44-0.4-66
		c-1.1-15.6-0.4-31.4-0.7-47c-0.3-17.3,0.2-34.7-0.8-51.9c0-26.3-0.3-52.7-0.4-79c-1.1-16-0.4-32-0.7-48c-0.3-17,0.2-34.1-0.8-51
		c0-23.3-0.2-46.7-0.4-70c-0.1-5.3,0.1-10.7-0.5-16c-0.2-15.3-0.1-30.7-0.3-46c-0.3-15.3,0.2-30.7-0.8-46c0-26.7-0.3-53.4-0.4-80
		c0-3-0.6-6-0.6-9c0-24-0.2-48-0.4-72c0-3,0.1-6-0.3-8.9c-1.4-9.2,1-18.7-2-27.6C536.9,108.3,521.3,95.3,504.4,96.3z"/>
	<path class="st1" d="M277.3,59.8c5.6-0.4,11.3-0.1,16.8-1.1c14.3-0.2,29-1.4,42.9,3.1c4,1.2,7.9,3.6,9.4,7.7c1.1,3.5,6,5.6,4,9.7
		c-6.9,6.3-17,6.4-25.7,7.9c-13.9,0.8-27.8,2.1-41.8,2.6C274,91,265,90.5,256,90.4c-10.8-1.1-22.6-1.5-31.8-8.2c0.2-1.8,0-4,1.7-5.3
		c3.2-2.8,3.2-7.8,7.2-9.9c7.8-4.4,17.1-5.3,25.9-5.8C265.1,60.1,271.3,61.1,277.3,59.8 M277,63.4c-7.7-0.1-15.2,1.2-22.9,1.3
		c-6.2,1.2-13.1,1.3-18.3,5.3c5.3,4.2,12.5,4.3,18.9,5.3c10.5,0.4,21,0.6,31.4-0.7c8,0,15.9-1.3,23.9-1.3c9.7-1.1,20.1-0.7,28.9-5.6
		c-0.5-2.3-3-2.8-4.9-3.5c-11.7-3.3-24-2.9-36.1-2.6C291,63,284,62.1,277,63.4 M336.8,71.8c-5,2.2-10.5,2.7-15.8,3.5
		c-18.3,1.2-36.6,2.3-55,2.5c-7.6-0.4-15.5,0.7-22.9-1.6c-3.6-1.3-7.4-2.7-10.4-5.2c-2.2,3.7-1,8.2-1.4,12.3
		c7.6,2.6,15.5,4.1,23.6,4.2c9.6,0.1,19.3,0.8,28.9-0.4c20.2-1.9,41.2-0.3,60.7-6.9c0.1-4-0.9-7.9-1.2-11.9
		C340.9,68.9,339.1,70.8,336.8,71.8 M347.1,76.2C345.5,79.2,350.4,76.5,347.1,76.2 M227,79.1c-0.5,1.7,0,2.2,1.6,1.7
		C229.2,79.1,228.6,78.6,227,79.1z"/>
	<path class="st1" d="M760.3,86.1c4.1-1.1,8.5-0.5,12.7-0.2c34.7,4.7,65.5,26.3,85.8,54.3c22.3,30.6,32.6,68.4,35.7,105.7
		c-0.3,6.7,1.3,13.3,1,20c0,15.3,0.1,30.7,0.2,46c0.1,7-0.2,14,0.6,21c0.1,27,0.4,54,0.5,81c1.1,16.3,0.5,32.7,0.8,49
		c0.3,17-0.3,34,0.8,51c0.1,26.7,0.4,53.4,0.5,80c0.9,9,0.4,18,0.6,27c0.2,20.7,0.3,41.3,0.4,62c0.8,6.6,0.5,13.3,0.6,20
		c0.1,18.7,0.3,37.3,0.3,56c0.1,6.3-0.2,12.7,0.6,19c0.2,26.7,0.4,53.4,0.5,80.1c1.1,20.1,0.5,40.3,0.9,60.5
		c0.3,12.8-0.4,25.7,0.7,38.4c0.1,26,0.4,52,0.4,78c1.2,25.3,0.5,50.7,0.9,76c0.3,5.1-1.1,10-1.2,15c-3.6,39.7-16.4,79.1-39.3,112
		c-17.3,24.3-39.8,45.8-67.4,57.7c-3.9,1.9-8.3,2.6-12.1,4.8c-7.7,1.3-16,1.6-23.2-1.9c-8.9-4.2-15.6-12.7-17.9-22.3
		c-1.8-6.6-0.8-13.5-1.2-20.3c0.1-13.3-0.7-26.7-0.6-40c-0.2-26.3-0.2-52.7-1-79c0-24-0.3-48-0.6-72c-0.8-29-0.5-58-1-87
		c-1-35.7-0.3-71.3-1.5-107c0-33.7-0.5-67.3-1-101c0-37.8-1.1-75.5-1.1-113.3c-0.3-17.2-0.1-34.5-0.8-51.7c0-25-0.3-50-0.6-75
		c-0.8-28.3-0.4-56.7-1-85c-0.8-31.3-0.6-62.7-1-94c-0.8-22.6-0.3-45.3-0.8-68c0-19.3-0.9-38.6-0.7-58c0-31.3-1.1-62.7-1-94
		c1-4.8-0.8-9.8,0.7-14.5C733.6,101.8,745.5,89.2,760.3,86.1 M762.4,88.6C744,91.5,730,110.6,732.8,129
		c4.3,379.7,8.5,759.3,12.8,1139c0.1,5.3,1.5,10.7,4,15.3c6,11.5,20.4,17.8,32.9,14.1c18.2-5.3,34.8-15.4,49.1-27.8
		c16.6-14,30.1-31.5,40.7-50.4c21.3-38.6,30.5-83.3,29.1-127.2c0.2-14.3-0.1-28.7-0.2-43c-0.1-7,0.2-14-0.6-21
		c-0.2-27.7-0.3-55.4-0.5-83c-1-11-0.4-22-0.6-33c-0.1-18-0.3-36-0.3-54c-1.1-17.5-0.4-35.2-0.8-52.7c-0.3-15.4,0.3-30.9-0.8-46.2
		c-0.1-27-0.3-54-0.5-81c-1-11-0.4-22-0.6-33c-0.1-18.7-0.2-37.3-0.4-56c-0.9-8.6-0.5-17.3-0.6-26c-0.1-21.3-0.2-42.7-0.4-64
		c-0.7-6-0.4-12-0.5-18c-0.1-19.3-0.2-38.7-0.3-58c-0.1-6,0.2-12-0.6-18c-0.2-20.3-0.2-40.7-0.4-61c-0.3-13.3,0.3-26.6-0.7-39.9
		c-0.1-13-0.1-26.1-0.1-39.1c0.1-6-1.2-12-1-18c-2.5-34.4-11.5-69-30.4-98.2c-17.6-27.2-44.4-49.3-76.1-57.6
		C777.7,89.3,770,87.6,762.4,88.6z"/>
	<path class="st1" d="M495.3,103.8c5.6-0.3,11.2-0.7,16.8-0.3c14.5,1.9,26.5,14.9,27.6,29.4c0.2,6.3-0.4,12.8,0.8,19.1
		c0.3,20,0.2,40,0.4,60c0.7,6,0.5,12,0.6,18c0.1,18.7,0.3,37.3,0.3,56c0.1,7-0.2,14,0.6,21c0.2,27,0.4,54,0.5,81
		c-0.1,2.7,0.4,5.3,0.5,8c0.2,27.7,0.4,55.4,0.5,83c0.7,6,0.5,12,0.6,18c0.1,18.7,0.3,37.3,0.3,56c0.1,7-0.2,14,0.6,21
		c0.2,27,0.4,54,0.5,81c-0.1,3,0.6,6,0.6,9c0.1,26.7,0.4,53.4,0.4,80c-0.1,3,0.5,6,0.6,9c0.1,22.7,0.3,45.3,0.4,68
		c0.1,6.7-0.2,13.3,0.6,20c0.2,27.3,0.4,54.7,0.5,82c1,13.3,0.5,26.7,0.8,40c0.1,16.3,0.2,32.7,0.2,49c0.9,10.6,0.5,21.3,0.7,32
		c0.1,17.3,0.2,34.7,0.3,52c-0.2,6.3,0.9,12.6,0.6,19c0.1,20,0.3,40,0.4,60c0.1,7.3-0.3,14.7,0.6,22c0.2,30.3,0.5,60.6,0.4,90.9
		c-1.7,17.2-16.5,32.3-33.9,34c-28.8,2-57.5,4.3-86.3,6c-6.4,1-13,0.4-19.4,1.5c-9.3,0.1-18.5,1.4-27.8,1.4
		c-6.2,0.9-12.4,0.7-18.7,1.1c-6.4,1-12.9,0.5-19.3,1c-6.2,1-12.6,0.5-18.8,1c-6.3,0.9-12.7,0.6-19,0.9c-10.6,1.2-21.2,0.9-31.8,1
		c-7.2,0.8-14.4,1-21.7,0.8c-23.2-1.6-45.6-9.9-65-22.5c-31.7-20.4-55.8-51.7-69.2-86.8c-9.9-25.2-14.2-52.3-15.2-79.3
		c0.1-19.7-0.2-39.3-0.3-59c-1.1-20-0.5-40-0.8-60c-0.3-13.3,0.3-26.7-0.8-40c-0.1-22-0.2-44-0.4-66c-0.1-7.3,0.2-14.7-0.6-22
		c-0.1-27.3-0.3-54.7-0.5-82c-0.1-3-0.6-6-0.5-9c0-26.3-0.3-52.7-0.4-79c0.1-3.3-0.6-6.6-0.6-10c-0.1-26.3-0.3-52.7-0.4-79
		c0-3-0.6-6-0.5-9c-0.1-27-0.3-54-0.5-81c0-3-0.6-6-0.5-9c-0.1-28.3-0.3-56.7-0.5-85c0.2-5.1-0.7-10.2-0.6-15.3
		c-0.1-25.6-0.3-51.2-0.5-76.8c0-2.5-0.5-5.1-0.5-7.6c-0.2-19.8-0.1-39.6-0.1-59.4c1-16.1,3.4-32.2,7.7-47.9
		c8.3-30.8,23.8-59.8,45.8-83c23.3-24.4,53.7-43.2,87.3-48.8c9.5-1.8,19.1-1.7,28.7-2c8.3-1.1,16.6-0.4,24.9-1
		c8-1.1,16.1-0.4,24.1-1.1c7.8-1.1,15.7-0.2,23.4-1.4c5.5-0.4,11-0.1,16.5-0.7c6.2-1,12.6-0.3,18.9-1.1c5.7-0.9,11.4-0.3,17.1-1
		c5.6-0.9,11.4-0.2,17-1.1c4.9-0.7,9.9-0.2,14.7-0.9c4.7-0.8,9.5-0.3,14.3-0.9c5.8-1,11.7-0.4,17.5-1.4c7.5-0.1,15-1.3,22.5-1.4
		C483.7,104.3,489.5,104.8,495.3,103.8 M493.3,106.8c-28.9,2.5-57.8,4.4-86.6,6.2c-5.8,0.9-11.8,0.2-17.6,1.2
		c-5.7,0.7-11.4,0.1-17,1c-5.7,0.7-11.5,0.2-17.2,0.8c-7.2,1.1-14.6,0.2-21.8,1.2c-5.8,0.5-11.6,0.2-17.3,0.7
		c-7.5,1-15.2,0.5-22.7,1c-8.7,1.1-17.5,0.5-26.3,1c-7.2,1.1-14.5,0.1-21.7,1.3c-20.6,2.4-40.3,10.1-57.8,21
		c-17.1,10.8-32.3,24.4-44.7,40.3c-22.3,28.1-35.6,62.8-40.2,98.2c-1,7.7-2,15.5-1.8,23.3c-0.1,25.7,0.2,51.4,0.2,77
		c0,2.7,0.5,5.3,0.5,8c0.2,26.7,0.4,53.3,0.5,80c0,3.7,0.7,7.3,0.6,11c0.1,26,0.4,52,0.4,78c-0.1,3,0.5,6,0.5,9
		c0.2,26.7,0.4,53.4,0.5,80c-0.1,3.3,0.6,6.6,0.6,10c0.1,26.3,0.4,52.7,0.4,79c-0.1,3.3,0.6,6.6,0.6,10c0.1,26.3,0.4,52.7,0.4,79
		c-0.1,3.7,0.7,7.3,0.6,11c0.1,26,0.4,52,0.4,78c-0.1,3.3,0.6,6.6,0.6,10c0.1,22.7,0.3,45.3,0.4,68c0.1,6.3-0.2,12.7,0.5,19
		c0.2,16.5,0.2,33,0.4,49.6c0.2,13.8-0.3,27.7,0.7,41.4c0.1,15.7,0.3,31.3,0.2,47c1,31.2,7.1,62.5,20.7,90.8
		c16.1,34.1,43.1,63.3,76.9,80.3c18.8,9.3,39.8,14.8,60.9,13.5c7.1-0.6,14.3,0.3,21.4-0.8c6.2-0.4,12.4-0.1,18.6-0.6
		c7.7-1.1,15.6-0.2,23.3-1.3c7-0.5,14-0.2,21-1.1c9.9,0,19.8-1.3,29.8-1.4c6.3-1,12.6-0.6,18.9-1.2c6.1-1,12.4-0.2,18.5-1.3
		c28.2-1.5,56.2-3.8,84.4-5.7c5.7-1.1,11.5-0.2,17.1-1.5c16.6-2.8,29.6-18.9,29.2-35.6c-0.7-4.7-0.4-9.3-0.4-14
		c-0.1-28.7-0.3-57.3-0.5-86c-0.9-9-0.4-18-0.6-27c-0.1-18-0.2-36-0.3-54c0.3-7.4-0.9-14.7-0.6-22c-0.1-17.7-0.2-35.3-0.3-53
		c-0.2-9.3,0.3-18.7-0.6-28c-0.4-29,0-58-0.8-87c-0.7-29-0.3-58-0.8-87c-0.6-5-0.4-10-0.5-15c-0.1-23.7-0.3-47.3-0.4-71
		c0-3.3-0.7-6.6-0.6-10c0-26.3-0.3-52.7-0.4-79c0-3.3-0.6-6.7-0.6-10c0-26.3-0.3-52.7-0.4-79c0-3.7-0.7-7.3-0.6-11
		c0-26-0.3-52-0.4-78c0-3.7-0.7-7.3-0.6-11c0-26-0.3-52-0.4-78c0-3.7-0.7-7.3-0.6-11c-0.1-26.7-0.3-53.4-0.5-80
		c-0.8-6.6-0.5-13.3-0.5-20c-0.1-23-0.3-46-0.5-69c-1-10.6-0.4-21.3-0.6-32c-0.2-9.3,0.4-18.7-0.8-28c-0.3-4,0.1-8-0.3-11.9
		c-1.8-12-11.6-22.3-23.6-24.6C506.4,105.8,499.8,106.4,493.3,106.8z"/>
	<path class="st1" d="M470.4,167.3c5.3-2.1,11.4,4.1,9.5,9.5c-1.2,5.1-7.6,8.5-12.2,5.4C461.8,178.8,463.8,168.7,470.4,167.3z"/>
	<path class="st1" d="M787.6,650.7c3.3-2.1,7.8-0.4,9.6,2.9c2.4,5.2,0.9,10.9,1.2,16.4c0.3,15,0.5,30,0.3,45
		c0.4,4.8,1.8,10.1-1.3,14.4c-2.3,4-8.2,4.5-11.7,1.8c-3.1-2.1-5.3-5.3-8.1-7.8c-2.2-2.1-5-3.6-7-6c-5.2-6.7-12.5-11.5-18-18
		c-1.6-1.9-1.4-4.6-1-6.9c1.7-3.7,4.7-6.5,7.3-9.6c5.5-6.5,11.1-12.9,16.6-19.4C779.6,659.3,781.8,653.2,787.6,650.7z"/>
	<path class="st1" d="M487.3,673c2.2-0.9,4.9-0.4,6.7,1.1c3.9,3.1,7.4,6.6,11,10c6.4,6.3,13.2,12.1,19.6,18.4
		c2.4,2.4,5.7,4.8,5.8,8.5c-0.1,3.2-2.1,5.9-4.2,8.2c-8,8.7-15.8,17.6-23.6,26.4c-3,3.6-5.5,8-10,9.8c-2.8,0.6-6.1,0.5-8.1-1.8
		c-3.6-3.9-2.8-9.6-2.9-14.5c0.3-16.2,0.1-32.5-0.1-48.7C480.9,684.2,480.2,675.5,487.3,673z"/>
</g>
</svg>
