<svg id="Layer_1" data-name="Layer 1" xmlns="http://www.w3.org/2000/svg" viewBox="0 0 894.12 1332"><defs><style>.cls-1{fill:#fff;stroke-width:5px;}.cls-1,.cls-2{stroke:#000;stroke-miterlimit:10;}.cls-2{fill:#020101;stroke-width:8px;}</style></defs><g id="_ffffffff" data-name="#ffffffff"><path class="cls-1" d="M347.09,76.23C350.43,76.49,345.5,79.25,347.09,76.23Z" transform="translate(-18.57 -15.43)"/><path class="cls-1" d="M227,79.08c1.6-.53,2.13,0,1.61,1.7C227,81.3,226.5,80.74,227,79.08Z" transform="translate(-18.57 -15.43)"/></g><g id="_020101ff" data-name="#020101ff"><path class="cls-2" d="M686.36,20.17c4.48-1,9.11-.74,13.66-.62a143.21,143.21,0,0,1,45.2,14.23c8.54,5.06,17.47,9.54,25.34,15.66,5.62,4,10.5,8.85,15.76,13.27,16.57,14.42,33.11,28.88,49.78,43.19,5.58,6.4,12.7,11.34,17.64,18.31,4.37,5.93,9.28,11.48,13.32,17.64,4.32,8,8.7,15.92,12.86,24,3.67,9.51,6.84,19.21,10.26,28.81,2.49,10.55,4.28,21.26,6.5,31.88,1.28,5.13.53,10.48,1.4,15.67.49,3.6.39,7.24.6,10.86,1.88,13.22.64,26.64,1,39.95,1,18,.53,36,.85,54,.29,15.33-.35,30.69.72,46,.13,26,.38,52,.43,78-.14,3.67.6,7.31.57,11,.11,22.34.32,44.68.39,67,.09,6.66-.2,13.34.56,20q.27,31,.41,62c.2,9-.33,18,.59,27q.38,41.5.52,83c1,10,.42,20,.66,30q.2,26.5.29,53c-.23,6.35.87,12.65.6,19,.11,19,.28,38,.35,57,.16,8.66-.28,17.35.6,26q.32,41,.49,82c1,10.3.43,20.66.68,31,.12,19,.3,38,.22,57,.29,10.35-1.26,20.61-1.21,31-1.37,9.46-3.2,18.87-4.76,28.31-1.43,11.3-6,21.84-9,32.74-2.23,8.63-6.61,16.43-10.31,24.48-2.52,5.1-4.48,10.52-7.75,15.22-4.84,7.15-9.37,14.51-14.32,21.59-5.86,6.78-11.85,13.46-17.8,20.17-6.34,5.66-12.83,11.18-19.39,16.59-5.57,3.9-11.62,7-17.36,10.69-5.49,3.65-11.89,5.44-17.87,8.08A42.22,42.22,0,0,1,761,1307c-9.33-2.73-17.13-8.73-25.37-13.63q-24.75-15.25-49.48-30.55a87.26,87.26,0,0,1-16.87-13.13c-9.64-9.93-14.11-24-13.65-37.68-.12-16.66-.08-33.33-.38-50-1-28-.43-56-.93-84-1.28-36.65-.16-73.35-1.57-110-.28-27.33.06-54.68-.78-82-.78-31.66.1-63.36-1.22-95-.16-24.67-.14-49.34-.49-74-1.29-34.65-.06-69.36-1.51-104-.16-24.67-.14-49.34-.49-74-1.27-35-.09-70-1.51-105-.28-27.66.07-55.35-.81-83-.55-26.32-.21-52.67-.68-79-1-29.64-.43-59.33-1-89-1-28.65-.45-57.34-1-86,0-8.69-.74-17.36-.65-26.06a54.64,54.64,0,0,1,20.83-40.45,52.34,52.34,0,0,1,22.84-10.32m-10.11,10a51.22,51.22,0,0,0-26.64,36.65c-1.91,9.63-.13,19.43-.42,29.14.72,80,1.83,160,2.61,240.06-.61,4,5.07,5.13,4.78,9.12.16,23.94.68,47.88.77,71.82,0,14.19.65,28.38.34,42.57-1.52.35-3,.67-4.56.94,1.63,125.08,2.81,250.18,4.34,375.26.71,2.83,4.6,4.05,4.76,7.3.44,38,1,76,1.27,114-.93,1.78-3,1.53-4.7,1.53q1.55,128.7,2.94,257.39c-.17,12.07,3.85,24.28,12,33.3,4.3,6,11.29,8.79,17.23,12.75,15.85,9.63,31.4,19.77,47.45,29a47.74,47.74,0,0,1-7.18-27c-.86-36.66-.39-73.38-1.44-110-.15-29-.2-58-1-87-.15-29.67-.2-59.35-1-89-.15-29.67-.2-59.35-1-89-.13-27-.19-54-.81-81-.53-30-.17-60-1.06-90-.42-31.67-.16-63.36-1.13-95,0-25.34-.35-50.67-.58-76-.79-17.64-.32-35.31-.64-53-.08-25.71-1-51.39-.89-77.09-.27-20-.16-40-.89-59.94,0-24.34-.28-48.67-.56-73-1-35.31-.29-70.68-1.44-106-.07-16.95-.08-33.91-.36-50.86-1.53-16.45,6.5-33.22,19.91-42.75a46.56,46.56,0,0,1,31.16-8.77c7.37,1.55,14.84,2.78,22,5.24,7.14,2.17,13.78,5.59,20.65,8.44-5.7-5.81-12.24-10.72-18.22-16.22C779.6,60.59,765.25,47.69,748.23,39,734.58,33.27,721,26.31,706,25a49.45,49.45,0,0,0-29.79,5.19m83.17,48.5c-10.54,1.6-20.64,7-27.19,15.51-8.82,10.28-12.46,24.49-10.59,37.8Q728,698.39,734.38,1264.77c-.13,9.43,2.39,19.06,8.34,26.53,4.35,5.93,10.94,9.71,17.74,12.21,5.33,1.71,11,1.46,16.52,1.26,4.63-.15,8.85-2.27,13.11-3.87,3.95-1.68,8.06-3,11.87-5,4.41-2.56,8.73-5.28,13.13-7.86,9.07-4.89,16.09-12.61,24.34-18.67,6.72-6.57,12.51-14.06,18.92-20.95,5.6-7.8,10.57-16.05,16-24,4.51-8.33,8.06-17.15,12.31-25.62,2.67-5.14,3.88-10.85,5.72-16.31,2.7-9.34,6.49-18.43,7.58-28.16,1.61-11.36,4.88-22.56,4.76-34.09,1.37-12,.87-24.17,1-36.25-.06-27.66-.3-55.33-.46-83-1.07-14.31-.4-28.68-.7-43-.34-18.66.23-37.36-.86-56,0-26-.3-52-.43-78-1.1-17.3-.42-34.67-.76-52-.32-15.66.27-31.36-.8-47-.06-23.67-.24-47.34-.4-71,.3-8.35-.84-16.65-.62-25q-.11-29-.34-58c-.12-7.65.17-15.32-.62-23q-.15-35-.41-70c-.12-6,.2-12.06-.53-18-.22-15.67-.14-31.34-.3-47-.31-14.66.27-29.36-.78-44-.11-27.34-.22-54.68-.53-82-1.28-6.33.77-12.67-.4-19a81.53,81.53,0,0,0-1-15c0-7.91-1.11-15.74-1.43-23.62-1.84-9.5-3.77-19-5.61-28.48-1.15-6.77-4.08-13-6.19-19.53-2.34-6.26-4-12.85-7.39-18.66-4-7-7.43-14.33-11.65-21.2-5.36-7-10.6-14.05-16.22-20.8-6.19-5.83-12.28-11.8-18.87-17.18a126.28,126.28,0,0,0-52.23-23.8C770.82,77.69,765,78.53,759.42,78.71Z" transform="translate(-18.57 -15.43)"/><path class="cls-2" d="M427.27,34.73c5.25-.29,10.58-.41,15.71.93,6.49,1.12,12.2,4.45,18,7.39A44.15,44.15,0,0,1,470,50Q497.31,73.68,524.6,97.4c8.75,6.87,16.75,15.74,19.25,26.89,2.38,7.3,1.31,15,1.68,22.56.36,6.72-.07,13.45.72,20.14q.3,38.5.46,77c-.26,5.35.73,10.64.59,16q.27,39.5.48,79c.77,6.63.45,13.32.58,20,.19,23,.26,46,.42,69,.76,6.64.45,13.32.58,20q.23,33.51.37,67c1.08,16.31.49,32.68.81,49,.32,16.65-.34,33.34.75,50,.11,22.34.33,44.67.4,67,.08,6.66-.21,13.35.55,20q.33,40.51.48,81c-.07,3,.52,6,.55,9,.16,26.67.4,53.35.45,80,1.08,16.43.5,32.93.82,49.39s-.35,33.1.75,49.6c.15,26.67.38,53.34.45,80,1,11.29.46,22.65.7,34q.19,26.51.28,53c1.08,19.29.54,38.65.87,58,.28,13.68-.38,27.4.68,41,.09,14,.21,28,.17,42,1.2,17.24-7.67,34.93-22.49,43.93-9.12,6-20.27,7.29-30.93,7.62-26,1.8-51.94,3.87-77.94,5.41-6.14,1-12.41.2-18.54,1.22-5.93.59-11.93.1-17.82,1.09-16.27.54-32.46,2.18-48.74,2.52-7.28,1.09-14.67.49-22,1.08-5.29.78-10.66.58-16,.76-4.67-.09-9.27,1-13.95.86-7.73.36-15.53-.44-23.21.78-5.3.65-10.54-.78-15.84-.61s-10.06-1.6-15.07-2.52c-5.77-1.44-11.82-2.05-17.26-4.57-6.39-2.78-12.86-5.36-19.23-8.17-11.08-5.5-21.26-12.57-31.82-19-16.26-10.1-32.62-20-48.81-30.25a188.32,188.32,0,0,1-71.45-91.25c-6.91-17.39-10.57-35.84-13.53-54.25-.89-12.56-2.43-25.08-2.22-37.69-.09-12.74-.15-25.47-.39-38.2-.72-5.58-.44-11.2-.52-16.8-.09-19,0-38-.28-57-.14-7,.11-14-.66-21-.16-26.68-.09-53.35-.45-80-1.11-17.3-.46-34.68-.69-52-.23-16,.15-32-.89-48-.09-26.34-.1-52.68-.43-79-1-13.63-.45-27.33-.66-41-.17-20.33.14-40.69-.93-61-.11-26.34,0-52.69-.51-79-.7-5.31-.42-10.67-.5-16-.07-24-.07-48-.45-72-.88-8-.42-16-.58-24-.2-25,.25-50-.95-75q-.15-40.51-.12-81c-.22-6.05,1.24-12,1.09-18,1.81-12.77,4.08-25.48,7-38,3.19-11.13,6.94-22.09,11.13-32.88,4.38-9.73,9.38-19.17,14.58-28.48,4.14-6.49,8.66-12.73,13.26-18.9,6.9-9.6,15.51-17.8,23.91-26.06,6.6-5.79,13.7-11,20.82-16.1C136,61.24,161.05,51.87,187,50.56a47.77,47.77,0,0,0,6-.38c5.84-1.09,11.85-.12,17.68-1.33,5.54-.46,11.14-.08,16.64-1.13,8.32.12,16.51-1.39,24.83-1.28,6.73-1.25,13.63-.41,20.36-1.62,4.44-.46,8.94,0,13.36-.7,5-.94,10.11-.18,15.12-1,5.24-1,10.62-.18,15.88-1.08,4.95-.9,10-.14,15-.93,5.27-1,10.7-.15,16-1.1,5-.86,10-.1,15-.93s10.1-.18,15.12-1c4.95-1,10-.25,15-.95,5.83-1.13,11.84-.15,17.67-1.33,5.54-.53,11.15-.07,16.65-1.15m4.62,5c-6.91,1-13.95.42-20.85,1.54-8.52.07-17,1.32-25.46,1.39-7.13,1.1-14.37.56-21.5,1.66-8.25,0-16.42,1.32-24.67,1.34-6.42,1.09-13,.49-19.39,1.46-30.1,1.74-60.15,4-90.25,5.71-6.53,1-13.18.41-19.7,1.49-18.38.48-37,2-54.51,7.92-29.6,9.86-55.2,29.44-75.24,53.06-26.87,31.71-43,71.63-49,112.55-1.4,8-1.83,16.05-2.7,24.09-.27,29.34,0,58.69.12,88,0,3,.56,6,.55,9,.13,23.34.33,46.68.41,70,.08,5.67-.19,11.35.52,17,.3,27.67.4,55.35.54,83,.05,2.67.56,5.3.53,8,.15,26.67.39,53.35.45,80,0,3.34.66,6.64.56,10,.14,26.34.39,52.68.44,79,0,3,.57,6,.55,9,.15,26.67.39,53.35.45,80,0,2.67.45,5.31.53,8,.23,27.67.35,55.35.52,83,.71,6,.48,12,.56,18,.13,18.67.28,37.33.34,56,.09,7-.21,14,.57,21q.24,30.51.4,61c.2,9.33-.33,18.69.6,28,.1,15.31.29,30.61.24,45.92.06,5.4,1.26,10.72,1.07,16.14,2.61,32.46,10.94,64.82,26.84,93.41,7.14,13.35,16.67,25.2,26.66,36.5,11.74,12.92,26.14,23.07,41.13,31.88,9.73,5.92,19.29,12.13,29.17,17.8-10.51-10.29-20.41-21.26-28.42-33.63a208.6,208.6,0,0,1-29-68.14c-4.63-18.95-6-38.47-7.07-57.86,1.11-10,.24-20,.41-30-.86-9-.47-18-.61-27-.12-21.33-.22-42.67-.45-64-.7-5.65-.45-11.33-.51-17-.08-23.33-.29-46.67-.43-70,0-3-.61-6-.55-9,0-26.67-.29-53.35-.45-80,0-3-.6-6-.54-9-.07-27-.28-54-.48-81-.77-7-.48-14-.57-21-.06-18.67-.22-37.33-.34-56-.08-6,.15-12-.56-18q-.24-40.51-.49-81c-1.1-16.67-.42-33.41-.75-50.12-.33-16.28.27-32.61-.81-48.86-.06-26.67-.3-53.35-.45-80,0-3.34-.66-6.64-.56-10,0-27-.37-54-.33-81-.56-23,3.25-46,9.74-68,9.63-31.93,26.78-61.82,50.77-85.12,24.55-24.51,56.48-42.41,91.09-47.24,8.34-.59,16.67-1.4,25-1.35,10.62-1.3,21.39-.27,32-1.63,12.37.08,24.64-1.3,37-1.39,7.76-1.18,15.66-.31,23.42-1.47,5.39-.48,10.83-.1,16.21-.75,5.57-.85,11.25-.26,16.84-1,5.39-.84,10.89-.28,16.31-1,5.78-.91,11.7-.26,17.48-1.3,23.1-1.15,46.11-3.4,69.2-4.74a57.83,57.83,0,0,1,22.58.8c-12-11-24.54-21.4-36.71-32.21-7.84-6.48-15-14.08-24.18-18.69a49,49,0,0,0-24.29-4.2m72.49,56.5c-27.29,1.38-54.47,4.22-81.77,5.56-6.15,1.06-12.44.36-18.59,1.41-15.93.58-31.8,2.11-47.75,2.51-7.69,1.24-15.52.32-23.22,1.45-5.75.46-11.53.19-17.28.62-8.86,1.22-17.86.17-26.72,1.42-7.42.42-14.86.13-22.27.63-5.21.86-10.51.19-15.75.63-39.51,2.55-76.24,23-103.12,51.45C113.61,197.36,95.23,246.21,92.42,295c-.3,36.67.25,73.34.3,110-.08,3.34.61,6.64.56,10,.12,22.67.33,45.34.41,68,.07,6.34-.2,12.69.55,19q.3,35,.45,70c.1,6.33-.23,12.68.53,19q.39,40.5.5,81c1.07,16.63.51,33.32.83,50s-.33,33.36.74,50c.11,22.33.33,44.67.4,67,.09,6.33-.22,12.69.54,19,.18,15.58.22,31.16.35,46.74.29,14.75-.36,29.54.7,44.27.15,26.67.39,53.34.45,80-.06,2.67.44,5.3.52,8,.25,27.67.35,55.35.53,83,1.5,15.3-.41,30.76,1.64,46,4,47.93,23.11,95.72,58,129.54,14.66,14.36,31.83,26.58,51.1,33.87,5.13,2,10,4.71,15.49,5.85,10.57,2.17,21.06,5.29,32,5.1,7.71.55,15.33-1.14,23-.8,6,.07,12-.1,18-.38,8.15-1.21,16.45-.22,24.6-1.39,7-.56,14,0,21-1,21.83-.9,43.58-2.68,65.4-3.61,6.49-1.1,13.11-.33,19.61-1.34,23.08-1.34,46.11-3.33,69.19-4.73,8.26-1.35,17,.25,24.9-3.16,17.31-5.21,29.83-22.12,30.88-40-.3-24.34.28-48.71-.88-73-.05-24-.26-48-.41-72,.27-6.69-.84-13.31-.59-20q-.09-24.49-.27-49c-.27-11.33.28-22.69-.7-34q-.19-41.5-.52-83c-.89-8.31-.38-16.67-.57-25q-.15-32-.43-64c-.8-7-.43-14-.55-21-.07-22-.29-44-.4-66-1.08-15.65-.4-31.36-.72-47-.32-17.31.24-34.66-.84-51.94,0-26.34-.3-52.68-.44-79-1.08-16-.41-32-.73-48-.33-17,.25-34-.83-51,0-23.34-.23-46.67-.39-70-.08-5.34.15-10.69-.52-16-.22-15.33-.13-30.67-.29-46s.22-30.69-.8-46c-.05-26.67-.29-53.35-.45-80,0-3-.62-6-.55-9,0-24-.25-48-.39-72a67.72,67.72,0,0,0-.34-8.9c-1.4-9.16,1-18.7-2-27.64C536.92,108.34,521.31,95.34,504.38,96.26Z" transform="translate(-18.57 -15.43)"/><path class="cls-2" d="M277.3,59.84c5.61-.44,11.27-.1,16.83-1.14,14.31-.22,29-1.35,42.86,3.13,3.95,1.23,7.92,3.61,9.39,7.69,1.08,3.47,6.05,5.59,4,9.73-6.88,6.3-17,6.44-25.69,7.92-13.93.81-27.81,2.07-41.75,2.6C274,91,265,90.54,256,90.41c-10.84-1.13-22.58-1.53-31.77-8.15.24-1.83,0-4,1.69-5.27,3.2-2.75,3.25-7.83,7.23-9.88,7.8-4.44,17.06-5.3,25.85-5.84,6-1.19,12.24-.21,18.27-1.43M277,63.37c-7.66-.12-15.21,1.16-22.86,1.3C248,65.82,241.05,66,235.87,70c5.3,4.25,12.47,4.32,18.88,5.35,10.45.43,21,.61,31.37-.68,8,0,15.92-1.33,23.93-1.29,9.72-1.11,20.1-.72,28.92-5.62-.51-2.32-3-2.77-4.93-3.45C322.33,61,310,61.37,298,61.66c-6.94,1.3-14,.42-21,1.71m59.81,8.43c-5,2.23-10.49,2.71-15.83,3.51-18.31,1.2-36.64,2.32-55,2.48-7.63-.43-15.5.7-22.92-1.56-3.63-1.34-7.35-2.74-10.37-5.23-2.24,3.67-1,8.21-1.37,12.29a75.61,75.61,0,0,0,23.56,4.18c9.63.09,19.32.75,28.92-.42,20.24-1.85,41.18-.32,60.71-6.93.09-4-.95-7.91-1.22-11.89-2.4.71-4.18,2.62-6.47,3.57m10.26,4.43c-1.59,3,3.34.26,0,0M227,79.08c-.53,1.66,0,2.22,1.61,1.7C229.16,79.11,228.63,78.55,227,79.08Z" transform="translate(-18.57 -15.43)"/><path class="cls-2" d="M760.33,86.13c4.14-1.07,8.45-.48,12.66-.23,34.71,4.71,65.48,26.32,85.75,54.33,22.31,30.63,32.62,68.4,35.74,105.73-.34,6.72,1.3,13.31,1,20,0,15.33.1,30.67.18,46,.09,7-.22,14,.58,21,.14,27,.4,54,.46,81,1.08,16.3.48,32.67.81,49,.33,17-.34,34,.77,51,.11,26.67.36,53.35.45,80,.92,9,.42,18,.64,27q.24,31,.36,62c.77,6.63.49,13.32.59,20,.12,18.66.28,37.33.34,56,.1,6.33-.23,12.68.56,19,.18,26.7.41,53.4.47,80.1,1.11,20.12.53,40.32.89,60.47.28,12.81-.4,25.66.67,38.43.12,26,.4,52,.44,78,1.23,25.3.47,50.67.86,76,.33,5.07-1.14,10-1.19,15-3.63,39.73-16.36,79.09-39.26,112-17.31,24.27-39.76,45.76-67.39,57.71-3.93,1.94-8.34,2.58-12.12,4.8-7.69,1.33-16,1.6-23.2-1.92a33.44,33.44,0,0,1-17.87-22.33c-1.81-6.62-.82-13.52-1.16-20.28.08-13.34-.73-26.66-.61-40-.17-26.33-.19-52.68-1-79,0-24-.3-48-.56-72-.8-29-.46-58-1-87-1-35.65-.29-71.35-1.46-107,0-33.67-.51-67.34-1-101,0-37.77-1.09-75.52-1.14-113.28-.28-17.24-.09-34.49-.82-51.71,0-25-.3-50-.57-75-.81-28.31-.43-56.67-1-85-.77-31.32-.55-62.67-1-94-.8-22.65-.35-45.33-.79-68,0-19.34-.87-38.65-.73-58,0-31.34-1.09-62.66-1-94,1-4.84-.77-9.78.73-14.52,3.12-14.67,15-27.32,29.85-30.37m2.06,2.5C744,91.52,730,110.56,732.8,129q6.51,569.49,12.83,1139a33.49,33.49,0,0,0,4,15.35c6,11.51,20.41,17.75,32.92,14.08,18.24-5.27,34.8-15.41,49.1-27.77,16.62-14,30.13-31.48,40.71-50.42,21.33-38.63,30.45-83.35,29.13-127.25.19-14.34-.11-28.67-.15-43-.14-7,.2-14-.59-21q-.24-41.5-.52-83c-1-11-.38-22-.62-33-.09-18-.26-36-.34-54-1.11-17.54-.41-35.16-.77-52.74-.3-15.41.26-30.86-.79-46.24-.07-27-.28-54-.48-81-1-11-.38-22-.62-33q-.15-28-.37-56c-.88-8.63-.45-17.32-.6-26-.12-21.34-.21-42.68-.45-64-.73-6-.43-12-.52-18-.07-19.33-.22-38.67-.35-58-.09-6,.16-12-.55-18-.17-20.34-.2-40.68-.38-61-.28-13.29.26-26.62-.71-39.88-.09-13-.1-26.08-.13-39.11.12-6-1.16-12-1-18-2.5-34.4-11.5-69-30.38-98.22-17.56-27.23-44.44-49.28-76.1-57.57C777.66,89.33,770.05,87.62,762.39,88.63Z" transform="translate(-18.57 -15.43)"/><path class="cls-2" d="M495.27,103.77a118.85,118.85,0,0,1,16.77-.26c14.5,1.94,26.45,14.9,27.56,29.43.25,6.35-.4,12.76.78,19.05.27,20,.21,40,.4,60,.71,6,.48,12,.56,18,.13,18.67.28,37.34.34,56,.09,7-.2,14,.57,21,.2,27,.41,54,.48,81-.06,2.67.42,5.31.52,8,.24,27.67.36,55.35.53,83,.7,6,.48,12,.56,18,.13,18.67.28,37.34.34,56,.09,7-.2,14,.57,21,.2,27,.41,54,.48,81-.06,3,.55,6,.55,9,.15,26.67.39,53.35.45,80-.06,3,.54,6,.55,9,.12,22.67.33,45.34.41,68,.07,6.67-.2,13.35.56,20q.33,41,.49,82c1,13.29.45,26.66.75,40,.13,16.34.18,32.67.25,49,.94,10.63.47,21.32.69,32q.2,26,.28,52c-.22,6.35.87,12.64.6,19,.12,20,.3,40,.37,60,.13,7.33-.26,14.68.56,22,.23,30.3.53,60.61.39,90.91-1.73,17.25-16.53,32.31-33.87,34-28.77,2-57.51,4.33-86.3,6-6.44,1-13,.36-19.42,1.45-9.29.06-18.49,1.39-27.78,1.39-6.18.91-12.44.71-18.65,1.1-6.39,1-12.89.5-19.31,1-6.24,1-12.58.48-18.85,1-6.31.91-12.69.59-19,.88-10.56,1.17-21.21.92-31.81,1a155.41,155.41,0,0,1-21.68.81c-23.18-1.55-45.6-9.9-65-22.45-31.68-20.43-55.78-51.69-69.17-86.8-9.88-25.22-14.19-52.31-15.16-79.26.1-19.67-.2-39.34-.26-59-1.11-20-.45-40-.82-60-.28-13.32.26-26.68-.75-40q-.09-33-.36-66c-.12-7.34.16-14.69-.62-22q-.16-41-.49-82c-.07-3-.63-6-.54-9,0-26.34-.3-52.68-.44-79,0-3.35-.64-6.64-.56-10,0-26.34-.3-52.68-.44-79,0-3-.57-6-.55-9-.06-27-.29-54-.46-81,0-3-.63-6-.55-9-.06-28.34-.32-56.68-.49-85,.25-5.11-.65-10.16-.55-15.26-.06-25.58-.33-51.17-.46-76.75,0-2.55-.48-5.07-.5-7.61-.15-19.81-.13-39.63-.12-59.44a238.6,238.6,0,0,1,7.7-47.86c8.26-30.82,23.83-59.77,45.79-83,23.34-24.4,53.67-43.17,87.29-48.83,9.46-1.84,19.09-1.65,28.68-2,8.26-1.07,16.61-.44,24.9-1,8-1.08,16.05-.43,24.05-1.06,7.77-1.13,15.68-.18,23.44-1.36,5.48-.42,11-.12,16.48-.66,6.25-1,12.61-.32,18.88-1.07,5.66-.87,11.43-.26,17.11-1s11.36-.23,17-1.06c4.88-.73,9.86-.23,14.74-1s9.54-.33,14.29-.87c5.78-1,11.7-.4,17.48-1.44,7.54-.1,15-1.26,22.55-1.42,5.72-1,11.58-.56,17.3-1.55m-2,3c-28.85,2.48-57.75,4.37-86.65,6.17-5.82.93-11.76.22-17.58,1.16-5.66.7-11.4.12-17.05,1-5.71.69-11.5.2-17.21.85-7.24,1-14.61.17-21.84,1.23-5.76.53-11.56.23-17.33.65-7.53,1-15.16.48-22.73,1-8.71,1.12-17.52.47-26.27,1-7.18,1.08-14.51.07-21.67,1.35-20.56,2.38-40.29,10-57.78,21a176.08,176.08,0,0,0-44.73,40.33c-22.27,28.13-35.56,62.76-40.18,98.19-1,7.73-2,15.5-1.77,23.31-.07,25.67.17,51.35.25,77,0,2.67.54,5.31.53,8,.16,26.67.4,53.34.45,80,0,3.67.7,7.3.58,11,.13,26,.38,52,.42,78-.06,3,.54,6,.55,9,.16,26.68.4,53.35.45,80-.08,3.34.61,6.64.57,10,.14,26.33.39,52.67.43,79-.07,3.34.61,6.64.57,10,.13,26.34.38,52.68.43,79-.06,3.68.7,7.31.58,11,.13,26,.38,52,.42,78-.08,3.33.6,6.63.56,10,.12,22.67.34,45.34.41,68,.09,6.33-.22,12.68.54,19,.18,16.52.23,33,.37,49.57.24,13.81-.34,27.66.68,41.44.06,15.67.27,31.35.23,47,1,31.17,7.13,62.53,20.7,90.78,16.08,34.08,43.1,63.33,76.93,80.26,18.79,9.26,39.81,14.84,60.87,13.47,7.14-.58,14.33.29,21.44-.75,6.18-.4,12.39-.13,18.56-.63,7.72-1.12,15.58-.17,23.29-1.33,7-.48,14-.16,21-1.14,9.95,0,19.82-1.33,29.77-1.37,6.26-1,12.61-.58,18.9-1.19,6.13-1,12.4-.24,18.52-1.29,28.16-1.52,56.25-3.77,84.38-5.65,5.65-1.08,11.49-.23,17.11-1.53,16.61-2.79,29.62-18.88,29.2-35.64-.66-4.65-.38-9.35-.39-14-.07-28.67-.29-57.34-.49-86-.89-9-.44-18-.6-27-.07-18-.23-36-.34-54,.29-7.36-.85-14.65-.61-22q-.08-26.51-.3-53c-.25-9.33.31-18.7-.61-28-.38-29,0-58-.81-87s-.28-58-.82-87c-.65-5-.4-10-.47-15-.07-23.67-.29-47.34-.42-71,0-3.34-.65-6.64-.56-10,0-26.34-.3-52.68-.43-79,0-3.35-.64-6.65-.57-10,0-26.34-.3-52.68-.43-79,0-3.67-.71-7.31-.57-11,0-26-.3-52-.43-78,0-3.68-.71-7.31-.57-11-.05-26-.3-52-.43-78,0-3.67-.71-7.3-.57-11q-.11-40-.48-80c-.75-6.64-.48-13.32-.55-20q-.15-34.5-.45-69c-1-10.63-.37-21.33-.61-32-.25-9.32.42-18.69-.81-28-.27-4,.09-8-.29-11.94-1.84-12-11.63-22.33-23.59-24.56C506.41,105.82,499.82,106.45,493.28,106.77Z" transform="translate(-18.57 -15.43)"/><path class="cls-2" d="M470.39,167.29c5.35-2.06,11.38,4.13,9.53,9.5-1.15,5.09-7.61,8.51-12.18,5.42C461.84,178.76,463.79,168.69,470.39,167.29Z" transform="translate(-18.57 -15.43)"/><path class="cls-2" d="M787.6,650.72c3.29-2.09,7.82-.38,9.63,2.9,2.37,5.16.93,10.92,1.17,16.38.29,15,.46,30,.3,45,.38,4.78,1.78,10.15-1.3,14.4-2.34,4-8.21,4.48-11.68,1.82-3.15-2.13-5.34-5.31-8.14-7.82-2.21-2.14-5-3.59-7-6-5.25-6.7-12.53-11.46-18-18-1.56-1.93-1.39-4.6-1-6.89,1.66-3.69,4.69-6.52,7.28-9.56,5.53-6.46,11.11-12.88,16.64-19.35C779.64,659.32,781.83,653.15,787.6,650.72Z" transform="translate(-18.57 -15.43)"/><path class="cls-2" d="M487.27,673A6.84,6.84,0,0,1,494,674c3.89,3.05,7.37,6.6,11,10,6.39,6.28,13.18,12.13,19.56,18.42,2.43,2.42,5.67,4.79,5.83,8.55-.1,3.18-2.09,5.91-4.19,8.16-8,8.69-15.77,17.55-23.63,26.36-3,3.6-5.51,8-10,9.82-2.77.65-6.13.55-8.06-1.84-3.62-3.94-2.8-9.61-2.88-14.52.3-16.22.13-32.47-.09-48.7C480.88,684.23,480.21,675.49,487.27,673Z" transform="translate(-18.57 -15.43)"/></g></svg>