<svg id="svg" xmlns="http://www.w3.org/2000/svg" viewBox="0 0 960 960"><defs><style>.cls-1{fill-rule:evenodd;}</style></defs><g id="svgg"><path id="path1" class="cls-1" d="M503.27,178c-1.5.91-3,3-4.47,6-5.1,10.7-13.66,8.9-9.14-1.92,1.58-3.78-1.3-5.71-3.5-2.34-3.06,4.66-1.63,13.09,2.59,15.27,5.19,2.68,9.28.54,13.09-6.88,5-9.66,13.46-7.2,9.11,2.65-1.43,3.24-1.45,3.49-.27,4.35,1.91,1.4,2.37,1.15,3.86-2.15,4.61-10.14-2.88-20.07-11.27-15m-18.21,27.63v2.59h21.7l2.45,2.45c2.6,2.6,3,4.79,1.61,7.93-1.68,3.69-3.67,4.29-15.16,4.59l-10.6.28v4.16h10.81c15.4,0,20.57-3.26,20.22-12.74-.31-8.5-5-11.26-19.71-11.59l-11.32-.26v2.59m9.34,30.29c-7,3.13-9.46,7.93-9.18,17.78l.2,7.34H515.6l0-7.58c-.05-14.22-10.07-22.52-21.17-17.54m11.49,5.26c3.53,1.89,5.88,6.6,5.61,11.23l-.21,3.6-11,.2-11,.2v-5c0-9.36,8.44-14.61,16.52-10.27m5.76,31.95c0,7.45,1,6.95-14.43,6.95H485.06v4.34l15.27-.19,15.27-.19V267.52l-2-.23-2-.23v6.08M512,291a43.28,43.28,0,0,0-.54,6.34l-.19,5.39-13.11.2-13.12.19v4.31l15.27-.19,15.27-.2v-8.26c0-8,0-8.27-1.62-8.5-.89-.12-1.77.2-2,.72m-26.48,24.78c-.26.27-.48,4.64-.48,9.72v9.24l15.27-.2,15.27-.19V315.66h-1.79c-1.78,0-1.8.09-2,6.81-.23,7.47-.48,7.9-4.58,7.91-4.71,0-4.91-.24-4.91-6.53v-5.67H498v5.67c0,6.15-.27,6.55-4.32,6.55s-4.31-.31-4.31-7.55c0-5.42-.21-6.75-1.13-7.11-1.46-.56-2.11-.55-2.7,0m-.48,35.5v10.11l2-.23c1.8-.2,2-.54,2.33-3.82l.36-3.59,12.94-.36L515.6,353v-3.59l-12.93-.36-12.94-.36-.21-3.77c-.22-3.65-.29-3.78-2.34-3.78h-2.12v10.11"/><path id="path2" class="cls-1" d="M504.1,176.58c-2.21.92-4.36,3.6-6.47,8.09-2.73,5.81-5.09,7.33-7.55,4.86-.79-.78-1.43-1.11-1.43-.74s.69,1.16,1.52,1.74c2.84,2,5.53-.06,8.63-6.55,6.79-14.22,22.27-5.39,15.74,9-1.49,3.3-1.95,3.55-3.87,2.14-1.18-.86-1.17-1.09.21-4.13a16.3,16.3,0,0,0,1.45-4.65c0-.79-.6.18-1.31,2.15s-1.54,4.14-1.83,4.8c-.62,1.41,2.59,3.91,3.94,3.08s3.52-6.38,3.53-9.52c0-7.82-6.17-12.89-12.56-10.25m-18.66,2.87a9.3,9.3,0,0,0-1.06,3.42c0,.71.43.19.9-1.16,1.07-3.06,2.83-4.29,4.34-3,.95.79.95,1.2.06,3.35-1.49,3.55-1.2,4,.44.75,1.31-2.63,1.32-2.91.22-4.13-1.74-1.92-3.65-1.61-4.9.8m18.28,5.11c-.86,1.21-1.37,2.4-1.13,2.64s.44.11.44-.3a7,7,0,0,1,1.76-2.63c1-1.05,1.48-1.91,1.13-1.91s-1.34,1-2.2,2.2m-19.93,2.12c0,1.38.15,1.95.33,1.25a5.9,5.9,0,0,0,0-2.51c-.18-.69-.33-.13-.33,1.26m17.45,2.85a14.83,14.83,0,0,1-3.05,4.09c-1.6,1.6-2,2.25-1,1.73,1.73-.92,5.56-6.32,4.94-6.95-.22-.21-.62.29-.88,1.13m-16.86.24c-.13,2.2,4.36,7.12,5.47,6,.19-.19-.33-.56-1.15-.83a7,7,0,0,1-2.9-3.12c-.77-1.45-1.41-2.38-1.42-2.06m.25,13.73a8.19,8.19,0,0,0-.16,3.06l.23,2L496,209c12.73.41,13.86.86,14.68,5.94.37,2.25.12,2.92-1.76,4.81l-2.19,2.19H496.44c-11.62,0-12.3.22-12,3.66l.23,2.44,10.6,0,10.6,0-10.42-.22-10.42-.23v-4.12l10.6-.28c11.49-.3,13.48-.9,15.16-4.59,1.43-3.14,1-5.33-1.61-7.93l-2.45-2.45h-21.7v-5.18l11.32.26c14.53.33,17.59,1.93,19.63,10.31.48,2,.53,2,.58.36.15-4.3-4.62-9.64-9.67-10.81-4.82-1.12-21.84-.86-22.29.33m31.07,14.83a12,12,0,0,1-6.08,7.85c-1.63.86-2.15,1.4-1.36,1.42,2.93.08,9.94-9.46,8.22-11.18-.18-.18-.53.68-.78,1.91m-22.83,17.78c-6.4,3.33-8.53,7.69-8.53,17.47,0,9.35-1.54,8.55,16.45,8.55,16.72,0,15.94.37,15.75-7.51l-.13-5.79-.4,6.11-.41,6.11H485.42l-.2-7.35c-.34-12,4-17.67,14.57-18.9l4.31-.5-3.69-.1a13.7,13.7,0,0,0-7.54,1.91m14.48.4c3.61,1.9,7.83,7.41,8,10.43.09,1.73.13,1.75.41.25.67-3.49-6.85-12.37-10.49-12.37-.62,0,.32.76,2.09,1.69m-12.65,4.7c-2.88,1.76-5.33,4.9-5.31,6.82,0,1,.45.56,1.4-1.52,4.81-10.61,20.69-6.2,20,5.56l-.2,3.23H500c-5.83,0-10.6.25-10.6.56s4.93.47,11,.36l11-.2.21-3.6c.55-9.38-9.17-15.86-16.8-11.21m16.58,26.13a45,45,0,0,0-.51,6.29l-.2,5.39-13.16.19-13.15.2.22,2.68.22,2.67,15.4.2c18,.23,16.6,1,16.43-9.18l-.13-7.54-.4,7.9-.4,7.91-15.27.19-15.27.19v-4.34h12.16c15.47,0,14.43.51,14.43-7V267l2.16.31c1.18.18,2.15.05,2.15-.27,0-1-4.32-.69-4.68.3m.58,22.67c-.52.33-.95,2.81-1.08,6.27l-.21,5.73-13.11.2-13.12.19v5.72h15.73c18.31,0,16.61,1,16.61-9.62,0-8.47-1.28-10.74-4.82-8.49m3.74,8.77V307l-15.27.2-15.27.19v-4.31l13.12-.19,13.11-.2.19-5.39c.25-6.68.48-7.34,2.5-7.06,1.58.23,1.62.47,1.62,8.5m-30.94,16.74a81.36,81.36,0,0,0-.16,10.24l.2,9.31,15.4.19c18.14.23,16.55,1.22,16.57-10.35,0-9.53-.52-10.89-3.91-10-1.72.43-1.78.67-2,7.45l-.21,7h-7.18l-.41-5.39-.41-5.39-.13,5.49c-.15,6.1.06,6.37,4.78,6.35,4.1,0,4.35-.44,4.58-7.91.21-6.72.23-6.81,2-6.81h1.79v18.69l-15.29.19-15.29.2.2-9.54.2-9.54,2,.14c1.1.08,1.81-.16,1.58-.54-.63-1-3.92-.81-4.33.26m13.46,2.15c-.43.51-.87,3.34-1,6.29l-.21,5.36-2.75.22a6.51,6.51,0,0,1-3.77-.62c-.61-.51-1-.56-1-.13,0,.95,1.76,1.61,4.31,1.61,4.05,0,4.32-.4,4.32-6.55v-5.67h2.33c1.77,0,2.08-.18,1.26-.71-1.48-1-2.56-.89-3.47.21m-13.78,33.56V362h2.44c2.64,0,3.38-1,3.22-4.19-.08-1.6-.17-1.5-.54.6s-.79,2.56-2.42,2.74l-2,.23V341.27l2.34-.3c2.3-.28,2.29-.29-.36-.4l-2.7-.11v10.77m5.18-3.59c.27.89,2.6,1.14,13.21,1.44l12.87.36V353l-12.87.36c-9.63.27-12.93.59-13.06,1.28-.11.5,0,.58.18.18s5.14-.74,13.19-.74c12.19,0,12.85-.07,13.28-1.44,1.3-4.08.61-4.31-12.84-4.31-8.92,0-12.65-.25-13.33-.9s-.89-.69-.63.18M163.13,654.48c-24.72,4.61-35,33.47-18.45,51.57,19.29,21,54.09,7.75,54.33-20.74.16-18.78-17.79-34.21-35.88-30.83m206.14,0a31.47,31.47,0,0,0-24,41.2c9.19,26,44.9,27.93,57.48,3.05,11.15-22-9-48.65-33.46-44.25"/><path id="path3" class="cls-1" d="M.37,2.18c-.9,3.72,0,699.92.94,708C24.09,911,234.38,1021.1,410.69,924.48,490.13,881,540,802.11,550.45,703.35c.59-5.48.75-102.84.58-355L550.81.92l-275-.18L.76.56.37,2.18M530.53,37.57c.61,20.19,0,306.58-.67,321.4l-.44,9.53-30.62-.19-30.63-.19-.48-3.23c-.27-1.78-.55-31.85-.62-66.83s-.38-91.24-.68-125l-.53-61.44-1.85-7.9c-8.14-34.76-32.58-69.12-58.8-82.68a5.93,5.93,0,0,1-2.07-1.42c0-.19,28.54-.26,63.42-.16L530,19.6l.56,18M377.33,24.33C413.48,36,441.05,67,450.41,106.55l1.88,7.91.43,138c.43,137.37.44,138,1.95,144.08,10.87,43.63,43.89,60.25,70.09,35.28l3.42-3.25V561.85c0,139.89-.09,144.35-3.29,163.41-24.93,148.94-170.4,242.5-316,203.26C111.09,902.16,40,820.55,25,717.36L23.4,706.58l-.2-341c-.12-187.54-.05-341.38.13-341.87.28-.72,35.92-.9,174.87-.9H372.72l4.61,1.49M495,132.94c.33,2,.43,2.1.65.66a3.18,3.18,0,0,0-.39-2.36c-.4-.4-.5.27-.26,1.7m21.22,17.81c0,7.7.11,10.86.24,7s.13-10.16,0-14-.24-.7-.24,7m-16,14.9c2.65.14,7.18.14,10.06,0s.71-.25-4.82-.25-7.89.11-5.24.25m2.88,10.73c-2.27,1.12-5,4.85-6.56,9-1.26,3.35-.19,2.18,1.41-1.53,4-9.27,14.2-10.78,17.61-2.61,2.9,6.94-1.14,17.64-5.36,14.22l-1.59-1.29,1.46-3.23c4.29-9.45-2.86-12.14-7.62-2.87-3.91,7.63-7.95,9.92-13.43,7.63-5.06-2.11-6.82-10.18-3.59-16.42,2.39-4.63,6.86-1.12,4.58,3.6-2.85,5.89,1.42,10.83,5.19,6,.81-1,.78-1.07-.3-.22-3.72,2.91-6.12-1.22-3.76-6.46,1.18-2.61,1.18-2.84,0-4.13-5.75-6.35-11.48,7.58-6.15,14.94s13,5.44,18-4.27c4.25-8.38,10.61-6.74,6.53,1.69-1.92,4-1.9,4.4.32,5.85,2.55,1.68,4.26.87,6-2.85,5.1-10.84-3.09-21.85-12.71-17.1m-19.27,26.39a12.17,12.17,0,0,0-.15,3.77l.22,2.77,10.06.18c11.68.2,12.76.38,14.72,2.48.8.86,1.45,1.23,1.45.82,0-2.7-2.86-3.47-14.26-3.84l-11.25-.36v-5.75l8.27-.22c14.64-.39,18.75.86,22.07,6.71,3.16,5.59,1.7,12.11-3.71,16.49L508.64,228H484.7l-.23-2.44c-.33-3.44.35-3.65,12-3.66h10.29l2.1-2.1a5.7,5.7,0,0,0,2-4.13c-.07-1.92-.11-1.89-.66.46-1.07,4.52-2.48,5-13.54,5.06-13.06,0-13.16,0-12.89,4.21l.21,3.32,10.78.22c6.15.13,11.9-.1,13.38-.54,11.49-3.35,12.69-19.82,1.82-24.88-4.52-2.11-25.3-2.7-26-.74m9.6,31.94c-6.82,3.22-9.92,8.74-10.43,18.51-.53,10.25-1.63,9.63,16.95,9.63s17.37.54,17.37-8.32c0-16-11.63-25.63-23.89-19.82m15.51,2c6.1,4.29,10.58,19.93,7,24.29-.94,1.13-27.77,1.71-30.5.66-2.43-.93-1.57-15.07,1.2-19.68,4.73-7.88,15.14-10.33,22.34-5.27M494.53,242c-2.93,1.79-5.33,6.85-5,10.6l.22,2.67h20.84l.2-3.23a10.75,10.75,0,0,0-16.24-10m9.71,0c3.21,1.12,5.46,4.63,5.84,9.1l.31,3.8H490.81v-3.89c0-7.44,6.14-11.55,13.43-9m6.45,24.16c-.26.26-.48,3-.48,6.06v5.59l-13,.22c-14,.25-14.31.33-14.33,4.32,0,3.74,1.72,4.17,17,4.17,18.66,0,17.49.69,17.49-10.26,0-5.93-.29-9.14-.86-9.72-.92-.91-5-1.18-5.85-.38m5.54,1.86c.64,2.39.52,15.12-.15,16.18-.45.7-4.14.87-16,.72l-15.4-.2-.22-2.67-.22-2.68,13.15-.2,13.16-.19.2-5.39c.24-6.82.39-7.19,2.93-7.19,1.56,0,2.2.41,2.53,1.62m-5.54,21.14c-.26.26-.48,3-.48,6.1v5.63h-12c-14.61,0-18,1.69-14.55,7.19.84,1.33,28.59,2,31.84.78l1.95-.75V299.3c0-5.93-.29-9.14-.86-9.72-.92-.92-5-1.19-5.85-.38m5.13,1.1c.9.9,1.25,14.53.42,16.68-.38,1-2.48,1.14-16.17,1.14H484.34V302.4l13.12-.19,13.11-.2.21-5.73c.13-3.46.56-5.94,1.08-6.27a3.23,3.23,0,0,1,4,.29m-32.05,24.43c-1,1-1.22,19-.26,20.53.44.7,4.35.87,17.05.72l16.48-.2.2-10c.23-11.28-.07-12.15-4.09-11.81l-2.58.22-.2,7-.21,7h-6.35l-.21-5.56c-.19-4.92-.38-5.59-1.65-5.79s-1.24-.09-.36.5,1.19,2.47,1.44,6.33l.36,5.6h7.18l.21-7c.2-6.78.26-7,2-7.45,3.39-.85,3.92.51,3.91,10,0,11.57,1.57,10.58-16.57,10.35l-15.4-.19V315H489l.21,6.43c.25,7.55.77,8.45,4.76,8.15l2.94-.21.21-5.36c.12-2.95.56-5.78,1-6.29.58-.69.48-.93-.4-.93s-1.16.93-1.16,5.75v5.75h-5.75v-6.32c0-7-.51-8.05-3.95-8.05a5.25,5.25,0,0,0-3.09.86m0,25.15c-1,1-1.22,21.18-.24,22.72.38.61,1.71.86,3.76.72l3.16-.23.22-4.13.21-4.13h25.83l.78-1.72a3.85,3.85,0,0,0-.2-3.77l-1-2.06-12.74-.19-12.75-.2v-3.07c0-3.65-.94-4.8-3.95-4.8a5.25,5.25,0,0,0-3.09.86m5.6,3.67c0,4.74.21,4.81,14.11,4.81,13.45,0,14.14.23,12.84,4.31-.43,1.37-1.09,1.44-13.34,1.44-13.45,0-13.25-.05-12.91,3.13s-.63,4.77-3.23,4.77h-2.5V340.46h2.52c2.48,0,2.51,0,2.51,3.09M254.75,443c-107.34,9.28-197.09,89.54-218,195C5.91,793.07,129.89,936.41,287.81,928.24,449.13,919.9,557.24,761.41,506.24,608,471.11,502.37,366,433.37,254.75,443m29.64,21.78h5.21v14.37H261.53l.2-7,.21-7,6.11-.43a71.55,71.55,0,0,1,8.62-.19c1.38.13,4.86.25,7.72.26m-45.64,19.58.19,16.71h73.3l.19-16.71c.15-12.65.41-16.7,1.08-16.7,5.69,0,34.92,8.53,47,13.7,44.1,18.84,76.72,46.69,103.43,88.34l2.08,3.23.36,48.51.36,48.5,14.54.2c17.29.23,15.41-1.8,15.12,16.33l-.2,12.93-14.91.2-14.91.19v97.43l-3,5C436.4,847,386.94,884.27,336.31,898c-9.51,2.59-24.51,5.81-27,5.81h-2.42l-.2-14.55-.19-14.55h-61.8l-.19,14.55-.2,14.55h-2.15c-2.56,0-16.28-2.89-25.84-5.45-52.07-13.94-100.17-50-128.72-96.59l-2.43-3.95L84.8,749l-.35-48.87-14.74-.36L55,699.39V670.65l14.34-.2c10.37-.14,14.5-.43,14.9-1.07s.57-22.17.57-48.18c0-34.06.24-47.73.84-48.86,21.53-41.16,76.33-84.15,125.21-98.24,8.53-2.46,24.48-6.32,26.47-6.4,1.14-.05,1.26,1.34,1.44,16.65M491.57,638.67c1.86,8.33,1.84,8.63-.76,8.63h-2.16l.05-9.17c.05-10.18.49-10.1,2.87.54m-429.76.72v7.91H60c-2.24,0-2.26-.74-.29-9.29,1.91-8.32,2.09-8.2,2.09,1.38m96.86,15c-19.19,6.14-28.43,27.26-19.67,45,14.19,28.7,56.36,21.71,60.89-10.09,3.21-22.57-19.53-41.83-41.22-34.9m207.74-.34C345,660,335.44,685.45,348,703.35c18.32,26.22,58.43,14.13,58.43-17.61,0-22-19.37-37.33-40-31.65m-188.77,1.55c16.11,5.17,25.34,23.67,19.76,39.62-10.31,29.48-52.1,27.47-59.88-2.87-5.91-23,17.12-44.13,40.12-36.75m206.26-.1c17.88,5.38,27.17,26.69,18.83,43.17-12.58,24.88-48.29,23-57.48-3.05-8.51-24.13,14-47.54,38.65-40.12M61.75,731.19c-.06,9.28-.4,9.1-2.71-1.4-1.48-6.75-1.43-7,1.09-7,1.67,0,1.68.06,1.62,8.44M493,724.72c0,2.34-2.43,13.41-3.47,16-.55,1.35-.75-.65-.78-8.08l-.05-9.88h2.16c1.88,0,2.15.25,2.14,2M284.43,901.86l-.22,4.49-7.18.21c-10.41.3-10.42.3-10.42-4.9v-4.29h18l-.21,4.49"/><path id="path4" class="cls-1" d="M486.6,140.13c-8.78,10.58-8.77,8.43-.08,19.81,7.78,10.19,8.6,11,8.6,8.87,0-3.61.23-3.69,10.86-3.69h10V150.76c0-16.83,1.41-15-11.86-15.29l-8.62-.17-.23-2c-.34-3-.82-2.63-8.65,6.81m21.28,6.29c3,1.38,4,3.29,2,4a5,5,0,0,1-3.08-.68,12.08,12.08,0,0,0-10.3-.83c-4.41,1.61-5.27,1.64-5.58.17-.71-3.46,11.09-5.35,16.92-2.7m-1.39,4.82c2.32,1.45.88,3.35-1.77,2.34-2.25-.85-6.76-.86-8.1,0s-2.94.21-2.94-1c0-.89,2.49-2.15,5.39-2.73a12.05,12.05,0,0,1,7.42,1.42m-2,4.18c1.09,1.31,1.29,1.23-3.77,1.46-3.91.17-5.17-.54-3.65-2.06.94-.94,6.52-.49,7.42.6"/></g></svg>