<?xml version="1.0" encoding="UTF-8" standalone="no"?>
<svg
   xmlns:dc="http://purl.org/dc/elements/1.1/"
   xmlns:cc="http://creativecommons.org/ns#"
   xmlns:rdf="http://www.w3.org/1999/02/22-rdf-syntax-ns#"
   xmlns:svg="http://www.w3.org/2000/svg"
   xmlns="http://www.w3.org/2000/svg"
   id="svg4963"
   version="1.1"
   viewBox="0 0 210 297"
   height="297mm"
   width="210mm">
  <defs
     id="defs4957" />
  <metadata
     id="metadata4960">
    <rdf:RDF>
      <cc:Work
         rdf:about="">
        <dc:format>image/svg+xml</dc:format>
        <dc:type
           rdf:resource="http://purl.org/dc/dcmitype/StillImage" />
        <dc:title></dc:title>
      </cc:Work>
    </rdf:RDF>
  </metadata>
  <g
     id="layer1">
    <path
       id="rect3829"
       d="m 70.746455,100.03825 v 62.44264 0.75013 h 0.0263 a 24.503511,24.564495 0 0 0 24.476994,23.81406 24.503511,24.564495 0 0 0 24.466071,-23.81406 h 0.0377 v -0.75013 -62.44264 z"
       style="display:inline;opacity:1;fill:#ffffff;stroke:#000000;stroke-width:2.11343503;stroke-miterlimit:4;stroke-dasharray:none;stroke-opacity:1" />
    <path
       id="path4829"
       d="m 103.64849,100.26445 c 0,0 4.45003,1.40044 6.8246,4.91314 2.37456,3.5127 2.10729,9.65991 2.10729,9.65991 l -0.1107,21.03499 c 0,0 0.32729,3.94891 3.41324,4.08896 3.08596,0.14005 3.71295,-3.77976 3.71295,-3.77976"
       style="fill:none;stroke:#000000;stroke-width:0.66500002;stroke-linecap:butt;stroke-linejoin:miter;stroke-miterlimit:4;stroke-dasharray:none;stroke-opacity:1" />
    <ellipse
       ry="21.626207"
       rx="21.358938"
       cy="162.63089"
       cx="95.392334"
       id="path4833"
       style="opacity:1;fill:none;stroke:#000000;stroke-width:1.3768338;stroke-miterlimit:4;stroke-dasharray:none;stroke-opacity:1" />
    <ellipse
       ry="2.6726952"
       rx="2.80633"
       cy="162.79793"
       cx="85.670403"
       id="path4835"
       style="opacity:1;fill:#000000;stroke:none;stroke-width:0.89619279;stroke-miterlimit:4;stroke-dasharray:none;stroke-opacity:1" />
    <ellipse
       ry="2.6726952"
       rx="2.80633"
       cy="162.93156"
       cx="104.64655"
       id="path4835-5"
       style="opacity:1;fill:#000000;stroke:none;stroke-width:0.89619279;stroke-miterlimit:4;stroke-dasharray:none;stroke-opacity:1" />
    <text
       transform="matrix(0,-0.95123124,1.0512691,0,0,0)"
       id="text4940"
       y="111.95947"
       x="-140.18462"
       style="font-style:normal;font-weight:normal;font-size:4.11742687px;line-height:1.25;font-family:sans-serif;letter-spacing:0px;word-spacing:0px;fill:#000000;fill-opacity:1;stroke:#000000;stroke-width:0.10293566;"
       xml:space="preserve"><tspan
         style="stroke-width:0.10293566;stroke:#000000;"
         y="111.95947"
         x="-140.18462"
         id="tspan4938">TELLDUS</tspan></text>
  </g>
</svg>
