<?xml version="1.0" encoding="utf-8"?>
<!-- Generator: Adobe Illustrator 25.2.0, SVG Export Plug-In . SVG Version: 6.00 Build 0)  -->
<svg version="1.1" id="svg" xmlns="http://www.w3.org/2000/svg" xmlns:xlink="http://www.w3.org/1999/xlink" x="0px" y="0px"
	 viewBox="0 0 960 960" style="enable-background:new 0 0 960 960;" xml:space="preserve">
<style type="text/css">
	.st0{fill-rule:evenodd;clip-rule:evenodd;}
</style>
<g id="svgg">
	<path id="path1" class="st0" d="M707.7,177.7c-1.5,0.9-3,3-4.5,6c-5.1,10.7-13.7,8.9-9.1-1.9c1.6-3.8-1.3-5.7-3.5-2.3
		c-3.1,4.7-1.6,13.1,2.6,15.3c5.2,2.7,9.3,0.5,13.1-6.9c5-9.7,13.5-7.2,9.1,2.6c-1.4,3.2-1.4,3.5-0.3,4.3c1.9,1.4,2.4,1.1,3.9-2.1
		C723.6,182.5,716.1,172.6,707.7,177.7 M689.5,205.4v2.6h10.9h10.9l2.4,2.4c2.6,2.6,3,4.8,1.6,7.9c-1.7,3.7-3.7,4.3-15.2,4.6
		l-10.6,0.3v2.1v2.1h10.8c15.4,0,20.6-3.3,20.2-12.7c-0.3-8.5-5-11.3-19.7-11.6l-11.3-0.3V205.4 M698.9,235.6
		c-7,3.1-9.5,7.9-9.2,17.8l0.2,7.3H705h15.1l0-7.6C720,239,710,230.7,698.9,235.6 M710.3,240.9c3.5,1.9,5.9,6.6,5.6,11.2l-0.2,3.6
		l-11,0.2l-11,0.2v-5C693.8,241.8,702.3,236.6,710.3,240.9 M716.1,272.9c0,7.5,1,7-14.4,7h-12.2v2.2v2.2l15.3-0.2l15.3-0.2v-8.3
		v-8.3l-2-0.2l-2-0.2V272.9 M716.5,290.7c-0.2,0.5-0.4,3.4-0.5,6.3l-0.2,5.4l-13.1,0.2l-13.1,0.2v2.2v2.2l15.3-0.2l15.3-0.2v-8.3
		c0-8,0-8.3-1.6-8.5C717.5,289.9,716.7,290.2,716.5,290.7 M690,315.5c-0.3,0.3-0.5,4.6-0.5,9.7v9.2l15.3-0.2l15.3-0.2v-9.3v-9.3
		h-1.8c-1.8,0-1.8,0.1-2,6.8c-0.2,7.5-0.5,7.9-4.6,7.9c-4.7,0-4.9-0.2-4.9-6.5v-5.7h-2.2h-2.2v5.7c0,6.1-0.3,6.5-4.3,6.5
		c-4.1,0-4.3-0.3-4.3-7.5c0-5.4-0.2-6.8-1.1-7.1C691.2,314.9,690.6,314.9,690,315.5 M689.5,351v10.1l2-0.2c1.8-0.2,2-0.5,2.3-3.8
		l0.4-3.6l12.9-0.4l12.9-0.4V351v-1.8l-12.9-0.4l-12.9-0.4l-0.2-3.8c-0.2-3.6-0.3-3.8-2.3-3.8h-2.1V351"/>
	<path id="path2" class="st0" d="M708.6,176.3c-2.2,0.9-4.4,3.6-6.5,8.1c-2.7,5.8-5.1,7.3-7.6,4.9c-0.8-0.8-1.4-1.1-1.4-0.7
		c0,0.4,0.7,1.2,1.5,1.7c2.8,2,5.5-0.1,8.6-6.6c6.8-14.2,22.3-5.4,15.7,9c-1.5,3.3-1.9,3.5-3.9,2.1c-1.2-0.9-1.2-1.1,0.2-4.1
		c0.8-1.8,1.5-3.9,1.5-4.7c0-0.8-0.6,0.2-1.3,2.2c-0.7,2-1.5,4.1-1.8,4.8c-0.6,1.4,2.6,3.9,3.9,3.1c1.5-0.9,3.5-6.4,3.5-9.5
		C721.2,178.7,714.9,173.7,708.6,176.3 M689.9,179.2c-0.6,1.2-1.1,2.7-1.1,3.4c0,0.7,0.4,0.2,0.9-1.2c1.1-3.1,2.8-4.3,4.3-3
		c1,0.8,1,1.2,0.1,3.3c-1.5,3.6-1.2,4,0.4,0.8c1.3-2.6,1.3-2.9,0.2-4.1C693.1,176.4,691.1,176.8,689.9,179.2 M708.2,184.3
		c-0.9,1.2-1.4,2.4-1.1,2.6c0.2,0.2,0.4,0.1,0.4-0.3c0-0.4,0.8-1.6,1.8-2.6c1-1,1.5-1.9,1.1-1.9C710,182.1,709,183.1,708.2,184.3
		 M688.2,186.4c0,1.4,0.1,1.9,0.3,1.3c0.2-0.7,0.2-1.8,0-2.5C688.4,184.4,688.2,185,688.2,186.4 M705.7,189.3
		c-0.3,0.8-1.6,2.7-3,4.1c-1.6,1.6-2,2.2-1,1.7c1.7-0.9,5.6-6.3,4.9-6.9C706.4,187.9,706,188.4,705.7,189.3 M688.8,189.5
		c-0.1,2.2,4.4,7.1,5.5,6c0.2-0.2-0.3-0.6-1.1-0.8c-0.8-0.3-2.1-1.7-2.9-3.1C689.5,190.1,688.8,189.2,688.8,189.5 M689.1,203.2
		c-0.2,0.6-0.3,1.9-0.2,3.1l0.2,2l11.3,0.4c12.7,0.4,13.9,0.9,14.7,5.9c0.4,2.3,0.1,2.9-1.8,4.8l-2.2,2.2l-10.3,0
		c-11.6,0-12.3,0.2-12,3.7l0.2,2.4l10.6,0l10.6,0l-10.4-0.2l-10.4-0.2v-2.1v-2.1l10.6-0.3c11.5-0.3,13.5-0.9,15.2-4.6
		c1.4-3.1,1-5.3-1.6-7.9l-2.4-2.4h-10.9h-10.9v-2.6v-2.6l11.3,0.3c14.5,0.3,17.6,1.9,19.6,10.3c0.5,2,0.5,2,0.6,0.4
		c0.1-4.3-4.6-9.6-9.7-10.8C706.5,201.8,689.5,202,689.1,203.2 M720.2,218.1c-0.6,3.2-3,6.2-6.1,7.8c-1.6,0.9-2.1,1.4-1.4,1.4
		c2.9,0.1,9.9-9.5,8.2-11.2C720.8,216,720.4,216.8,720.2,218.1 M697.3,235.8c-6.4,3.3-8.5,7.7-8.5,17.5c0,9.4-1.5,8.6,16.4,8.6
		c16.7,0,15.9,0.4,15.8-7.5l-0.1-5.8l-0.4,6.1l-0.4,6.1H705h-15.1l-0.2-7.4c-0.3-12,4-17.7,14.6-18.9l4.3-0.5l-3.7-0.1
		C702.1,233.8,700.2,234.3,697.3,235.8 M711.8,236.2c3.6,1.9,7.8,7.4,8,10.4c0.1,1.7,0.1,1.8,0.4,0.3c0.7-3.5-6.9-12.4-10.5-12.4
		C709.1,234.5,710,235.3,711.8,236.2 M699.2,240.9c-2.9,1.8-5.3,4.9-5.3,6.8c0,1,0.5,0.6,1.4-1.5c4.8-10.6,20.7-6.2,20,5.6L715,255
		h-10.6c-5.8,0-10.6,0.3-10.6,0.6c0,0.3,4.9,0.5,11,0.4l11-0.2l0.2-3.6C716.5,242.8,706.8,236.3,699.2,240.9 M715.7,267.1
		c-0.2,0.5-0.4,3.3-0.5,6.3l-0.2,5.4l-13.2,0.2l-13.2,0.2l0.2,2.7l0.2,2.7l15.4,0.2c18,0.2,16.6,1,16.4-9.2l-0.1-7.5l-0.4,7.9
		l-0.4,7.9l-15.3,0.2l-15.3,0.2V282v-2.2h12.2c15.5,0,14.4,0.5,14.4-7v-6.1l2.2,0.3c1.2,0.2,2.2,0.1,2.2-0.3
		C720.4,265.8,716.1,266.1,715.7,267.1 M716.3,289.7c-0.5,0.3-0.9,2.8-1.1,6.3l-0.2,5.7l-13.1,0.2l-13.1,0.2v2.9v2.9h15.7
		c18.3,0,16.6,1,16.6-9.6C721.1,289.7,719.8,287.5,716.3,289.7 M720.1,298.5v8.3l-15.3,0.2l-15.3,0.2V305v-2.2l13.1-0.2l13.1-0.2
		l0.2-5.4c0.2-6.7,0.5-7.3,2.5-7.1C720,290.2,720.1,290.5,720.1,298.5 M689.1,315.2c-0.2,0.5-0.3,5.1-0.2,10.2l0.2,9.3l15.4,0.2
		c18.1,0.2,16.6,1.2,16.6-10.3c0-9.5-0.5-10.9-3.9-10c-1.7,0.4-1.8,0.7-2,7.4l-0.2,7h-3.6h-3.6l-0.4-5.4l-0.4-5.4l-0.1,5.5
		c-0.1,6.1,0.1,6.4,4.8,6.4c4.1,0,4.4-0.4,4.6-7.9c0.2-6.7,0.2-6.8,2-6.8h1.8v9.3v9.3l-15.3,0.2l-15.3,0.2l0.2-9.5l0.2-9.5l2,0.1
		c1.1,0.1,1.8-0.2,1.6-0.5C692.8,314,689.5,314.2,689.1,315.2 M702.6,317.4c-0.4,0.5-0.9,3.3-1,6.3l-0.2,5.4l-2.7,0.2
		c-1.5,0.1-3.2-0.2-3.8-0.6c-0.6-0.5-1-0.6-1-0.1c0,1,1.8,1.6,4.3,1.6c4,0,4.3-0.4,4.3-6.5v-5.7l2.3,0c1.8,0,2.1-0.2,1.3-0.7
		C704.6,316.2,703.5,316.3,702.6,317.4 M688.8,351v10.8h2.4c2.6,0,3.4-1,3.2-4.2c-0.1-1.6-0.2-1.5-0.5,0.6c-0.4,2.1-0.8,2.6-2.4,2.7
		l-2,0.2V351V341l2.3-0.3c2.3-0.3,2.3-0.3-0.4-0.4l-2.7-0.1V351 M694,347.4c0.3,0.9,2.6,1.1,13.2,1.4l12.9,0.4v1.8v1.8l-12.9,0.4
		c-9.6,0.3-12.9,0.6-13.1,1.3c-0.1,0.5,0,0.6,0.2,0.2c0.2-0.5,5.1-0.7,13.2-0.7c12.2,0,12.9-0.1,13.3-1.4c1.3-4.1,0.6-4.3-12.8-4.3
		c-8.9,0-12.6-0.3-13.3-0.9C693.8,346.5,693.7,346.5,694,347.4 M367.6,654.2c-24.7,4.6-35,33.5-18.5,51.6
		c19.3,21,54.1,7.8,54.3-20.7C403.6,666.3,385.7,650.8,367.6,654.2 M573.7,654.2c-18.9,3.4-30.4,23.2-24,41.2
		c9.2,26,44.9,27.9,57.5,3.1C618.3,676.4,598.2,649.8,573.7,654.2"/>
	<path id="path3" class="st0" d="M204.8,1.9c-0.9,3.7,0,699.9,0.9,708c22.8,200.8,233.1,310.9,409.4,214.3
		c79.4-43.5,129.3-122.4,139.8-221.1c0.6-5.5,0.7-102.8,0.6-355L755.3,0.6l-275-0.2l-275-0.2L204.8,1.9 M735,37.3
		c0.6,20.2,0,306.6-0.7,321.4l-0.4,9.5l-30.6-0.2l-30.6-0.2l-0.5-3.2c-0.3-1.8-0.5-31.9-0.6-66.8c-0.1-35-0.4-91.2-0.7-125
		l-0.5-61.4l-1.8-7.9c-8.1-34.8-32.6-69.1-58.8-82.7c-1.1-0.6-2.1-1.2-2.1-1.4c0-0.2,28.5-0.3,63.4-0.2l63.4,0.2L735,37.3 M581.8,24
		c36.1,11.7,63.7,42.7,73.1,82.2l1.9,7.9l0.4,138c0.4,137.4,0.4,138,2,144.1c10.9,43.6,43.9,60.3,70.1,35.3l3.4-3.3v133.3
		c0,139.9-0.1,144.4-3.3,163.4c-24.9,148.9-170.4,242.5-316,203.3c-97.8-26.4-168.9-108-183.9-211.2l-1.6-10.8l-0.2-341
		c-0.1-187.5-0.1-341.4,0.1-341.9c0.3-0.7,35.9-0.9,174.9-0.9h174.5L581.8,24 M699.5,132.7c0.3,2,0.4,2.1,0.7,0.7
		c0.1-0.9,0-2-0.4-2.4C699.4,130.6,699.3,131.2,699.5,132.7 M720.7,150.5c0,7.7,0.1,10.9,0.2,7s0.1-10.2,0-14
		C720.8,139.6,720.7,142.8,720.7,150.5 M704.8,165.4c2.7,0.1,7.2,0.1,10.1,0c2.9-0.1,0.7-0.2-4.8-0.2
		C704.5,165.1,702.1,165.2,704.8,165.4 M707.6,176.1c-2.3,1.1-5,4.8-6.6,9c-1.3,3.3-0.2,2.2,1.4-1.5c4-9.3,14.2-10.8,17.6-2.6
		c2.9,6.9-1.1,17.6-5.4,14.2l-1.6-1.3l1.5-3.2c4.3-9.5-2.9-12.1-7.6-2.9c-3.9,7.6-7.9,9.9-13.4,7.6c-5.1-2.1-6.8-10.2-3.6-16.4
		c2.4-4.6,6.9-1.1,4.6,3.6c-2.8,5.9,1.4,10.8,5.2,6c0.8-1,0.8-1.1-0.3-0.2c-3.7,2.9-6.1-1.2-3.8-6.5c1.2-2.6,1.2-2.8,0-4.1
		c-5.8-6.4-11.5,7.6-6.1,14.9c5.3,7.3,13,5.4,18-4.3c4.3-8.4,10.6-6.7,6.5,1.7c-1.9,4-1.9,4.4,0.3,5.9c2.6,1.7,4.3,0.9,6-2.8
		C725.4,182.4,717.3,171.4,707.6,176.1 M688.4,202.5c-0.2,0.6-0.3,2.2-0.2,3.8l0.2,2.8l10.1,0.2c11.7,0.2,12.8,0.4,14.7,2.5
		c0.8,0.9,1.5,1.2,1.5,0.8c0-2.7-2.9-3.5-14.3-3.8l-11.2-0.4v-2.9v-2.9l8.3-0.2c14.6-0.4,18.8,0.9,22.1,6.7
		c3.2,5.6,1.7,12.1-3.7,16.5l-2.7,2.2h-12h-12l-0.2-2.4c-0.3-3.4,0.3-3.6,12-3.7l10.3,0l2.1-2.1c1.4-1.4,2.1-2.8,2-4.1
		c-0.1-1.9-0.1-1.9-0.7,0.5c-1.1,4.5-2.5,5-13.5,5.1c-13.1,0-13.2,0-12.9,4.2l0.2,3.3l10.8,0.2c6.1,0.1,11.9-0.1,13.4-0.5
		c11.5-3.4,12.7-19.8,1.8-24.9C709.9,201.1,689.1,200.5,688.4,202.5 M698,234.4c-6.8,3.2-9.9,8.7-10.4,18.5
		c-0.5,10.3-1.6,9.6,17,9.6c18.5,0,17.4,0.5,17.4-8.3C721.9,238.3,710.2,228.6,698,234.4 M713.5,236.5c6.1,4.3,10.6,19.9,7,24.3
		c-0.9,1.1-27.8,1.7-30.5,0.7c-2.4-0.9-1.6-15.1,1.2-19.7C695.9,233.9,706.3,231.4,713.5,236.5 M699,241.8c-2.9,1.8-5.3,6.8-5,10.6
		l0.2,2.7h10.4H715l0.2-3.2C715.8,243,706.4,237.2,699,241.8 M708.7,241.8c3.2,1.1,5.5,4.6,5.8,9.1l0.3,3.8h-9.8h-9.8v-3.9
		C695.3,243.3,701.4,239.2,708.7,241.8 M715.1,265.9c-0.3,0.3-0.5,3-0.5,6.1v5.6l-13,0.2c-14,0.2-14.3,0.3-14.3,4.3
		c0,3.7,1.7,4.2,17,4.2c18.7,0,17.5,0.7,17.5-10.3c0-5.9-0.3-9.1-0.9-9.7C720.1,265.4,715.9,265.1,715.1,265.9 M720.7,267.8
		c0.6,2.4,0.5,15.1-0.1,16.2c-0.4,0.7-4.1,0.9-16,0.7l-15.4-0.2l-0.2-2.7l-0.2-2.7l13.2-0.2l13.2-0.2l0.2-5.4
		c0.2-6.8,0.4-7.2,2.9-7.2C719.7,266.2,720.4,266.6,720.7,267.8 M715.1,288.9c-0.3,0.3-0.5,3-0.5,6.1v5.6h-12.1
		c-14.6,0-18,1.7-14.5,7.2c0.8,1.3,28.6,2,31.8,0.8l1.9-0.7V299c0-5.9-0.3-9.1-0.9-9.7C720.1,288.4,715.9,288.1,715.1,288.9
		 M720.3,290c0.9,0.9,1.3,14.5,0.4,16.7c-0.4,1-2.5,1.1-16.2,1.1h-15.7V305v-2.9l13.1-0.2l13.1-0.2l0.2-5.7c0.1-3.5,0.6-5.9,1.1-6.3
		C717.6,288.9,719.3,289,720.3,290 M688.2,314.5c-1,1-1.2,19-0.3,20.5c0.4,0.7,4.4,0.9,17.1,0.7l16.5-0.2l0.2-10
		c0.2-11.3-0.1-12.1-4.1-11.8l-2.6,0.2l-0.2,7l-0.2,7h-3.2h-3.2l-0.2-5.6c-0.2-4.9-0.4-5.6-1.6-5.8c-1.2-0.2-1.2-0.1-0.4,0.5
		c0.7,0.5,1.2,2.5,1.4,6.3l0.4,5.6h3.6h3.6l0.2-7c0.2-6.8,0.3-7,2-7.4c3.4-0.8,3.9,0.5,3.9,10c0,11.6,1.6,10.6-16.6,10.3l-15.4-0.2
		v-10.1v-10.1h2.2h2.2l0.2,6.4c0.2,7.6,0.8,8.5,4.8,8.2l2.9-0.2l0.2-5.4c0.1-2.9,0.6-5.8,1-6.3c0.6-0.7,0.5-0.9-0.4-0.9
		c-1,0-1.2,0.9-1.2,5.7v5.7h-2.9h-2.9v-6.3c0-7-0.5-8-4-8C690.1,313.6,688.7,314,688.2,314.5 M688.2,339.6c-1,1-1.2,21.2-0.2,22.7
		c0.4,0.6,1.7,0.9,3.8,0.7l3.2-0.2l0.2-4.1l0.2-4.1h12.9h12.9l0.8-1.7c0.6-1.3,0.5-2.2-0.2-3.8l-1-2.1l-12.7-0.2l-12.7-0.2v-3.1
		c0-3.7-0.9-4.8-4-4.8C690.1,338.7,688.7,339.1,688.2,339.6 M693.8,343.3c0,4.7,0.2,4.8,14.1,4.8c13.4,0,14.1,0.2,12.8,4.3
		c-0.4,1.4-1.1,1.4-13.3,1.4c-13.4,0-13.2,0-12.9,3.1c0.4,3.3-0.6,4.8-3.2,4.8h-2.5V351v-10.8h2.5
		C693.8,340.2,693.8,340.2,693.8,343.3 M459.2,442.7c-107.3,9.3-197.1,89.5-218,195C210.4,792.8,334.3,936.1,492.3,928
		c161.3-8.3,269.4-166.8,218.4-320.2C675.6,502.1,570.4,433.1,459.2,442.7 M488.8,464.5l5.2,0v7.2v7.2h-14h-14l0.2-7l0.2-7l6.1-0.4
		c3.4-0.2,7.2-0.3,8.6-0.2C482.5,464.4,486,464.5,488.8,464.5 M443.2,484.1l0.2,16.7H480h36.6l0.2-16.7c0.1-12.7,0.4-16.7,1.1-16.7
		c5.7,0,34.9,8.5,47,13.7c44.1,18.8,76.7,46.7,103.4,88.3l2.1,3.2l0.4,48.5l0.4,48.5l14.5,0.2c17.3,0.2,15.4-1.8,15.1,16.3
		l-0.2,12.9l-14.9,0.2l-14.9,0.2v48.7v48.7l-3,5c-27,44.8-76.4,82.1-127.1,95.8c-9.5,2.6-24.5,5.8-27,5.8h-2.4l-0.2-14.6l-0.2-14.6
		H480h-30.9L449,889l-0.2,14.6h-2.2c-2.6,0-16.3-2.9-25.8-5.5c-52.1-13.9-100.2-50-128.7-96.6l-2.4-4l-0.4-48.9l-0.4-48.9l-14.7-0.4
		l-14.7-0.4v-14.4v-14.4l14.3-0.2c10.4-0.1,14.5-0.4,14.9-1.1c0.3-0.5,0.6-22.2,0.6-48.2c0-34.1,0.2-47.7,0.8-48.9
		c21.5-41.2,76.3-84.1,125.2-98.2c8.5-2.5,24.5-6.3,26.5-6.4C442.9,467.4,443,468.8,443.2,484.1 M696,638.4c1.9,8.3,1.8,8.6-0.8,8.6
		h-2.2l0-9.2C693.2,627.7,693.6,627.8,696,638.4 M266.3,639.1v7.9h-1.8c-2.2,0-2.3-0.7-0.3-9.3C266.1,629.4,266.3,629.5,266.3,639.1
		 M363.1,654.2c-19.2,6.1-28.4,27.3-19.7,45c14.2,28.7,56.4,21.7,60.9-10.1C407.6,666.5,384.8,647.2,363.1,654.2 M570.9,653.8
		c-21.4,5.9-31,31.4-18.5,49.3c18.3,26.2,58.4,14.1,58.4-17.6C610.8,663.5,591.5,648.1,570.9,653.8 M382.1,655.4
		c16.1,5.2,25.3,23.7,19.8,39.6c-10.3,29.5-52.1,27.5-59.9-2.9C336.1,669.1,359.1,648,382.1,655.4 M588.4,655.3
		c17.9,5.4,27.2,26.7,18.8,43.2c-12.6,24.9-48.3,23-57.5-3.1C541.2,671.2,563.7,647.8,588.4,655.3 M266.2,730.9
		c-0.1,9.3-0.4,9.1-2.7-1.4c-1.5-6.7-1.4-7,1.1-7C266.3,722.5,266.3,722.5,266.2,730.9 M697.4,724.4c0,2.3-2.4,13.4-3.5,16
		c-0.5,1.4-0.7-0.7-0.8-8.1l0-9.9h2.2C697.1,722.5,697.4,722.7,697.4,724.4 M488.9,901.6l-0.2,4.5l-7.2,0.2
		c-10.4,0.3-10.4,0.3-10.4-4.9v-4.3h9h9L488.9,901.6"/>
	<path id="path4" class="st0" d="M691.1,139.9c-8.8,10.6-8.8,8.4-0.1,19.8c7.8,10.2,8.6,11,8.6,8.9c0-3.6,0.2-3.7,10.9-3.7h10v-14.4
		c0-16.8,1.4-15-11.9-15.3l-8.6-0.2l-0.2-2C699.4,130,698.9,130.4,691.1,139.9 M712.3,146.1c3,1.4,4,3.3,2,4
		c-0.6,0.2-1.9-0.1-3.1-0.7c-3.6-1.8-6.8-2.1-10.3-0.8c-4.4,1.6-5.3,1.6-5.6,0.2C694.7,145.4,706.5,143.5,712.3,146.1 M710.9,151
		c2.3,1.4,0.9,3.3-1.8,2.3c-2.2-0.9-6.8-0.9-8.1,0c-1.3,0.8-2.9,0.2-2.9-1c0-0.9,2.5-2.2,5.4-2.7C705.6,149.1,709,149.8,710.9,151
		 M708.9,155.1c1.1,1.3,1.3,1.2-3.8,1.5c-3.9,0.2-5.2-0.5-3.7-2.1C702.4,153.6,708,154.1,708.9,155.1"/>
</g>
</svg>
