<?xml version="1.0" encoding="UTF-8" standalone="no"?>
<!-- Created with Inkscape (http://www.inkscape.org/) -->

<svg
   xmlns:dc="http://purl.org/dc/elements/1.1/"
   xmlns:cc="http://creativecommons.org/ns#"
   xmlns:rdf="http://www.w3.org/1999/02/22-rdf-syntax-ns#"
   xmlns:svg="http://www.w3.org/2000/svg"
   xmlns="http://www.w3.org/2000/svg"
   xmlns:sodipodi="http://sodipodi.sourceforge.net/DTD/sodipodi-0.dtd"
   xmlns:inkscape="http://www.inkscape.org/namespaces/inkscape"
   width="210mm"
   height="297mm"
   viewBox="0 0 210 297"
   version="1.1"
   id="svg3816"
   inkscape:version="0.92.1 r15371"
   sodipodi:docname="learnmode.svg">
  <defs
     id="defs3810" />
  <sodipodi:namedview
     id="base"
     pagecolor="#ffffff"
     bordercolor="#666666"
     borderopacity="1.0"
     inkscape:pageopacity="0.0"
     inkscape:pageshadow="2"
     inkscape:zoom="0.7"
     inkscape:cx="-859.80717"
     inkscape:cy="258.39529"
     inkscape:document-units="mm"
     inkscape:current-layer="layer1"
     showgrid="false"
     inkscape:window-width="3840"
     inkscape:window-height="2066"
     inkscape:window-x="-11"
     inkscape:window-y="-11"
     inkscape:window-maximized="1" />
  <metadata
     id="metadata3813">
    <rdf:RDF>
      <cc:Work
         rdf:about="">
        <dc:format>image/svg+xml</dc:format>
        <dc:type
           rdf:resource="http://purl.org/dc/dcmitype/StillImage" />
        <dc:title></dc:title>
      </cc:Work>
    </rdf:RDF>
  </metadata>
  <g
     inkscape:label="Layer 1"
     inkscape:groupmode="layer"
     id="layer1">
    <rect
       style="opacity:1;fill:none;stroke:#666666;stroke-width:2.90801668;stroke-linejoin:round;stroke-miterlimit:4;stroke-dasharray:none;stroke-opacity:1"
       id="rect4915"
       width="85.686325"
       height="118.58161"
       x="-18.502747"
       y="71.260452"
       ry="6.9719901" />
    <path
       style="display:inline;opacity:1;fill:#ffffff;stroke:#666666;stroke-width:2.11343503;stroke-miterlimit:4;stroke-dasharray:none;stroke-opacity:1"
       d="m -0.15730259,36.527693 v 62.442633 0.750133 h 0.0263042 A 24.503511,24.564495 0 0 0 24.345991,123.53452 24.503511,24.564495 0 0 0 48.812064,99.720459 h 0.03772 V 98.970326 36.527693 Z"
       id="rect3829"
       inkscape:connector-curvature="0"
       inkscape:label="plug" />
    <path
       style="fill:none;stroke:#000000;stroke-width:0.26458332px;stroke-linecap:butt;stroke-linejoin:miter;stroke-opacity:1"
       d="m 24.946428,29.392856 c 0,0 -0.99114,-14.704158 12.473215,-17.197916 13.464355,-2.4937576 37.748014,16.818741 51.971724,32.505953 14.223713,15.687212 29.860123,31.75 29.860123,31.75"
       id="path3833"
       inkscape:connector-curvature="0"
       sodipodi:nodetypes="czzc" />
    <path
       style="fill:none;stroke:#000000;stroke-width:0.26458332px;stroke-linecap:butt;stroke-linejoin:miter;stroke-opacity:1"
       d="m 20.032738,23.912202 4.91369,5.480654 5.291666,-3.779761"
       id="path3835"
       inkscape:connector-curvature="0" />
    <ellipse
       id="path3837"
       cx="152.5134"
       cy="125.20982"
       style="fill:none;stroke:#000000;stroke-width:0.27521947"
       rx="58.586308"
       ry="58.775295" />
    <g
       id="g32"
       transform="matrix(1.5130925,0,0,1.252013,-29.960488,-2.2896336)">
      <path
         inkscape:connector-curvature="0"
         id="use26"
         d="m 109.14327,72.551396 0.15346,0.05027 0.15346,0.06879 0.14816,0.08467 0.14552,0.100542 0.14288,0.116416 0.13758,0.134938 0.13494,0.148166 0.12965,0.164042 0.12435,0.179917 0.12171,0.193146 0.11642,0.20902 0.11112,0.224896 0.10583,0.238125 0.10055,0.251354 0.0952,0.264584 0.0873,0.277812 0.0847,0.291042 0.0767,0.304271 0.0714,0.314854 0.0635,0.330729 0.0556,0.341313 0.0503,0.351895 0.045,0.36248 0.0344,0.375708 0.0291,0.386292 0.0185,0.396875 0.0132,0.407458 0.005,0.418042 v 0.785812 l 0.008,0.777875 0.0106,0.775229 0.0132,0.767292 0.0185,0.762 0.0212,0.756708 0.0265,0.748771 0.0291,0.740833 0.0344,0.73025 0.037,0.722313 0.0397,0.714375 0.045,0.701146 0.045,0.693208 0.0529,0.679979 0.0529,0.669396 0.0582,0.656167 0.0582,0.642937 0.0635,0.629709 0.0688,0.616479 0.0688,0.600604 0.0714,0.587375 0.0767,0.568854 0.0767,0.552979 0.082,0.537104 0.082,0.52123 0.0873,0.500062 0.0873,0.481542 0.0926,0.463021 0.0926,0.4445 0.0952,0.423333 0.10054,0.402167 0.10055,0.381 0.10054,0.359833 0.10583,0.336024 0.10583,0.3122 0.10848,0.29105 0.11113,0.26458 0.11112,0.24077 0.11642,0.21431 0.11377,0.18786 0.13494,0.20637 0.127,0.19315 0.11906,0.18256 0.11113,0.17462 0.10583,0.16669 0.10054,0.1614 0.09,0.15346 0.0847,0.14816 0.0767,0.14552 0.0688,0.14288 0.0609,0.14287 0.0529,0.14023 0.045,0.14023 0.0397,0.14288 0.0291,0.14287 0.0212,0.14817 0.0132,0.15346 0.003,0.15875 -0.003,0.16404 -0.0132,0.17198 -0.0212,0.18256 -0.0318,0.1905 -0.037,0.20108 -0.0503,0.21167 -0.0556,0.22754 -0.0688,0.23813 -0.0767,0.25664 -0.0847,0.26988 -0.0953,0.28575 -0.10584,0.30427 -0.11377,0.32544 -0.12435,0.34395 -0.13494,0.36513 -0.14552,0.38629 -0.1561,0.41011 -0.16405,0.43391 -0.17727,0.46038 -0.18785,0.48418 -0.19579,0.5133 -0.20902,0.53975 -0.17198,0.44979 -0.16669,0.4445 -0.15875,0.43921 -0.15081,0.43391 -0.14552,0.42863 -0.13759,0.42333 -0.12964,0.41804 -0.12436,0.4154 -0.11641,0.40746 -0.10848,0.40481 -0.10319,0.39952 -0.0953,0.39423 -0.09,0.38894 -0.082,0.38629 -0.0741,0.381 -0.0688,0.37835 -0.0609,0.37307 -0.0556,0.36777 -0.0476,0.36512 -0.0397,0.35983 -0.0344,0.35719 -0.0291,0.3519 -0.0185,0.34925 -0.0132,0.3466 -0.008,0.34131 v 0.33867 l 0.008,0.33602 0.0132,0.33338 0.0185,0.32808 0.0264,0.32544 0.0344,0.32279 0.0397,0.3175 0.0476,0.3175 0.0529,0.31221 0.0609,0.31221 0.0688,0.30691 0.0741,0.30692 0.0794,0.30162 0.0873,0.30163 0.0926,0.29898 0.005,0.0159 0.003,0.0159 v 0.0185 l 0.003,0.0159 v 0.0185 0.0185 l -0.003,0.0185 -0.003,0.0185 -0.003,0.0185 -0.005,0.0185 -0.005,0.0185 -0.005,0.0212 -0.008,0.0185 -0.008,0.0185 -0.008,0.0212 -0.0106,0.0185 -0.008,0.0212 -0.0132,0.0185 -0.0106,0.0185 -0.0132,0.0212 -0.0106,0.0185 -0.0159,0.0185 -0.0132,0.0212 -0.0159,0.0185 -0.0159,0.0185 -0.0159,0.0185 -0.0159,0.0159 -0.0185,0.0185 -0.0185,0.0185 -0.0185,0.0159 -0.0185,0.0185 -0.0212,0.0159 -0.0212,0.0159 -0.0212,0.0132 -0.0212,0.0159 -0.0212,0.0132 -0.0238,0.0132 -0.0212,0.0132 -0.0238,0.0132 -0.0238,0.0132 -0.15611,0.0635 -0.14552,0.0212 -0.13758,-0.0159 -0.12435,-0.0529 -0.11642,-0.09 -0.10848,-0.12435 -0.0979,-0.15875 -0.0873,-0.1905 -0.0767,-0.21961 -0.0688,-0.25135 -0.0609,-0.27781 -0.0503,-0.30427 -0.0423,-0.33073 -0.0318,-0.3519 -0.0238,-0.37571 -0.0132,-0.39687 -0.005,-0.4154 0.003,-0.43392 0.0132,-0.45243 0.0185,-0.46567 0.0291,-0.4789 0.037,-0.49212 0.0476,-0.50271 0.0529,-0.51329 0.0635,-0.52123 0.0714,-0.52652 0.0767,-0.53446 0.0873,-0.5371 0.0952,-0.53975 0.10319,-0.53975 0.10848,-0.5424 0.11906,-0.5371 0.12435,-0.53711 0.13494,-0.53181 0.14023,-0.52387 0.14817,-0.51859 0.1561,-0.51064 0.1614,-0.50007 0.16933,-0.48683 0.17727,-0.47625 0.21431,-0.55298 0.20373,-0.52387 0.19315,-0.49742 0.18256,-0.46831 0.17198,-0.44186 0.15875,-0.41804 0.14817,-0.39423 0.14023,-0.37306 0.127,-0.34925 0.11641,-0.33073 0.10584,-0.31221 0.0979,-0.29369 0.0847,-0.27781 0.0741,-0.26458 0.0635,-0.24871 0.0529,-0.23812 0.0423,-0.2249 0.0317,-0.21431 0.0212,-0.20638 0.0132,-0.19844 v -0.1905 l -0.0106,-0.18785 -0.0185,-0.18256 -0.0291,-0.17727 -0.0423,-0.17992 -0.0503,-0.17727 -0.0609,-0.17727 -0.0714,-0.17992 -0.082,-0.18256 -0.09,-0.18785 -0.10055,-0.1905 -0.11377,-0.20109 -0.12171,-0.20637 -0.12964,-0.21696 -0.14288,-0.22754 -0.15081,-0.23813 -0.16139,-0.25135 -0.17198,-0.26723 -0.18257,-0.28046 -0.1905,-0.29898 -0.24077,-0.37306 -0.24341,-0.359833 -0.24342,-0.346604 -0.24342,-0.333375 -0.24341,-0.320146 -0.24342,-0.309563 -0.24077,-0.293687 -0.24077,-0.280459 -0.23813,-0.267229 -0.23812,-0.251354 -0.23548,-0.240771 -0.23283,-0.224896 -0.23284,-0.20902 -0.22754,-0.195792 -0.2249,-0.182563 -0.22225,-0.166687 -0.2196,-0.153458 -0.21431,-0.134938 -0.20902,-0.124354 -0.20902,-0.105833 -0.20109,-0.09261 -0.19579,-0.07673 -0.19314,-0.06085 -0.18521,-0.04498 -0.18257,-0.0291 -0.17462,-0.01323 -0.16933,0.0053 -0.1614,0.01852 -0.1561,0.0344 -0.14817,0.05292 -0.14288,0.06879 -0.13229,0.08467 -0.127,0.103187 -0.11906,0.119063 -0.10848,0.134937 -0.10319,0.153459 -0.0926,0.171979 -0.082,0.187854 -0.0741,0.206375 -0.0635,0.224896 -0.0212,0.07144 -0.0212,0.06879 -0.0212,0.06615 -0.0212,0.0635 -0.0212,0.05821 -0.0238,0.05821 -0.0238,0.05556 -0.0238,0.05027 -0.0238,0.05027 -0.0265,0.04498 -0.0264,0.04498 -0.0291,0.03969 -0.0291,0.03704 -0.0317,0.03704 -0.0318,0.03175 -0.0344,0.03175 -0.0344,0.02646 -0.037,0.02646 -0.037,0.02381 -0.0397,0.02117 -0.0423,0.01852 -0.0423,0.01587 -0.0476,0.01323 -0.0476,0.01058 -0.0476,0.0079 -0.0529,0.0079 -0.0529,0.0026 -0.0556,0.0026 h -0.0582 -0.0609 l -0.0635,-0.0053 -0.0661,-0.0053 -0.0688,-0.01058 -0.0714,-0.01058 -0.0714,-0.01058 -0.0767,-0.01587 -0.0794,-0.01588 -0.0847,-0.01852 -0.0847,-0.01852 -0.09,-0.02381 -0.16934,-0.04233 -0.15875,-0.03704 -0.15081,-0.03175 -0.13758,-0.02646 -0.127,-0.02117 -0.11907,-0.01588 -0.10583,-0.01323 -0.0953,-0.0053 -0.0873,-0.0026 -0.0767,0.0026 -0.0635,0.0079 -0.0556,0.01058 -0.045,0.01852 -0.0344,0.01852 -0.0265,0.02646 -0.0159,0.02646 -0.005,0.0344 0.005,0.03704 0.0132,0.03969 0.0238,0.04233 0.0344,0.04762 0.0423,0.05292 0.0529,0.05292 0.0609,0.05821 0.0714,0.06085 0.082,0.0635 0.09,0.06615 0.0979,0.06879 0.10584,0.07144 0.11906,0.07673 0.12435,0.07673 0.13494,0.07937 0.14288,0.08202 0.15081,0.08467 0.16139,0.08467 0.16934,0.08996 0.17727,0.08996 0.18785,0.08996 0.19315,0.09525 0.20373,0.09525 0.16404,0.07673 0.15875,0.07408 0.15346,0.07144 0.14552,0.06615 0.13758,0.06085 0.13229,0.05821 0.127,0.05556 0.12171,0.05027 0.11642,0.04498 0.11112,0.04498 0.10584,0.037 0.10054,0.037 0.0979,0.0291 0.0926,0.0291 0.0873,0.0238 0.0847,0.0185 0.082,0.0185 0.0794,0.0106 0.0741,0.0106 0.0741,0.005 h 0.0688 0.0688 l 0.0661,-0.008 0.0661,-0.008 0.0609,-0.0132 0.0635,-0.0159 0.0609,-0.0212 0.0609,-0.0238 0.0582,-0.0264 0.0609,-0.0291 0.0609,-0.0344 0.0582,-0.037 0.0609,-0.04233 0.0608,-0.04498 0.0635,-0.04762 0.0635,-0.05027 0.0661,-0.05556 0.0661,-0.05821 0.0688,-0.06085 0.0714,-0.0635 0.0423,-0.03969 0.0423,-0.03969 0.0397,-0.03704 0.0423,-0.0344 0.0397,-0.0344 0.0397,-0.03175 0.037,-0.03175 0.0397,-0.0291 0.037,-0.02646 0.037,-0.02646 0.037,-0.02381 0.0344,-0.02381 0.0344,-0.01852 0.0344,-0.02117 0.0344,-0.01587 0.0318,-0.01587 0.0317,-0.01323 0.0318,-0.01323 0.0291,-0.01058 0.0291,-0.0079 0.0265,-0.0079 0.0265,-0.0053 0.0264,-0.0026 0.0238,-0.0026 h 0.0212 0.0238 l 0.0185,0.0053 0.0212,0.0026 0.0185,0.0079 0.0159,0.0079 0.0132,0.01058 0.0159,0.01323 0.0106,0.01323 0.0106,0.01587 0.0106,0.01587 0.008,0.02117 0.005,0.02117 0.003,0.02117 0.003,0.02646 0.003,0.02646 v 0.02646 l -0.003,0.0291 -0.003,0.02646 -0.003,0.0291 -0.005,0.0291 -0.005,0.0291 -0.005,0.0291 -0.008,0.02911 -0.005,0.0291 -0.0106,0.0291 -0.008,0.0291 -0.0106,0.0291 -0.0106,0.0291 -0.0132,0.02911 -0.0106,0.0291 -0.0132,0.0291 -0.0132,0.0291 -0.0159,0.0291 -0.0132,0.02646 -0.0159,0.0291 -0.0185,0.0291 -0.0159,0.02646 -0.0159,0.02646 -0.0185,0.02646 -0.0185,0.02645 -0.0185,0.0265 -0.0212,0.0265 -0.0185,0.0238 -0.0212,0.0238 -0.0212,0.0238 -0.0212,0.0238 -0.0212,0.0238 -0.0238,0.0212 -0.0212,0.0212 -0.0238,0.0212 -0.0212,0.0185 -0.0238,0.0212 -0.0238,0.0159 -0.0238,0.0185 -0.0238,0.0159 -0.0847,0.0582 -0.0794,0.0609 -0.0714,0.0662 -0.0635,0.0688 -0.0582,0.0741 -0.0529,0.0794 -0.045,0.0794 -0.0397,0.0847 -0.0318,0.09 -0.0264,0.09 -0.0212,0.0952 -0.0132,0.0979 -0.008,0.0979 -0.003,0.10319 0.005,0.10583 0.008,0.10583 0.0159,0.10848 0.0238,0.11113 0.0265,0.11377 0.0344,0.11641 0.0397,0.11378 0.045,0.11906 0.0503,0.11906 0.0556,0.11906 0.0609,0.11907 0.0662,0.1217 0.0741,0.12171 0.0767,0.12171 0.0847,0.12435 0.0873,0.12171 0.0952,0.12171 0.0979,0.12436 0.10318,0.1217 0.11113,0.11907 0.11377,0.1217 0.11906,0.11907 0.12436,0.11906 0.127,0.11906 0.13493,0.11642 0.13759,0.11377 0.0979,0.082 0.0926,0.0794 0.09,0.0767 0.0847,0.0741 0.082,0.0714 0.0794,0.0714 0.0741,0.0662 0.0688,0.0661 0.0662,0.0635 0.0635,0.0609 0.0582,0.0582 0.0556,0.0582 0.0503,0.0529 0.0476,0.0529 0.045,0.0503 0.0397,0.0476 0.0344,0.0476 0.0318,0.0423 0.0291,0.0423 0.0238,0.0397 0.0212,0.037 0.0185,0.037 0.0132,0.0344 0.008,0.0317 0.005,0.0291 0.003,0.0265 -0.003,0.0264 -0.005,0.0238 -0.0106,0.0212 -0.0132,0.0212 -0.0159,0.0185 -0.0212,0.0159 -0.0264,0.0132 -0.0265,0.0132 -0.0344,0.008 -0.0344,0.0106 -0.0397,0.005 -0.045,0.005 -0.045,0.003 h -0.0529 -0.0397 l -0.0423,-0.005 -0.0423,-0.005 -0.045,-0.0106 -0.0476,-0.0106 -0.0476,-0.0132 -0.0476,-0.0159 -0.0503,-0.0185 -0.0529,-0.0212 -0.0503,-0.0212 -0.0529,-0.0265 -0.0556,-0.0265 -0.0529,-0.0291 -0.0556,-0.0291 -0.0556,-0.0344 -0.0582,-0.0344 -0.0556,-0.0344 -0.0582,-0.0397 -0.0582,-0.0397 -0.0582,-0.0423 -0.0582,-0.0423 -0.0582,-0.045 -0.0609,-0.045 -0.0582,-0.0476 -0.0582,-0.0503 -0.0582,-0.0503 -0.0582,-0.0503 -0.0582,-0.0529 -0.0582,-0.0556 -0.0556,-0.0529 -0.0582,-0.0582 -0.0556,-0.0556 -0.0556,-0.0582 -0.0556,-0.0609 -0.0529,-0.0582 -0.0529,-0.0609 -0.0529,-0.0635 -0.0503,-0.0609 -0.0503,-0.0635 -0.0503,-0.0635 -1.17475,-1.5531 -1.29117,1.79652 -0.0952,0.13493 -0.0979,0.127 -0.0952,0.12171 -0.0979,0.11642 -0.0952,0.10848 -0.10054,0.10319 -0.10319,0.0979 -0.10319,0.0926 -0.10848,0.0873 -0.11377,0.082 -0.11641,0.0741 -0.12171,0.0714 -0.12965,0.0661 -0.13494,0.0609 -0.14022,0.0529 -0.15082,0.0503 -0.1561,0.045 -0.16669,0.0397 -0.17462,0.0371 -0.18786,0.0318 -0.19579,0.0238 -0.20637,0.0238 -0.21696,0.0159 -0.23019,0.0132 -0.24342,0.0106 -0.25929,0.003 -0.26987,0.003 -0.28575,-0.005 -0.29898,-0.005 -0.3175,-0.0106 -0.33073,-0.0159 -0.34925,-0.0185 -0.367773,-0.0212 -0.383645,-0.0265 -0.402167,-0.0291 -0.423333,-0.0318 -0.441855,-0.0344 -0.460375,-0.037 -0.484187,-0.0423 -0.502708,-0.045 -0.05292,-0.0106 -0.05821,-0.0238 -0.0635,-0.037 -0.07144,-0.0476 -0.07673,-0.0582 -0.07937,-0.0688 -0.08467,-0.0794 -0.08996,-0.0873 -0.0926,-0.0979 -0.09525,-0.10319 -0.0979,-0.11377 -0.103188,-0.11906 -0.103187,-0.12435 -0.103188,-0.12965 -0.105833,-0.13758 -0.108479,-0.14023 -0.105833,-0.14288 -0.10848,-0.14816 -0.108479,-0.15082 -0.105833,-0.15081 -0.103188,-0.1561 -0.103187,-0.15346 -0.103188,-0.1561 -0.0979,-0.15346 -0.09525,-0.15346 -0.09525,-0.15346 -0.08731,-0.14817 -0.08467,-0.14816 -0.08202,-0.14552 -0.07673,-0.14023 -0.06879,-0.13494 -0.06615,-0.13229 -0.05821,-0.12436 -0.05292,-0.11906 -0.04498,-0.11112 -0.03704,-0.10584 -0.03175,-0.0952 -0.02117,-0.09 -0.01323,-0.0794 -0.0053,-0.0688 0.0026,-0.0767 0.0053,-0.0714 0.01058,-0.0635 0.01323,-0.0582 0.01852,-0.0476 0.02117,-0.045 0.02381,-0.0344 0.02646,-0.0291 0.0291,-0.0238 0.0344,-0.0159 0.0344,-0.0106 0.03969,-0.003 0.03969,0.003 0.04233,0.008 0.04498,0.0132 0.04762,0.0185 0.05027,0.0264 0.05027,0.0291 0.05027,0.037 0.05556,0.0397 0.05292,0.0476 0.05556,0.0503 0.05821,0.0556 0.05556,0.0609 0.05821,0.0635 0.05821,0.0688 0.05821,0.0741 0.06085,0.0767 0.05821,0.082 0.05821,0.0847 0.05821,0.09 0.05821,0.0926 0.05821,0.0979 0.05556,0.0979 0.05556,0.10318 0.05556,0.10848 0.05292,0.10848 0.05292,0.11113 0.05027,0.11641 0.05027,0.11642 0.05556,0.13229 0.05821,0.12965 0.0635,0.127 0.06879,0.12435 0.07144,0.12171 0.07408,0.11906 0.07673,0.11642 0.07937,0.11112 0.08467,0.11113 0.08467,0.10583 0.08996,0.10319 0.08996,0.10054 0.0926,0.0953 0.0926,0.0926 0.09525,0.0873 0.0979,0.0847 0.0979,0.0794 0.0979,0.0741 0.100542,0.0714 0.0979,0.0661 0.100542,0.0609 0.100542,0.0556 0.0979,0.0503 0.09789,0.0476 0.100542,0.0397 0.09525,0.0344 0.0979,0.0291 0.0926,0.0212 0.09525,0.0185 0.08996,0.0106 0.08996,0.005 0.08731,-0.003 0.08467,-0.008 0.08202,-0.0159 0.07937,-0.0212 0.07673,-0.0291 0.07144,-0.0344 0.06879,-0.0423 0.06615,-0.0503 0.06085,-0.0582 0.01588,-0.0185 0.01058,-0.0212 0.01058,-0.0265 0.0079,-0.0291 0.0053,-0.0318 0.0026,-0.037 v -0.0397 -0.0423 l -0.0026,-0.045 -0.0053,-0.0476 -0.0079,-0.0529 -0.0079,-0.0529 -0.01323,-0.0582 -0.01323,-0.0609 -0.01323,-0.0609 -0.01852,-0.0661 -0.01852,-0.0661 -0.01852,-0.0688 -0.02381,-0.0714 -0.02381,-0.0741 -0.02381,-0.0767 -0.0291,-0.0767 -0.02911,-0.0794 -0.0291,-0.082 -0.03175,-0.082 -0.0344,-0.0847 -0.0344,-0.0873 -0.03704,-0.0873 -0.03969,-0.0873 -0.03969,-0.09 -0.03969,-0.09 -0.04233,-0.0926 -0.04498,-0.0926 -0.04498,-0.0926 -0.04498,-0.0952 -0.04762,-0.0926 -0.05027,-0.0953 -0.05027,-0.0952 -0.05027,-0.0953 -0.05292,-0.0979 -0.05292,-0.0979 -0.05556,-0.10055 -0.05292,-0.0979 -0.05292,-0.10054 -0.05292,-0.10054 -0.05027,-0.10055 -0.05027,-0.10318 -0.05027,-0.10055 -0.05027,-0.10054 -0.04762,-0.10054 -0.04762,-0.10054 -0.04498,-0.10054 -0.04498,-0.0979 -0.04233,-0.0979 -0.04498,-0.0979 -0.03969,-0.0979 -0.04233,-0.0953 -0.03704,-0.0952 -0.03969,-0.0926 -0.0344,-0.0926 -0.03704,-0.0926 -0.03175,-0.0873 -0.0344,-0.0873 -0.0291,-0.0873 -0.02911,-0.082 -0.0291,-0.08202 -0.02381,-0.07937 -0.02646,-0.07673 -0.02117,-0.07408 -0.02117,-0.07408 -0.01852,-0.06879 -0.01852,-0.06615 -0.01588,-0.0635 -0.01323,-0.06085 -0.01058,-0.05821 -0.01058,-0.05556 -0.0053,-0.05027 -0.0053,-0.04762 -0.0053,-0.04498 v -0.03969 l -0.0053,-0.119062 -0.01323,-0.111125 -0.02381,-0.100542 -0.0291,-0.08996 -0.03969,-0.08467 -0.04498,-0.07408 -0.05292,-0.06615 -0.06085,-0.05821 -0.06615,-0.04762 -0.07144,-0.04233 -0.07937,-0.0344 -0.08202,-0.02381 -0.08731,-0.01852 -0.0926,-0.01058 -0.0979,-0.0026 -0.0979,0.0053 -0.103187,0.01058 -0.105834,0.02117 -0.108479,0.02381 -0.111125,0.0344 -0.111125,0.03969 -0.113771,0.04498 -0.113771,0.05292 -0.11377,0.05821 -0.116417,0.0635 -0.113771,0.07144 -0.113771,0.07673 -0.113771,0.08202 -0.111125,0.08731 -0.108479,0.09525 -0.105833,0.0979 -0.105833,0.105833 -0.100542,0.108479 -0.0979,0.113771 -0.0926,0.121708 -0.08996,0.121709 -0.08731,0.129645 -0.07937,0.134938 -0.07408,0.137578 -0.06879,0.14023 -0.07144,0.16669 -0.06615,0.17198 -0.05821,0.17727 -0.05292,0.18521 -0.04498,0.1905 -0.03969,0.19844 -0.03175,0.20637 -0.02646,0.21167 -0.01852,0.21696 -0.01323,0.22754 -0.0053,0.23283 v 0.23813 l 0.0079,0.24606 0.01323,0.254 0.02117,0.26194 0.02646,0.26722 0.0344,0.27517 0.03969,0.28311 0.04762,0.28839 0.05292,0.29898 0.06085,0.30427 0.06879,0.31221 0.07408,0.32015 0.07937,0.32808 0.08731,0.33337 0.09525,0.34396 0.100542,0.3519 0.108479,0.35719 0.113771,0.36777 0.121708,0.37306 0.129646,0.38364 0.134938,0.39159 0.142875,0.39687 0.148166,0.40746 0.156105,0.4154 0.161395,0.42333 0.169334,0.43127 0.177271,0.44186 0.182562,0.44714 0.1905,0.45773 0.148167,0.36513 0.145521,0.37835 0.140229,0.39158 0.134937,0.39952 0.134938,0.41011 0.127,0.41804 0.124354,0.42862 0.119062,0.43128 0.116417,0.4392 0.108479,0.44186 0.105834,0.4445 0.100541,0.44714 0.09525,0.4498 0.08996,0.44714 0.08467,0.44979 0.07937,0.4445 0.07144,0.44186 0.06879,0.43921 0.06085,0.43391 0.05556,0.42598 0.05027,0.42069 0.04233,0.4101 0.0344,0.40217 0.03175,0.39158 0.02117,0.37836 0.01588,0.36777 0.01058,0.35189 v 0.33867 l -0.0053,0.32279 -0.01058,0.30427 -0.02117,0.2884 -0.0291,0.26723 -0.0344,0.24871 -0.04498,0.22754 -0.05292,0.20373 -0.06086,0.18256 -0.06879,0.15875 -0.07673,0.12965 -0.08467,0.10583 -0.09525,0.0794 -0.03175,0.0185 -0.03175,0.0106 -0.03175,0.008 -0.0291,0.003 -0.0291,-0.005 -0.02911,-0.0106 -0.02646,-0.0132 -0.02646,-0.0212 -0.02646,-0.0265 -0.02381,-0.0318 -0.02381,-0.0397 -0.02381,-0.0423 -0.02117,-0.0503 -0.02381,-0.0556 -0.01852,-0.0609 -0.02117,-0.0688 -0.01852,-0.0741 -0.01852,-0.0794 -0.01587,-0.0847 -0.01588,-0.0926 -0.01587,-0.0979 -0.01588,-0.10319 -0.01323,-0.11113 -0.01323,-0.11641 -0.01323,-0.12171 -0.01058,-0.12965 -0.01058,-0.13758 -0.01058,-0.14023 -0.0079,-0.15081 -0.0079,-0.15346 -0.0079,-0.1614 -0.0079,-0.16933 -0.0053,-0.17462 -0.0053,-0.18257 -0.0026,-0.18785 -0.0053,-0.19579 -0.0026,-0.20109 -0.0026,-0.20902 v -0.21695 -0.22225 -0.26194 l -0.0026,-0.254 -0.0053,-0.25136 -0.0053,-0.24077 -0.0079,-0.23812 -0.0079,-0.23548 -0.01058,-0.22754 -0.01323,-0.2249 -0.01588,-0.22225 -0.01852,-0.21696 -0.02117,-0.21696 -0.02117,-0.21431 -0.02646,-0.21166 -0.02646,-0.20903 -0.03175,-0.20902 -0.03175,-0.20902 -0.03704,-0.20902 -0.03969,-0.20902 -0.04233,-0.20902 -0.04498,-0.21167 -0.05027,-0.21431 -0.05292,-0.21431 -0.05556,-0.21696 -0.05821,-0.2196 -0.0635,-0.2249 -0.06879,-0.22754 -0.06879,-0.23283 -0.07673,-0.23548 -0.07673,-0.24077 -0.08467,-0.24871 -0.08731,-0.25136 -0.08996,-0.26193 -0.0979,-0.26459 -0.100542,-0.27516 -0.103187,-0.28046 -0.111125,-0.2884 -0.113771,-0.29898 -0.119062,-0.30691 -0.124355,-0.3175 -0.129645,-0.32544 -0.1905,-0.48684 -0.182563,-0.48418 -0.177271,-0.48154 -0.169333,-0.4789 -0.161396,-0.4736 -0.153458,-0.46832 -0.148167,-0.46566 -0.140229,-0.46038 -0.132292,-0.45508 -0.124354,-0.44715 -0.116417,-0.4445 -0.111125,-0.43656 -0.103187,-0.43392 -0.0926,-0.42333 -0.08731,-0.41804 -0.08202,-0.41011 -0.07144,-0.40216 -0.0635,-0.39688 -0.05556,-0.38629 -0.05027,-0.37835 -0.03969,-0.37042 -0.03175,-0.35983 -0.02646,-0.3519 -0.01587,-0.34131 -0.0079,-0.33073 -0.0026,-0.32279 0.0079,-0.30957 0.01588,-0.30162 0.02381,-0.2884 0.03175,-0.27781 0.04233,-0.26723 0.04763,-0.25135 0.05556,-0.24342 0.06615,-0.227538 0.07408,-0.216958 0.08202,-0.201084 0.0926,-0.1905 0.0979,-0.174625 0.108479,-0.161396 0.116417,-0.148166 0.08731,-0.09525 0.0979,-0.0979 0.10848,-0.105833 0.116416,-0.105834 0.127,-0.108479 0.134938,-0.113771 0.145521,-0.113771 0.148166,-0.119062 0.15875,-0.116417 0.164042,-0.121708 0.169333,-0.119063 0.171979,-0.121708 0.179917,-0.121708 0.182563,-0.121709 0.185208,-0.121708 0.1905,-0.121708 0.1905,-0.119063 0.193146,-0.119062 0.193146,-0.116417 0.193145,-0.113771 0.195792,-0.113771 0.193146,-0.108479 0.193146,-0.108479 0.1905,-0.103187 0.187854,-0.100542 0.185208,-0.09525 0.182563,-0.08996 0.177271,-0.08731 0.171979,-0.08202 0.169333,-0.07673 0.161396,-0.07144 0.156104,-0.0635 0.150813,-0.05821 0.140229,-0.05292 0.134937,-0.04233 0.124354,-0.03704 0.116417,-0.03175 0.105833,-0.02117 0.09525,-0.01323 0.08467,-0.0026 0.02646,-0.0026 0.02646,-0.0053 0.03175,-0.0079 0.0344,-0.01058 0.0344,-0.01323 0.03969,-0.01588 0.03969,-0.02117 0.04233,-0.02117 0.04498,-0.02381 0.04762,-0.02911 0.04763,-0.0291 0.05027,-0.0344 0.05292,-0.0344 0.05292,-0.03704 0.05556,-0.03969 0.05821,-0.04233 0.05821,-0.04498 0.06085,-0.04498 0.06086,-0.04762 0.0635,-0.05292 0.0635,-0.05027 0.06614,-0.05556 0.06615,-0.05556 0.06615,-0.05821 0.0661,-0.05821 0.0688,-0.06086 0.0688,-0.0635 0.0714,-0.0635 0.0688,-0.06615 0.0714,-0.06879 0.0714,-0.06615 0.0714,-0.07144 0.0714,-0.06879 0.0714,-0.07408 0.0714,-0.07144 0.0714,-0.07408 0.0714,-0.07408 0.0714,-0.07673 0.0714,-0.07673 0.0714,-0.07673 0.10054,-0.113771 0.0979,-0.105833 0.0953,-0.103188 0.0926,-0.100541 0.0926,-0.09525 0.09,-0.08996 0.09,-0.08731 0.0873,-0.08202 0.0847,-0.07937 0.0847,-0.07408 0.0847,-0.06879 0.082,-0.06879 0.082,-0.0635 0.0794,-0.05821 0.082,-0.05556 0.0794,-0.05292 0.0794,-0.05027 0.0794,-0.04498 0.0794,-0.04233 0.0767,-0.03704 0.0794,-0.03704 0.0794,-0.03175 0.0794,-0.0291 0.0794,-0.02646 0.0794,-0.02381 0.082,-0.01852 0.082,-0.01852 0.082,-0.01323 0.082,-0.01323 0.0847,-0.0079 0.0873,-0.0053 0.0873,-0.0053 h 0.0873 0.09 l 0.0926,0.0053 0.0953,0.0053 0.0952,0.0079 0.0979,0.01058 0.10054,0.01323 0.10055,0.01587 1.76212,0.27252 v -8.895291 -0.452438 l 0.003,-0.441854 0.003,-0.431271 0.003,-0.420687 0.003,-0.407459 0.005,-0.396875 0.005,-0.383645 0.008,-0.375709 0.005,-0.362479 0.0106,-0.351896 0.008,-0.341312 0.0106,-0.328084 0.0106,-0.320145 0.0132,-0.306917 0.0106,-0.298979 0.0159,-0.28575 0.0132,-0.275167 0.0159,-0.264583 0.0159,-0.254 0.0185,-0.243417 0.0159,-0.232833 0.0212,-0.22225 0.0185,-0.211667 0.0212,-0.201083 0.0212,-0.193146 0.0238,-0.179917 0.0212,-0.169333 0.0265,-0.161396 0.0238,-0.150812 0.0265,-0.14023 0.0264,-0.129645 0.0265,-0.119063 0.0291,-0.111125 0.0291,-0.0979 0.0318,-0.0926 0.0317,-0.07937 0.0318,-0.06879 0.0318,-0.06085 0.0344,-0.05292 0.0344,-0.03969 0.17727,-0.174625 0.17463,-0.150812 0.17462,-0.132292 0.17463,-0.113771 0.17198,-0.09525 0.16933,-0.07408 0.16933,-0.05556 0.16669,-0.03704 0.16669,-0.02117 h 0.16139 l 0.1614,0.01587 z m -11.059583,23.950083 -0.198437,0.04233 -0.206375,0.05556 -0.209021,0.07144 -0.216958,0.08202 -0.119063,0.08731 -0.08467,0.129646 -0.05821,0.171979 -0.0291,0.211666 -0.0026,0.246063 0.02117,0.280458 0.05027,0.306917 0.07144,0.330729 0.09525,0.354542 0.116417,0.370416 0.137583,0.386292 0.15875,0.396873 0.177271,0.40481 0.195792,0.41011 0.211666,0.4101 0.230188,0.40746 0.243417,0.40216 0.256645,0.39159 0.09261,0.14287 0.08996,0.14552 0.08731,0.14552 0.08467,0.14553 0.08202,0.14287 0.07937,0.14552 0.07408,0.14023 0.06879,0.14023 0.0635,0.13494 0.06085,0.12964 0.05556,0.127 0.04763,0.12171 0.04233,0.11377 0.0344,0.10584 0.02646,0.10054 0.02117,0.09 0.01323,0.0794 0.0053,0.0714 0.01323,0.15081 0.03969,0.14288 0.0635,0.13493 0.0847,0.127 0.10584,0.11907 0.12171,0.11112 0.14023,0.0979 0.1561,0.09 0.16669,0.0741 0.17727,0.0635 0.18521,0.0503 0.19314,0.0344 0.19844,0.0212 0.20108,0.005 0.20109,-0.0106 0.20108,-0.0318 0.19844,-0.045 0.19314,-0.0688 0.24077,-0.13494 0.1905,-0.19844 0.14552,-0.2487 0.0952,-0.30163 0.0529,-0.34925 0.008,-0.39423 -0.0344,-0.43127 -0.0794,-0.46567 -0.11906,-0.49741 -0.15875,-0.52652 -0.19844,-0.55034 -0.23813,-0.56885 -0.27252,-0.58738 -0.31221,-0.597951 -0.34395,-0.605896 -0.37836,-0.608542 -0.41275,-0.611187 -0.4445,-0.608542 -0.13494,-0.164042 -0.13758,-0.150812 -0.140204,-0.134938 -0.142875,-0.119062 -0.150813,-0.105833 -0.150812,-0.08731 -0.15875,-0.07673 -0.161396,-0.06085 -0.166688,-0.04498 -0.171979,-0.02911 -0.174625,-0.01587 -0.182562,-0.0026 -0.187855,0.01323 z m 5.064123,3.881441 0.13759,0.4736 0.30956,0.74083 0.21431,0.40482 0.254,0.35189 0.27517,0.28311 0.2831,0.20637 0.27781,0.11642 0.25136,0.0106 0.60325,-0.2196 0.3466,-0.32544 0.0926,-0.39688 -0.16405,-0.43656 -0.41539,-0.43921 -0.6694,-0.40745 -0.86518,-0.38894 -0.56886,-0.20373 -0.29898,0.003 z m -1.03187,-5.151441 -0.32544,0.07144 -0.27517,0.09525 -0.20902,0.11377 -0.13229,0.127 -0.0476,0.14023 -0.003,0.150812 -0.0106,0.15875 -0.0159,0.15875 -0.0212,0.156104 -0.0264,0.148167 -0.0318,0.127 -0.0371,0.105833 0.0132,0.08202 0.11377,0.08467 0.1958,0.08467 0.27516,0.08202 0.33602,0.07408 0.39159,0.0635 0.43656,0.04762 0.58473,0.03175 0.46037,-0.01323 0.34661,-0.0635 0.24606,-0.124354 0.15875,-0.193146 0.0847,-0.264583 0.0265,-0.34925 -0.0291,-0.341312 -0.0873,-0.275167 -0.1614,-0.209021 -0.23548,-0.153458 -0.32014,-0.103188 -0.4154,-0.05821 -0.51329,-0.01587 -0.40217,0.01587 z m 5.969,-21.370396 -0.0582,0.0079 -0.0556,0.01058 -0.0529,0.01323 -0.0476,0.01852 -0.045,0.01852 -0.0423,0.02381 -0.0397,0.02646 -0.0344,0.0291 -0.0318,0.03175 -0.0265,0.0344 -0.0238,0.03969 -0.0159,0.03969 -0.0132,0.04498 -0.008,0.04763 -0.003,0.05292 -0.0344,1.16152 -0.0318,1.121834 -0.0291,1.082146 -0.0265,1.045104 -0.0238,1.008062 -0.0212,0.968375 -0.0159,0.933979 -0.0159,0.896938 -0.0132,0.862542 -0.0106,0.8255 -0.008,0.791104 -0.005,0.756708 -0.003,0.722313 0.003,0.690562 0.003,0.658813 0.005,0.624416 0.0106,0.595313 0.0106,0.560916 0.0159,0.531813 0.0185,0.502708 0.0212,0.473604 0.0212,0.441855 0.0291,0.415395 0.0291,0.388938 0.0318,0.359833 0.037,0.330729 0.0371,0.306917 0.0423,0.280458 0.045,0.254 0.0476,0.230188 0.0503,0.206375 0.0556,0.182562 0.0556,0.15875 0.0609,0.134938 0.0635,0.113771 0.0662,0.0926 0.0714,0.06879 0.0741,0.05027 0.0741,0.02911 0.082,0.01058 h 0.0476 l 0.0503,0.0026 0.0529,0.0053 0.0529,0.0053 0.0529,0.0079 0.0556,0.01058 0.0556,0.01058 0.0582,0.01323 0.0582,0.01323 0.0582,0.01587 0.0609,0.01588 0.0582,0.01852 0.0609,0.02117 0.0609,0.02117 0.0609,0.02117 0.0635,0.02381 0.0609,0.02646 0.0635,0.02646 0.0609,0.02646 0.0635,0.0291 0.0609,0.0291 0.0635,0.03175 0.0609,0.03175 0.0609,0.03175 0.0609,0.0344 0.0609,0.0344 0.0609,0.0344 0.0608,0.03704 0.0582,0.03704 0.0582,0.03704 0.0582,0.03969 0.0556,0.03969 0.0556,0.03969 0.0556,0.03969 0.0529,0.04233 0.0529,0.03969 0.0503,0.04233 0.0503,0.04233 0.0476,0.04233 0.0476,0.04498 0.0847,0.07408 0.0794,0.07144 0.0767,0.06879 0.0714,0.0635 0.0661,0.05821 0.0635,0.05556 0.0609,0.04762 0.0556,0.04498 0.0529,0.04233 0.0503,0.03439 0.045,0.02911 0.0423,0.02381 0.0397,0.02117 0.0344,0.01323 0.0317,0.0079 h 0.0291 l 0.0265,-0.0026 0.0238,-0.01058 0.0185,-0.01588 0.0159,-0.02117 0.0159,-0.02911 0.0106,-0.03704 0.008,-0.04233 0.005,-0.04762 0.005,-0.05821 v -0.06085 l -0.003,-0.07144 -0.003,-0.07673 -0.008,-0.08731 -0.008,-0.0926 -0.0106,-0.100542 -0.0132,-0.108479 -0.0159,-0.116417 -0.0185,-0.124354 -0.0185,-0.132292 -0.0212,-0.140229 -0.0212,-0.150812 -0.0265,-0.15875 -0.0265,-0.166688 -0.0265,-0.177271 -0.0159,-0.103187 -0.0159,-0.113771 -0.0132,-0.119063 -0.0159,-0.127 -0.0159,-0.134937 -0.0132,-0.140229 -0.0159,-0.148167 -0.0132,-0.153458 -0.0132,-0.161396 -0.0132,-0.166688 -0.0159,-0.169333 -0.0132,-0.177271 -0.0106,-0.182562 -0.0132,-0.187854 -0.0132,-0.1905 -0.0106,-0.195792 -0.0132,-0.198438 -0.0106,-0.203729 -0.0106,-0.206375 -0.0106,-0.209021 -0.0106,-0.214312 -0.0106,-0.214313 -0.0106,-0.216958 -0.008,-0.22225 -0.008,-0.22225 -0.008,-0.22225 -0.008,-0.224896 -0.008,-0.227541 -0.005,-0.227542 -0.008,-0.227542 -0.005,-0.227541 -0.005,-0.230188 -0.005,-0.227542 -0.003,-0.227541 -0.003,-0.227542 -0.003,-0.227542 -0.003,-0.224895 -0.003,-0.224896 v -0.22225 -0.219604 -5.331355 l -1.6166,-0.0926 -0.10055,-0.0026 -0.0953,-0.0053 -0.0926,-0.0053 -0.0847,-0.0053 -0.082,-0.0026 -0.0767,-0.0053 -0.0714,-0.0053 -0.0661,-0.0053 -0.0609,-0.0053 -0.0582,-0.0053 -0.0529,-0.0053 -0.0476,-0.0053 -0.0423,-0.0053 -0.037,-0.0053 -0.0318,-0.0079 -0.0291,-0.0053 -0.0238,-0.0053 -0.0185,-0.0079 -0.0132,-0.0079 -0.008,-0.0053 -0.005,-0.0079 v -0.0079 l 0.005,-0.0079 0.0106,-0.01058 0.0159,-0.0079 0.0185,-0.0079 0.0238,-0.01058 0.0291,-0.01058 0.0317,-0.01058 0.0397,-0.01058 0.0423,-0.01058 0.0476,-0.01058 0.0503,-0.01323 0.0556,-0.01323 0.0609,-0.01323 0.0661,-0.01323 0.0714,-0.01323 0.0741,-0.01588 0.0794,-0.01323 0.082,-0.01588 0.11112,-0.03175 0.10584,-0.05027 0.10318,-0.0635 0.0979,-0.08202 0.0953,-0.09261 0.09,-0.111125 0.0847,-0.121708 0.082,-0.134937 0.0767,-0.145521 0.0714,-0.156104 0.0688,-0.166688 0.0635,-0.174625 0.0582,-0.185208 0.0529,-0.1905 0.0476,-0.198438 0.045,-0.203729 0.037,-0.211667 0.0344,-0.211666 0.0291,-0.219604 0.0212,-0.219605 0.0185,-0.22225 0.0132,-0.224895 0.005,-0.224896 0.003,-0.22225 -0.005,-0.22225 -0.0106,-0.22225 -0.0159,-0.216959 -0.0212,-0.216958 -0.0265,-0.209021 -0.0344,-0.206375 -0.0397,-0.201083 -0.0476,-0.1905 -0.0503,-0.187854 -0.0582,-0.177271 -0.0661,-0.169333 -0.0714,-0.15875 -0.0767,-0.148167 -0.0847,-0.134938 -0.0926,-0.124354 -0.0979,-0.113771 -0.0609,-0.06085 -0.0608,-0.05556 -0.0662,-0.05556 -0.0661,-0.05292 -0.0688,-0.05027 -0.0688,-0.04762 -0.0714,-0.04498 -0.0714,-0.04233 -0.0741,-0.03969 -0.0741,-0.03704 -0.0741,-0.0344 -0.0741,-0.03175 -0.0741,-0.0291 -0.0741,-0.02646 -0.0741,-0.02381 -0.0741,-0.02117 -0.0741,-0.01852 -0.0714,-0.01323 -0.0688,-0.01323 -0.0714,-0.0079 -0.0661,-0.0079 -0.0688,-0.0026 -0.0635,-0.0026 -0.0635,0.0026 z m -5.1144,19.118792 -0.57944,0.301625 -0.20637,0.148167 -0.11377,0.137583 -0.0185,0.127 0.0767,0.121708 0.17991,0.116417 0.28046,0.116417 0.38894,0.116416 0.93662,0.224896 0.77523,0.127 0.60854,0.0291 0.43921,-0.07144 0.26988,-0.174625 0.0979,-0.275167 -0.0741,-0.378354 -0.24606,-0.381 -0.41011,-0.280458 -0.52916,-0.174625 -0.60325,-0.06086 -0.64029,0.05556 z"
         style="fill:#000000;fill-opacity:1;stroke-width:0.26458332" />
      <g
         id="g30">
        <path
           inkscape:connector-curvature="0"
           id="use28"
           d="m 109.14327,72.551396 0.15346,0.05027 0.15346,0.06879 0.14816,0.08467 0.14552,0.100542 0.14288,0.116416 0.13758,0.134938 0.13494,0.148166 0.12965,0.164042 0.12435,0.179917 0.12171,0.193146 0.11642,0.20902 0.11112,0.224896 0.10583,0.238125 0.10055,0.251354 0.0952,0.264584 0.0873,0.277812 0.0847,0.291042 0.0767,0.304271 0.0714,0.314854 0.0635,0.330729 0.0556,0.341313 0.0503,0.351895 0.045,0.36248 0.0344,0.375708 0.0291,0.386292 0.0185,0.396875 0.0132,0.407458 0.005,0.418042 v 0.785812 l 0.008,0.777875 0.0106,0.775229 0.0132,0.767292 0.0185,0.762 0.0212,0.756708 0.0265,0.748771 0.0291,0.740833 0.0344,0.73025 0.037,0.722313 0.0397,0.714375 0.045,0.701146 0.045,0.693208 0.0529,0.679979 0.0529,0.669396 0.0582,0.656167 0.0582,0.642937 0.0635,0.629709 0.0688,0.616479 0.0688,0.600604 0.0714,0.587375 0.0767,0.568854 0.0767,0.552979 0.082,0.537104 0.082,0.52123 0.0873,0.500062 0.0873,0.481542 0.0926,0.463021 0.0926,0.4445 0.0952,0.423333 0.10054,0.402167 0.10055,0.381 0.10054,0.359833 0.10583,0.336024 0.10583,0.3122 0.10848,0.29105 0.11113,0.26458 0.11112,0.24077 0.11642,0.21431 0.11377,0.18786 0.13494,0.20637 0.127,0.19315 0.11906,0.18256 0.11113,0.17462 0.10583,0.16669 0.10054,0.1614 0.09,0.15346 0.0847,0.14816 0.0767,0.14552 0.0688,0.14288 0.0609,0.14287 0.0529,0.14023 0.045,0.14023 0.0397,0.14288 0.0291,0.14287 0.0212,0.14817 0.0132,0.15346 0.003,0.15875 -0.003,0.16404 -0.0132,0.17198 -0.0212,0.18256 -0.0318,0.1905 -0.037,0.20108 -0.0503,0.21167 -0.0556,0.22754 -0.0688,0.23813 -0.0767,0.25664 -0.0847,0.26988 -0.0953,0.28575 -0.10584,0.30427 -0.11377,0.32544 -0.12435,0.34395 -0.13494,0.36513 -0.14552,0.38629 -0.1561,0.41011 -0.16405,0.43391 -0.17727,0.46038 -0.18785,0.48418 -0.19579,0.5133 -0.20902,0.53975 -0.17198,0.44979 -0.16669,0.4445 -0.15875,0.43921 -0.15081,0.43391 -0.14552,0.42863 -0.13759,0.42333 -0.12964,0.41804 -0.12436,0.4154 -0.11641,0.40746 -0.10848,0.40481 -0.10319,0.39952 -0.0953,0.39423 -0.09,0.38894 -0.082,0.38629 -0.0741,0.381 -0.0688,0.37835 -0.0609,0.37307 -0.0556,0.36777 -0.0476,0.36512 -0.0397,0.35983 -0.0344,0.35719 -0.0291,0.3519 -0.0185,0.34925 -0.0132,0.3466 -0.008,0.34131 v 0.33867 l 0.008,0.33602 0.0132,0.33338 0.0185,0.32808 0.0264,0.32544 0.0344,0.32279 0.0397,0.3175 0.0476,0.3175 0.0529,0.31221 0.0609,0.31221 0.0688,0.30691 0.0741,0.30692 0.0794,0.30162 0.0873,0.30163 0.0926,0.29898 0.005,0.0159 0.003,0.0159 v 0.0185 l 0.003,0.0159 v 0.0185 0.0185 l -0.003,0.0185 -0.003,0.0185 -0.003,0.0185 -0.005,0.0185 -0.005,0.0185 -0.005,0.0212 -0.008,0.0185 -0.008,0.0185 -0.008,0.0212 -0.0106,0.0185 -0.008,0.0212 -0.0132,0.0185 -0.0106,0.0185 -0.0132,0.0212 -0.0106,0.0185 -0.0159,0.0185 -0.0132,0.0212 -0.0159,0.0185 -0.0159,0.0185 -0.0159,0.0185 -0.0159,0.0159 -0.0185,0.0185 -0.0185,0.0185 -0.0185,0.0159 -0.0185,0.0185 -0.0212,0.0159 -0.0212,0.0159 -0.0212,0.0132 -0.0212,0.0159 -0.0212,0.0132 -0.0238,0.0132 -0.0212,0.0132 -0.0238,0.0132 -0.0238,0.0132 -0.15611,0.0635 -0.14552,0.0212 -0.13758,-0.0159 -0.12435,-0.0529 -0.11642,-0.09 -0.10848,-0.12435 -0.0979,-0.15875 -0.0873,-0.1905 -0.0767,-0.21961 -0.0688,-0.25135 -0.0609,-0.27781 -0.0503,-0.30427 -0.0423,-0.33073 -0.0318,-0.3519 -0.0238,-0.37571 -0.0132,-0.39687 -0.005,-0.4154 0.003,-0.43392 0.0132,-0.45243 0.0185,-0.46567 0.0291,-0.4789 0.037,-0.49212 0.0476,-0.50271 0.0529,-0.51329 0.0635,-0.52123 0.0714,-0.52652 0.0767,-0.53446 0.0873,-0.5371 0.0952,-0.53975 0.10319,-0.53975 0.10848,-0.5424 0.11906,-0.5371 0.12435,-0.53711 0.13494,-0.53181 0.14023,-0.52387 0.14817,-0.51859 0.1561,-0.51064 0.1614,-0.50007 0.16933,-0.48683 0.17727,-0.47625 0.21431,-0.55298 0.20373,-0.52387 0.19315,-0.49742 0.18256,-0.46831 0.17198,-0.44186 0.15875,-0.41804 0.14817,-0.39423 0.14023,-0.37306 0.127,-0.34925 0.11641,-0.33073 0.10584,-0.31221 0.0979,-0.29369 0.0847,-0.27781 0.0741,-0.26458 0.0635,-0.24871 0.0529,-0.23812 0.0423,-0.2249 0.0317,-0.21431 0.0212,-0.20638 0.0132,-0.19844 v -0.1905 l -0.0106,-0.18785 -0.0185,-0.18256 -0.0291,-0.17727 -0.0423,-0.17992 -0.0503,-0.17727 -0.0609,-0.17727 -0.0714,-0.17992 -0.082,-0.18256 -0.09,-0.18785 -0.10055,-0.1905 -0.11377,-0.20109 -0.12171,-0.20637 -0.12964,-0.21696 -0.14288,-0.22754 -0.15081,-0.23813 -0.16139,-0.25135 -0.17198,-0.26723 -0.18257,-0.28046 -0.1905,-0.29898 -0.24077,-0.37306 -0.24341,-0.359833 -0.24342,-0.346604 -0.24342,-0.333375 -0.24341,-0.320146 -0.24342,-0.309563 -0.24077,-0.293687 -0.24077,-0.280459 -0.23813,-0.267229 -0.23812,-0.251354 -0.23548,-0.240771 -0.23283,-0.224896 -0.23284,-0.20902 -0.22754,-0.195792 -0.2249,-0.182563 -0.22225,-0.166687 -0.2196,-0.153458 -0.21431,-0.134938 -0.20902,-0.124354 -0.20902,-0.105833 -0.20109,-0.09261 -0.19579,-0.07673 -0.19314,-0.06085 -0.18521,-0.04498 -0.18257,-0.0291 -0.17462,-0.01323 -0.16933,0.0053 -0.1614,0.01852 -0.1561,0.0344 -0.14817,0.05292 -0.14288,0.06879 -0.13229,0.08467 -0.127,0.103187 -0.11906,0.119063 -0.10848,0.134937 -0.10319,0.153459 -0.0926,0.171979 -0.082,0.187854 -0.0741,0.206375 -0.0635,0.224896 -0.0212,0.07144 -0.0212,0.06879 -0.0212,0.06615 -0.0212,0.0635 -0.0212,0.05821 -0.0238,0.05821 -0.0238,0.05556 -0.0238,0.05027 -0.0238,0.05027 -0.0265,0.04498 -0.0264,0.04498 -0.0291,0.03969 -0.0291,0.03704 -0.0317,0.03704 -0.0318,0.03175 -0.0344,0.03175 -0.0344,0.02646 -0.037,0.02646 -0.037,0.02381 -0.0397,0.02117 -0.0423,0.01852 -0.0423,0.01587 -0.0476,0.01323 -0.0476,0.01058 -0.0476,0.0079 -0.0529,0.0079 -0.0529,0.0026 -0.0556,0.0026 h -0.0582 -0.0609 l -0.0635,-0.0053 -0.0661,-0.0053 -0.0688,-0.01058 -0.0714,-0.01058 -0.0714,-0.01058 -0.0767,-0.01587 -0.0794,-0.01588 -0.0847,-0.01852 -0.0847,-0.01852 -0.09,-0.02381 -0.16934,-0.04233 -0.15875,-0.03704 -0.15081,-0.03175 -0.13758,-0.02646 -0.127,-0.02117 -0.11907,-0.01588 -0.10583,-0.01323 -0.0953,-0.0053 -0.0873,-0.0026 -0.0767,0.0026 -0.0635,0.0079 -0.0556,0.01058 -0.045,0.01852 -0.0344,0.01852 -0.0265,0.02646 -0.0159,0.02646 -0.005,0.0344 0.005,0.03704 0.0132,0.03969 0.0238,0.04233 0.0344,0.04762 0.0423,0.05292 0.0529,0.05292 0.0609,0.05821 0.0714,0.06085 0.082,0.0635 0.09,0.06615 0.0979,0.06879 0.10584,0.07144 0.11906,0.07673 0.12435,0.07673 0.13494,0.07937 0.14288,0.08202 0.15081,0.08467 0.16139,0.08467 0.16934,0.08996 0.17727,0.08996 0.18785,0.08996 0.19315,0.09525 0.20373,0.09525 0.16404,0.07673 0.15875,0.07408 0.15346,0.07144 0.14552,0.06615 0.13758,0.06085 0.13229,0.05821 0.127,0.05556 0.12171,0.05027 0.11642,0.04498 0.11112,0.04498 0.10584,0.037 0.10054,0.037 0.0979,0.0291 0.0926,0.0291 0.0873,0.0238 0.0847,0.0185 0.082,0.0185 0.0794,0.0106 0.0741,0.0106 0.0741,0.005 h 0.0688 0.0688 l 0.0661,-0.008 0.0661,-0.008 0.0609,-0.0132 0.0635,-0.0159 0.0609,-0.0212 0.0609,-0.0238 0.0582,-0.0264 0.0609,-0.0291 0.0609,-0.0344 0.0582,-0.037 0.0609,-0.04233 0.0608,-0.04498 0.0635,-0.04762 0.0635,-0.05027 0.0661,-0.05556 0.0661,-0.05821 0.0688,-0.06085 0.0714,-0.0635 0.0423,-0.03969 0.0423,-0.03969 0.0397,-0.03704 0.0423,-0.0344 0.0397,-0.0344 0.0397,-0.03175 0.037,-0.03175 0.0397,-0.0291 0.037,-0.02646 0.037,-0.02646 0.037,-0.02381 0.0344,-0.02381 0.0344,-0.01852 0.0344,-0.02117 0.0344,-0.01587 0.0318,-0.01587 0.0317,-0.01323 0.0318,-0.01323 0.0291,-0.01058 0.0291,-0.0079 0.0265,-0.0079 0.0265,-0.0053 0.0264,-0.0026 0.0238,-0.0026 h 0.0212 0.0238 l 0.0185,0.0053 0.0212,0.0026 0.0185,0.0079 0.0159,0.0079 0.0132,0.01058 0.0159,0.01323 0.0106,0.01323 0.0106,0.01587 0.0106,0.01587 0.008,0.02117 0.005,0.02117 0.003,0.02117 0.003,0.02646 0.003,0.02646 v 0.02646 l -0.003,0.0291 -0.003,0.02646 -0.003,0.0291 -0.005,0.0291 -0.005,0.0291 -0.005,0.0291 -0.008,0.02911 -0.005,0.0291 -0.0106,0.0291 -0.008,0.0291 -0.0106,0.0291 -0.0106,0.0291 -0.0132,0.02911 -0.0106,0.0291 -0.0132,0.0291 -0.0132,0.0291 -0.0159,0.0291 -0.0132,0.02646 -0.0159,0.0291 -0.0185,0.0291 -0.0159,0.02646 -0.0159,0.02646 -0.0185,0.02646 -0.0185,0.02645 -0.0185,0.0265 -0.0212,0.0265 -0.0185,0.0238 -0.0212,0.0238 -0.0212,0.0238 -0.0212,0.0238 -0.0212,0.0238 -0.0238,0.0212 -0.0212,0.0212 -0.0238,0.0212 -0.0212,0.0185 -0.0238,0.0212 -0.0238,0.0159 -0.0238,0.0185 -0.0238,0.0159 -0.0847,0.0582 -0.0794,0.0609 -0.0714,0.0662 -0.0635,0.0688 -0.0582,0.0741 -0.0529,0.0794 -0.045,0.0794 -0.0397,0.0847 -0.0318,0.09 -0.0264,0.09 -0.0212,0.0952 -0.0132,0.0979 -0.008,0.0979 -0.003,0.10319 0.005,0.10583 0.008,0.10583 0.0159,0.10848 0.0238,0.11113 0.0265,0.11377 0.0344,0.11641 0.0397,0.11378 0.045,0.11906 0.0503,0.11906 0.0556,0.11906 0.0609,0.11907 0.0662,0.1217 0.0741,0.12171 0.0767,0.12171 0.0847,0.12435 0.0873,0.12171 0.0952,0.12171 0.0979,0.12436 0.10318,0.1217 0.11113,0.11907 0.11377,0.1217 0.11906,0.11907 0.12436,0.11906 0.127,0.11906 0.13493,0.11642 0.13759,0.11377 0.0979,0.082 0.0926,0.0794 0.09,0.0767 0.0847,0.0741 0.082,0.0714 0.0794,0.0714 0.0741,0.0662 0.0688,0.0661 0.0662,0.0635 0.0635,0.0609 0.0582,0.0582 0.0556,0.0582 0.0503,0.0529 0.0476,0.0529 0.045,0.0503 0.0397,0.0476 0.0344,0.0476 0.0318,0.0423 0.0291,0.0423 0.0238,0.0397 0.0212,0.037 0.0185,0.037 0.0132,0.0344 0.008,0.0317 0.005,0.0291 0.003,0.0265 -0.003,0.0264 -0.005,0.0238 -0.0106,0.0212 -0.0132,0.0212 -0.0159,0.0185 -0.0212,0.0159 -0.0264,0.0132 -0.0265,0.0132 -0.0344,0.008 -0.0344,0.0106 -0.0397,0.005 -0.045,0.005 -0.045,0.003 h -0.0529 -0.0397 l -0.0423,-0.005 -0.0423,-0.005 -0.045,-0.0106 -0.0476,-0.0106 -0.0476,-0.0132 -0.0476,-0.0159 -0.0503,-0.0185 -0.0529,-0.0212 -0.0503,-0.0212 -0.0529,-0.0265 -0.0556,-0.0265 -0.0529,-0.0291 -0.0556,-0.0291 -0.0556,-0.0344 -0.0582,-0.0344 -0.0556,-0.0344 -0.0582,-0.0397 -0.0582,-0.0397 -0.0582,-0.0423 -0.0582,-0.0423 -0.0582,-0.045 -0.0609,-0.045 -0.0582,-0.0476 -0.0582,-0.0503 -0.0582,-0.0503 -0.0582,-0.0503 -0.0582,-0.0529 -0.0582,-0.0556 -0.0556,-0.0529 -0.0582,-0.0582 -0.0556,-0.0556 -0.0556,-0.0582 -0.0556,-0.0609 -0.0529,-0.0582 -0.0529,-0.0609 -0.0529,-0.0635 -0.0503,-0.0609 -0.0503,-0.0635 -0.0503,-0.0635 -1.17475,-1.5531 -1.29117,1.79652 -0.0952,0.13493 -0.0979,0.127 -0.0952,0.12171 -0.0979,0.11642 -0.0952,0.10848 -0.10054,0.10319 -0.10319,0.0979 -0.10319,0.0926 -0.10848,0.0873 -0.11377,0.082 -0.11641,0.0741 -0.12171,0.0714 -0.12965,0.0661 -0.13494,0.0609 -0.14022,0.0529 -0.15082,0.0503 -0.1561,0.045 -0.16669,0.0397 -0.17462,0.0371 -0.18786,0.0318 -0.19579,0.0238 -0.20637,0.0238 -0.21696,0.0159 -0.23019,0.0132 -0.24342,0.0106 -0.25929,0.003 -0.26987,0.003 -0.28575,-0.005 -0.29898,-0.005 -0.3175,-0.0106 -0.33073,-0.0159 -0.34925,-0.0185 -0.367773,-0.0212 -0.383645,-0.0265 -0.402167,-0.0291 -0.423333,-0.0318 -0.441855,-0.0344 -0.460375,-0.037 -0.484187,-0.0423 -0.502708,-0.045 -0.05292,-0.0106 -0.05821,-0.0238 -0.0635,-0.037 -0.07144,-0.0476 -0.07673,-0.0582 -0.07937,-0.0688 -0.08467,-0.0794 -0.08996,-0.0873 -0.0926,-0.0979 -0.09525,-0.10319 -0.0979,-0.11377 -0.103188,-0.11906 -0.103187,-0.12435 -0.103188,-0.12965 -0.105833,-0.13758 -0.108479,-0.14023 -0.105833,-0.14288 -0.10848,-0.14816 -0.108479,-0.15082 -0.105833,-0.15081 -0.103188,-0.1561 -0.103187,-0.15346 -0.103188,-0.1561 -0.0979,-0.15346 -0.09525,-0.15346 -0.09525,-0.15346 -0.08731,-0.14817 -0.08467,-0.14816 -0.08202,-0.14552 -0.07673,-0.14023 -0.06879,-0.13494 -0.06615,-0.13229 -0.05821,-0.12436 -0.05292,-0.11906 -0.04498,-0.11112 -0.03704,-0.10584 -0.03175,-0.0952 -0.02117,-0.09 -0.01323,-0.0794 -0.0053,-0.0688 0.0026,-0.0767 0.0053,-0.0714 0.01058,-0.0635 0.01323,-0.0582 0.01852,-0.0476 0.02117,-0.045 0.02381,-0.0344 0.02646,-0.0291 0.0291,-0.0238 0.0344,-0.0159 0.0344,-0.0106 0.03969,-0.003 0.03969,0.003 0.04233,0.008 0.04498,0.0132 0.04762,0.0185 0.05027,0.0264 0.05027,0.0291 0.05027,0.037 0.05556,0.0397 0.05292,0.0476 0.05556,0.0503 0.05821,0.0556 0.05556,0.0609 0.05821,0.0635 0.05821,0.0688 0.05821,0.0741 0.06085,0.0767 0.05821,0.082 0.05821,0.0847 0.05821,0.09 0.05821,0.0926 0.05821,0.0979 0.05556,0.0979 0.05556,0.10318 0.05556,0.10848 0.05292,0.10848 0.05292,0.11113 0.05027,0.11641 0.05027,0.11642 0.05556,0.13229 0.05821,0.12965 0.0635,0.127 0.06879,0.12435 0.07144,0.12171 0.07408,0.11906 0.07673,0.11642 0.07937,0.11112 0.08467,0.11113 0.08467,0.10583 0.08996,0.10319 0.08996,0.10054 0.0926,0.0953 0.0926,0.0926 0.09525,0.0873 0.0979,0.0847 0.0979,0.0794 0.0979,0.0741 0.100542,0.0714 0.0979,0.0661 0.100542,0.0609 0.100542,0.0556 0.0979,0.0503 0.09789,0.0476 0.100542,0.0397 0.09525,0.0344 0.0979,0.0291 0.0926,0.0212 0.09525,0.0185 0.08996,0.0106 0.08996,0.005 0.08731,-0.003 0.08467,-0.008 0.08202,-0.0159 0.07937,-0.0212 0.07673,-0.0291 0.07144,-0.0344 0.06879,-0.0423 0.06615,-0.0503 0.06085,-0.0582 0.01588,-0.0185 0.01058,-0.0212 0.01058,-0.0265 0.0079,-0.0291 0.0053,-0.0318 0.0026,-0.037 v -0.0397 -0.0423 l -0.0026,-0.045 -0.0053,-0.0476 -0.0079,-0.0529 -0.0079,-0.0529 -0.01323,-0.0582 -0.01323,-0.0609 -0.01323,-0.0609 -0.01852,-0.0661 -0.01852,-0.0661 -0.01852,-0.0688 -0.02381,-0.0714 -0.02381,-0.0741 -0.02381,-0.0767 -0.0291,-0.0767 -0.02911,-0.0794 -0.0291,-0.082 -0.03175,-0.082 -0.0344,-0.0847 -0.0344,-0.0873 -0.03704,-0.0873 -0.03969,-0.0873 -0.03969,-0.09 -0.03969,-0.09 -0.04233,-0.0926 -0.04498,-0.0926 -0.04498,-0.0926 -0.04498,-0.0952 -0.04762,-0.0926 -0.05027,-0.0953 -0.05027,-0.0952 -0.05027,-0.0953 -0.05292,-0.0979 -0.05292,-0.0979 -0.05556,-0.10055 -0.05292,-0.0979 -0.05292,-0.10054 -0.05292,-0.10054 -0.05027,-0.10055 -0.05027,-0.10318 -0.05027,-0.10055 -0.05027,-0.10054 -0.04762,-0.10054 -0.04762,-0.10054 -0.04498,-0.10054 -0.04498,-0.0979 -0.04233,-0.0979 -0.04498,-0.0979 -0.03969,-0.0979 -0.04233,-0.0953 -0.03704,-0.0952 -0.03969,-0.0926 -0.0344,-0.0926 -0.03704,-0.0926 -0.03175,-0.0873 -0.0344,-0.0873 -0.0291,-0.0873 -0.02911,-0.082 -0.0291,-0.08202 -0.02381,-0.07937 -0.02646,-0.07673 -0.02117,-0.07408 -0.02117,-0.07408 -0.01852,-0.06879 -0.01852,-0.06615 -0.01588,-0.0635 -0.01323,-0.06085 -0.01058,-0.05821 -0.01058,-0.05556 -0.0053,-0.05027 -0.0053,-0.04762 -0.0053,-0.04498 v -0.03969 l -0.0053,-0.119062 -0.01323,-0.111125 -0.02381,-0.100542 -0.0291,-0.08996 -0.03969,-0.08467 -0.04498,-0.07408 -0.05292,-0.06615 -0.06085,-0.05821 -0.06615,-0.04762 -0.07144,-0.04233 -0.07937,-0.0344 -0.08202,-0.02381 -0.08731,-0.01852 -0.0926,-0.01058 -0.0979,-0.0026 -0.0979,0.0053 -0.103187,0.01058 -0.105834,0.02117 -0.108479,0.02381 -0.111125,0.0344 -0.111125,0.03969 -0.113771,0.04498 -0.113771,0.05292 -0.11377,0.05821 -0.116417,0.0635 -0.113771,0.07144 -0.113771,0.07673 -0.113771,0.08202 -0.111125,0.08731 -0.108479,0.09525 -0.105833,0.0979 -0.105833,0.105833 -0.100542,0.108479 -0.0979,0.113771 -0.0926,0.121708 -0.08996,0.121709 -0.08731,0.129645 -0.07937,0.134938 -0.07408,0.137578 -0.06879,0.14023 -0.07144,0.16669 -0.06615,0.17198 -0.05821,0.17727 -0.05292,0.18521 -0.04498,0.1905 -0.03969,0.19844 -0.03175,0.20637 -0.02646,0.21167 -0.01852,0.21696 -0.01323,0.22754 -0.0053,0.23283 v 0.23813 l 0.0079,0.24606 0.01323,0.254 0.02117,0.26194 0.02646,0.26722 0.0344,0.27517 0.03969,0.28311 0.04762,0.28839 0.05292,0.29898 0.06085,0.30427 0.06879,0.31221 0.07408,0.32015 0.07937,0.32808 0.08731,0.33337 0.09525,0.34396 0.100542,0.3519 0.108479,0.35719 0.113771,0.36777 0.121708,0.37306 0.129646,0.38364 0.134938,0.39159 0.142875,0.39687 0.148166,0.40746 0.156105,0.4154 0.161395,0.42333 0.169334,0.43127 0.177271,0.44186 0.182562,0.44714 0.1905,0.45773 0.148167,0.36513 0.145521,0.37835 0.140229,0.39158 0.134937,0.39952 0.134938,0.41011 0.127,0.41804 0.124354,0.42862 0.119062,0.43128 0.116417,0.4392 0.108479,0.44186 0.105834,0.4445 0.100541,0.44714 0.09525,0.4498 0.08996,0.44714 0.08467,0.44979 0.07937,0.4445 0.07144,0.44186 0.06879,0.43921 0.06085,0.43391 0.05556,0.42598 0.05027,0.42069 0.04233,0.4101 0.0344,0.40217 0.03175,0.39158 0.02117,0.37836 0.01588,0.36777 0.01058,0.35189 v 0.33867 l -0.0053,0.32279 -0.01058,0.30427 -0.02117,0.2884 -0.0291,0.26723 -0.0344,0.24871 -0.04498,0.22754 -0.05292,0.20373 -0.06086,0.18256 -0.06879,0.15875 -0.07673,0.12965 -0.08467,0.10583 -0.09525,0.0794 -0.03175,0.0185 -0.03175,0.0106 -0.03175,0.008 -0.0291,0.003 -0.0291,-0.005 -0.02911,-0.0106 -0.02646,-0.0132 -0.02646,-0.0212 -0.02646,-0.0265 -0.02381,-0.0318 -0.02381,-0.0397 -0.02381,-0.0423 -0.02117,-0.0503 -0.02381,-0.0556 -0.01852,-0.0609 -0.02117,-0.0688 -0.01852,-0.0741 -0.01852,-0.0794 -0.01587,-0.0847 -0.01588,-0.0926 -0.01587,-0.0979 -0.01588,-0.10319 -0.01323,-0.11113 -0.01323,-0.11641 -0.01323,-0.12171 -0.01058,-0.12965 -0.01058,-0.13758 -0.01058,-0.14023 -0.0079,-0.15081 -0.0079,-0.15346 -0.0079,-0.1614 -0.0079,-0.16933 -0.0053,-0.17462 -0.0053,-0.18257 -0.0026,-0.18785 -0.0053,-0.19579 -0.0026,-0.20109 -0.0026,-0.20902 v -0.21695 -0.22225 -0.26194 l -0.0026,-0.254 -0.0053,-0.25136 -0.0053,-0.24077 -0.0079,-0.23812 -0.0079,-0.23548 -0.01058,-0.22754 -0.01323,-0.2249 -0.01588,-0.22225 -0.01852,-0.21696 -0.02117,-0.21696 -0.02117,-0.21431 -0.02646,-0.21166 -0.02646,-0.20903 -0.03175,-0.20902 -0.03175,-0.20902 -0.03704,-0.20902 -0.03969,-0.20902 -0.04233,-0.20902 -0.04498,-0.21167 -0.05027,-0.21431 -0.05292,-0.21431 -0.05556,-0.21696 -0.05821,-0.2196 -0.0635,-0.2249 -0.06879,-0.22754 -0.06879,-0.23283 -0.07673,-0.23548 -0.07673,-0.24077 -0.08467,-0.24871 -0.08731,-0.25136 -0.08996,-0.26193 -0.0979,-0.26459 -0.100542,-0.27516 -0.103187,-0.28046 -0.111125,-0.2884 -0.113771,-0.29898 -0.119062,-0.30691 -0.124355,-0.3175 -0.129645,-0.32544 -0.1905,-0.48684 -0.182563,-0.48418 -0.177271,-0.48154 -0.169333,-0.4789 -0.161396,-0.4736 -0.153458,-0.46832 -0.148167,-0.46566 -0.140229,-0.46038 -0.132292,-0.45508 -0.124354,-0.44715 -0.116417,-0.4445 -0.111125,-0.43656 -0.103187,-0.43392 -0.0926,-0.42333 -0.08731,-0.41804 -0.08202,-0.41011 -0.07144,-0.40216 -0.0635,-0.39688 -0.05556,-0.38629 -0.05027,-0.37835 -0.03969,-0.37042 -0.03175,-0.35983 -0.02646,-0.3519 -0.01587,-0.34131 -0.0079,-0.33073 -0.0026,-0.32279 0.0079,-0.30957 0.01588,-0.30162 0.02381,-0.2884 0.03175,-0.27781 0.04233,-0.26723 0.04763,-0.25135 0.05556,-0.24342 0.06615,-0.227538 0.07408,-0.216958 0.08202,-0.201084 0.0926,-0.1905 0.0979,-0.174625 0.108479,-0.161396 0.116417,-0.148166 0.08731,-0.09525 0.0979,-0.0979 0.10848,-0.105833 0.116416,-0.105834 0.127,-0.108479 0.134938,-0.113771 0.145521,-0.113771 0.148166,-0.119062 0.15875,-0.116417 0.164042,-0.121708 0.169333,-0.119063 0.171979,-0.121708 0.179917,-0.121708 0.182563,-0.121709 0.185208,-0.121708 0.1905,-0.121708 0.1905,-0.119063 0.193146,-0.119062 0.193146,-0.116417 0.193145,-0.113771 0.195792,-0.113771 0.193146,-0.108479 0.193146,-0.108479 0.1905,-0.103187 0.187854,-0.100542 0.185208,-0.09525 0.182563,-0.08996 0.177271,-0.08731 0.171979,-0.08202 0.169333,-0.07673 0.161396,-0.07144 0.156104,-0.0635 0.150813,-0.05821 0.140229,-0.05292 0.134937,-0.04233 0.124354,-0.03704 0.116417,-0.03175 0.105833,-0.02117 0.09525,-0.01323 0.08467,-0.0026 0.02646,-0.0026 0.02646,-0.0053 0.03175,-0.0079 0.0344,-0.01058 0.0344,-0.01323 0.03969,-0.01588 0.03969,-0.02117 0.04233,-0.02117 0.04498,-0.02381 0.04762,-0.02911 0.04763,-0.0291 0.05027,-0.0344 0.05292,-0.0344 0.05292,-0.03704 0.05556,-0.03969 0.05821,-0.04233 0.05821,-0.04498 0.06085,-0.04498 0.06086,-0.04762 0.0635,-0.05292 0.0635,-0.05027 0.06614,-0.05556 0.06615,-0.05556 0.06615,-0.05821 0.0661,-0.05821 0.0688,-0.06086 0.0688,-0.0635 0.0714,-0.0635 0.0688,-0.06615 0.0714,-0.06879 0.0714,-0.06615 0.0714,-0.07144 0.0714,-0.06879 0.0714,-0.07408 0.0714,-0.07144 0.0714,-0.07408 0.0714,-0.07408 0.0714,-0.07673 0.0714,-0.07673 0.0714,-0.07673 0.10054,-0.113771 0.0979,-0.105833 0.0953,-0.103188 0.0926,-0.100541 0.0926,-0.09525 0.09,-0.08996 0.09,-0.08731 0.0873,-0.08202 0.0847,-0.07937 0.0847,-0.07408 0.0847,-0.06879 0.082,-0.06879 0.082,-0.0635 0.0794,-0.05821 0.082,-0.05556 0.0794,-0.05292 0.0794,-0.05027 0.0794,-0.04498 0.0794,-0.04233 0.0767,-0.03704 0.0794,-0.03704 0.0794,-0.03175 0.0794,-0.0291 0.0794,-0.02646 0.0794,-0.02381 0.082,-0.01852 0.082,-0.01852 0.082,-0.01323 0.082,-0.01323 0.0847,-0.0079 0.0873,-0.0053 0.0873,-0.0053 h 0.0873 0.09 l 0.0926,0.0053 0.0953,0.0053 0.0952,0.0079 0.0979,0.01058 0.10054,0.01323 0.10055,0.01587 1.76212,0.27252 v -8.895291 -0.452438 l 0.003,-0.441854 0.003,-0.431271 0.003,-0.420687 0.003,-0.407459 0.005,-0.396875 0.005,-0.383645 0.008,-0.375709 0.005,-0.362479 0.0106,-0.351896 0.008,-0.341312 0.0106,-0.328084 0.0106,-0.320145 0.0132,-0.306917 0.0106,-0.298979 0.0159,-0.28575 0.0132,-0.275167 0.0159,-0.264583 0.0159,-0.254 0.0185,-0.243417 0.0159,-0.232833 0.0212,-0.22225 0.0185,-0.211667 0.0212,-0.201083 0.0212,-0.193146 0.0238,-0.179917 0.0212,-0.169333 0.0265,-0.161396 0.0238,-0.150812 0.0265,-0.14023 0.0264,-0.129645 0.0265,-0.119063 0.0291,-0.111125 0.0291,-0.0979 0.0318,-0.0926 0.0317,-0.07937 0.0318,-0.06879 0.0318,-0.06085 0.0344,-0.05292 0.0344,-0.03969 0.17727,-0.174625 0.17463,-0.150812 0.17462,-0.132292 0.17463,-0.113771 0.17198,-0.09525 0.16933,-0.07408 0.16933,-0.05556 0.16669,-0.03704 0.16669,-0.02117 h 0.16139 l 0.1614,0.01587 z m -11.059583,23.950083 -0.198437,0.04233 -0.206375,0.05556 -0.209021,0.07144 -0.216958,0.08202 -0.119063,0.08731 -0.08467,0.129646 -0.05821,0.171979 -0.0291,0.211666 -0.0026,0.246063 0.02117,0.280458 0.05027,0.306917 0.07144,0.330729 0.09525,0.354542 0.116417,0.370416 0.137583,0.386292 0.15875,0.396873 0.177271,0.40481 0.195792,0.41011 0.211666,0.4101 0.230188,0.40746 0.243417,0.40216 0.256645,0.39159 0.09261,0.14287 0.08996,0.14552 0.08731,0.14552 0.08467,0.14553 0.08202,0.14287 0.07937,0.14552 0.07408,0.14023 0.06879,0.14023 0.0635,0.13494 0.06085,0.12964 0.05556,0.127 0.04763,0.12171 0.04233,0.11377 0.0344,0.10584 0.02646,0.10054 0.02117,0.09 0.01323,0.0794 0.0053,0.0714 0.01323,0.15081 0.03969,0.14288 0.0635,0.13493 0.0847,0.127 0.10584,0.11907 0.12171,0.11112 0.14023,0.0979 0.1561,0.09 0.16669,0.0741 0.17727,0.0635 0.18521,0.0503 0.19314,0.0344 0.19844,0.0212 0.20108,0.005 0.20109,-0.0106 0.20108,-0.0318 0.19844,-0.045 0.19314,-0.0688 0.24077,-0.13494 0.1905,-0.19844 0.14552,-0.2487 0.0952,-0.30163 0.0529,-0.34925 0.008,-0.39423 -0.0344,-0.43127 -0.0794,-0.46567 -0.11906,-0.49741 -0.15875,-0.52652 -0.19844,-0.55034 -0.23813,-0.56885 -0.27252,-0.58738 -0.31221,-0.597951 -0.34395,-0.605896 -0.37836,-0.608542 -0.41275,-0.611187 -0.4445,-0.608542 -0.13494,-0.164042 -0.13758,-0.150812 -0.140204,-0.134938 -0.142875,-0.119062 -0.150813,-0.105833 -0.150812,-0.08731 -0.15875,-0.07673 -0.161396,-0.06085 -0.166688,-0.04498 -0.171979,-0.02911 -0.174625,-0.01587 -0.182562,-0.0026 -0.187855,0.01323 z m 5.064123,3.881441 0.13759,0.4736 0.30956,0.74083 0.21431,0.40482 0.254,0.35189 0.27517,0.28311 0.2831,0.20637 0.27781,0.11642 0.25136,0.0106 0.60325,-0.2196 0.3466,-0.32544 0.0926,-0.39688 -0.16405,-0.43656 -0.41539,-0.43921 -0.6694,-0.40745 -0.86518,-0.38894 -0.56886,-0.20373 -0.29898,0.003 z m -1.03187,-5.151441 -0.32544,0.07144 -0.27517,0.09525 -0.20902,0.11377 -0.13229,0.127 -0.0476,0.14023 -0.003,0.150812 -0.0106,0.15875 -0.0159,0.15875 -0.0212,0.156104 -0.0264,0.148167 -0.0318,0.127 -0.0371,0.105833 0.0132,0.08202 0.11377,0.08467 0.1958,0.08467 0.27516,0.08202 0.33602,0.07408 0.39159,0.0635 0.43656,0.04762 0.58473,0.03175 0.46037,-0.01323 0.34661,-0.0635 0.24606,-0.124354 0.15875,-0.193146 0.0847,-0.264583 0.0265,-0.34925 -0.0291,-0.341312 -0.0873,-0.275167 -0.1614,-0.209021 -0.23548,-0.153458 -0.32014,-0.103188 -0.4154,-0.05821 -0.51329,-0.01587 -0.40217,0.01587 z m 5.969,-21.370396 -0.0582,0.0079 -0.0556,0.01058 -0.0529,0.01323 -0.0476,0.01852 -0.045,0.01852 -0.0423,0.02381 -0.0397,0.02646 -0.0344,0.0291 -0.0318,0.03175 -0.0265,0.0344 -0.0238,0.03969 -0.0159,0.03969 -0.0132,0.04498 -0.008,0.04763 -0.003,0.05292 -0.0344,1.16152 -0.0318,1.121834 -0.0291,1.082146 -0.0265,1.045104 -0.0238,1.008062 -0.0212,0.968375 -0.0159,0.933979 -0.0159,0.896938 -0.0132,0.862542 -0.0106,0.8255 -0.008,0.791104 -0.005,0.756708 -0.003,0.722313 0.003,0.690562 0.003,0.658813 0.005,0.624416 0.0106,0.595313 0.0106,0.560916 0.0159,0.531813 0.0185,0.502708 0.0212,0.473604 0.0212,0.441855 0.0291,0.415395 0.0291,0.388938 0.0318,0.359833 0.037,0.330729 0.0371,0.306917 0.0423,0.280458 0.045,0.254 0.0476,0.230188 0.0503,0.206375 0.0556,0.182562 0.0556,0.15875 0.0609,0.134938 0.0635,0.113771 0.0662,0.0926 0.0714,0.06879 0.0741,0.05027 0.0741,0.02911 0.082,0.01058 h 0.0476 l 0.0503,0.0026 0.0529,0.0053 0.0529,0.0053 0.0529,0.0079 0.0556,0.01058 0.0556,0.01058 0.0582,0.01323 0.0582,0.01323 0.0582,0.01587 0.0609,0.01588 0.0582,0.01852 0.0609,0.02117 0.0609,0.02117 0.0609,0.02117 0.0635,0.02381 0.0609,0.02646 0.0635,0.02646 0.0609,0.02646 0.0635,0.0291 0.0609,0.0291 0.0635,0.03175 0.0609,0.03175 0.0609,0.03175 0.0609,0.0344 0.0609,0.0344 0.0609,0.0344 0.0608,0.03704 0.0582,0.03704 0.0582,0.03704 0.0582,0.03969 0.0556,0.03969 0.0556,0.03969 0.0556,0.03969 0.0529,0.04233 0.0529,0.03969 0.0503,0.04233 0.0503,0.04233 0.0476,0.04233 0.0476,0.04498 0.0847,0.07408 0.0794,0.07144 0.0767,0.06879 0.0714,0.0635 0.0661,0.05821 0.0635,0.05556 0.0609,0.04762 0.0556,0.04498 0.0529,0.04233 0.0503,0.03439 0.045,0.02911 0.0423,0.02381 0.0397,0.02117 0.0344,0.01323 0.0317,0.0079 h 0.0291 l 0.0265,-0.0026 0.0238,-0.01058 0.0185,-0.01588 0.0159,-0.02117 0.0159,-0.02911 0.0106,-0.03704 0.008,-0.04233 0.005,-0.04762 0.005,-0.05821 v -0.06085 l -0.003,-0.07144 -0.003,-0.07673 -0.008,-0.08731 -0.008,-0.0926 -0.0106,-0.100542 -0.0132,-0.108479 -0.0159,-0.116417 -0.0185,-0.124354 -0.0185,-0.132292 -0.0212,-0.140229 -0.0212,-0.150812 -0.0265,-0.15875 -0.0265,-0.166688 -0.0265,-0.177271 -0.0159,-0.103187 -0.0159,-0.113771 -0.0132,-0.119063 -0.0159,-0.127 -0.0159,-0.134937 -0.0132,-0.140229 -0.0159,-0.148167 -0.0132,-0.153458 -0.0132,-0.161396 -0.0132,-0.166688 -0.0159,-0.169333 -0.0132,-0.177271 -0.0106,-0.182562 -0.0132,-0.187854 -0.0132,-0.1905 -0.0106,-0.195792 -0.0132,-0.198438 -0.0106,-0.203729 -0.0106,-0.206375 -0.0106,-0.209021 -0.0106,-0.214312 -0.0106,-0.214313 -0.0106,-0.216958 -0.008,-0.22225 -0.008,-0.22225 -0.008,-0.22225 -0.008,-0.224896 -0.008,-0.227541 -0.005,-0.227542 -0.008,-0.227542 -0.005,-0.227541 -0.005,-0.230188 -0.005,-0.227542 -0.003,-0.227541 -0.003,-0.227542 -0.003,-0.227542 -0.003,-0.224895 -0.003,-0.224896 v -0.22225 -0.219604 -5.331355 l -1.6166,-0.0926 -0.10055,-0.0026 -0.0953,-0.0053 -0.0926,-0.0053 -0.0847,-0.0053 -0.082,-0.0026 -0.0767,-0.0053 -0.0714,-0.0053 -0.0661,-0.0053 -0.0609,-0.0053 -0.0582,-0.0053 -0.0529,-0.0053 -0.0476,-0.0053 -0.0423,-0.0053 -0.037,-0.0053 -0.0318,-0.0079 -0.0291,-0.0053 -0.0238,-0.0053 -0.0185,-0.0079 -0.0132,-0.0079 -0.008,-0.0053 -0.005,-0.0079 v -0.0079 l 0.005,-0.0079 0.0106,-0.01058 0.0159,-0.0079 0.0185,-0.0079 0.0238,-0.01058 0.0291,-0.01058 0.0317,-0.01058 0.0397,-0.01058 0.0423,-0.01058 0.0476,-0.01058 0.0503,-0.01323 0.0556,-0.01323 0.0609,-0.01323 0.0661,-0.01323 0.0714,-0.01323 0.0741,-0.01588 0.0794,-0.01323 0.082,-0.01588 0.11112,-0.03175 0.10584,-0.05027 0.10318,-0.0635 0.0979,-0.08202 0.0953,-0.09261 0.09,-0.111125 0.0847,-0.121708 0.082,-0.134937 0.0767,-0.145521 0.0714,-0.156104 0.0688,-0.166688 0.0635,-0.174625 0.0582,-0.185208 0.0529,-0.1905 0.0476,-0.198438 0.045,-0.203729 0.037,-0.211667 0.0344,-0.211666 0.0291,-0.219604 0.0212,-0.219605 0.0185,-0.22225 0.0132,-0.224895 0.005,-0.224896 0.003,-0.22225 -0.005,-0.22225 -0.0106,-0.22225 -0.0159,-0.216959 -0.0212,-0.216958 -0.0265,-0.209021 -0.0344,-0.206375 -0.0397,-0.201083 -0.0476,-0.1905 -0.0503,-0.187854 -0.0582,-0.177271 -0.0661,-0.169333 -0.0714,-0.15875 -0.0767,-0.148167 -0.0847,-0.134938 -0.0926,-0.124354 -0.0979,-0.113771 -0.0609,-0.06085 -0.0608,-0.05556 -0.0662,-0.05556 -0.0661,-0.05292 -0.0688,-0.05027 -0.0688,-0.04762 -0.0714,-0.04498 -0.0714,-0.04233 -0.0741,-0.03969 -0.0741,-0.03704 -0.0741,-0.0344 -0.0741,-0.03175 -0.0741,-0.0291 -0.0741,-0.02646 -0.0741,-0.02381 -0.0741,-0.02117 -0.0741,-0.01852 -0.0714,-0.01323 -0.0688,-0.01323 -0.0714,-0.0079 -0.0661,-0.0079 -0.0688,-0.0026 -0.0635,-0.0026 -0.0635,0.0026 z m -5.1144,19.118792 -0.57944,0.301625 -0.20637,0.148167 -0.11377,0.137583 -0.0185,0.127 0.0767,0.121708 0.17991,0.116417 0.28046,0.116417 0.38894,0.116416 0.93662,0.224896 0.77523,0.127 0.60854,0.0291 0.43921,-0.07144 0.26988,-0.174625 0.0979,-0.275167 -0.0741,-0.378354 -0.24606,-0.381 -0.41011,-0.280458 -0.52916,-0.174625 -0.60325,-0.06086 -0.64029,0.05556 z"
           style="fill-opacity:0;stroke:#000000;stroke-width:0.26458332;stroke-opacity:0" />
      </g>
    </g>
    <g
       id="g40"
       transform="matrix(1.5130925,0,0,1.252013,-29.960488,-2.2896336)">
      <path
         inkscape:connector-curvature="0"
         id="use34"
         d="m 138.53583,98.215979 c 0.58473,0 1.61396,0.182563 2.28865,0.365125 0.99748,0.275167 1.35202,0 1.64571,-1.277937 0.64558,-2.651125 2.40771,-1.767417 2.40771,1.217083 0,2.1934 -0.14817,2.46856 -1.61661,2.62202 -2.20133,0.27252 -2.46592,4.17248 -0.29369,4.5085 1.64571,0.24342 2.58498,4.5085 1.32292,5.87904 -0.94192,1.03717 -2.05581,0.42863 -2.05581,-1.15623 0,-0.97631 -0.41275,-1.18798 -2.3495,-1.18798 -2.11402,0 -2.3495,0.15082 -2.3495,1.55311 0,8.13594 10.95375,7.92162 12.03854,-0.21431 0.381,-2.92365 -0.26458,-5.75734 -1.46844,-6.51934 -0.46831,-0.30427 -0.4101,-0.70114 0.17727,-1.43139 4.46352,-5.363108 -0.82285,-13.589003 -6.92943,-10.81617 -2.61409,1.156229 -4.90273,6.458479 -2.81782,6.458479 z"
         style="fill:#000000;fill-opacity:1;stroke-width:0.26458332" />
      <g
         id="g38">
        <path
           inkscape:connector-curvature="0"
           id="use36"
           d="m 138.53583,98.215979 c 0.58473,0 1.61396,0.182563 2.28865,0.365125 0.99748,0.275167 1.35202,0 1.64571,-1.277937 0.64558,-2.651125 2.40771,-1.767417 2.40771,1.217083 0,2.1934 -0.14817,2.46856 -1.61661,2.62202 -2.20133,0.27252 -2.46592,4.17248 -0.29369,4.5085 1.64571,0.24342 2.58498,4.5085 1.32292,5.87904 -0.94192,1.03717 -2.05581,0.42863 -2.05581,-1.15623 0,-0.97631 -0.41275,-1.18798 -2.3495,-1.18798 -2.11402,0 -2.3495,0.15082 -2.3495,1.55311 0,8.13594 10.95375,7.92162 12.03854,-0.21431 0.381,-2.92365 -0.26458,-5.75734 -1.46844,-6.51934 -0.46831,-0.30427 -0.4101,-0.70114 0.17727,-1.43139 4.46352,-5.363108 -0.82285,-13.589003 -6.92943,-10.81617 -2.61409,1.156229 -4.90273,6.458479 -2.81782,6.458479 z"
           style="fill-opacity:0;stroke:#000000;stroke-width:0.26458332;stroke-opacity:0" />
      </g>
    </g>
    <g
       id="g48"
       transform="matrix(1.5130925,0,0,1.252013,-29.960488,-2.2896336)">
      <path
         inkscape:connector-curvature="0"
         id="use42"
         d="m 125.35165,104.06592 -1.84944,3.77825 -1.84944,3.77825 c 1.39171,0 2.16429,0 2.31775,0 2.08492,0 2.3495,-0.18257 2.7014,-1.82827 0.55827,-2.65113 1.35202,-2.80194 1.79123,-0.33603 0.381,2.04259 0.52916,2.1643 2.67229,2.1643 2.7596,0 2.7305,0.18256 0.47096,-4.20423 -0.12171,-0.23548 -0.73025,-1.40229 -1.82034,-3.50309 0.8255,-1.62718 1.28588,-2.53206 1.37848,-2.71198 2.49502,-4.876266 2.49502,-4.815412 -0.0291,-4.815412 -2.08492,0 -2.29129,0.153459 -2.64319,1.949979 -0.381,2.010833 -1.23296,1.799163 -1.61396,-0.425979 -0.17727,-0.944562 -0.76464,-1.248833 -2.7305,-1.402291 -0.16669,-0.01058 -0.99748,-0.07144 -2.49502,-0.182563 l 1.84944,3.870856 z"
         style="fill:#000000;fill-opacity:1;stroke-width:0.26458332" />
      <g
         id="g46">
        <path
           inkscape:connector-curvature="0"
           id="use44"
           d="m 125.35165,104.06592 -1.84944,3.77825 -1.84944,3.77825 c 1.39171,0 2.16429,0 2.31775,0 2.08492,0 2.3495,-0.18257 2.7014,-1.82827 0.55827,-2.65113 1.35202,-2.80194 1.79123,-0.33603 0.381,2.04259 0.52916,2.1643 2.67229,2.1643 2.7596,0 2.7305,0.18256 0.47096,-4.20423 -0.12171,-0.23548 -0.73025,-1.40229 -1.82034,-3.50309 0.8255,-1.62718 1.28588,-2.53206 1.37848,-2.71198 2.49502,-4.876266 2.49502,-4.815412 -0.0291,-4.815412 -2.08492,0 -2.29129,0.153459 -2.64319,1.949979 -0.381,2.010833 -1.23296,1.799163 -1.61396,-0.425979 -0.17727,-0.944562 -0.76464,-1.248833 -2.7305,-1.402291 -0.16669,-0.01058 -0.99748,-0.07144 -2.49502,-0.182563 l 1.84944,3.870856 z"
           style="fill-opacity:0;stroke:#000000;stroke-width:0.26458332;stroke-opacity:0" />
      </g>
    </g>
    <path
       style="fill:none;stroke:#666666;stroke-width:0.66500002;stroke-linecap:butt;stroke-linejoin:miter;stroke-miterlimit:4;stroke-dasharray:none;stroke-opacity:1"
       d="m 32.744729,36.753894 c 0,0 4.450036,1.400437 6.824601,4.913142 2.374564,3.512704 2.107294,9.659904 2.107294,9.659904 l -0.110709,21.034999 c 0,0 0.327297,3.948904 3.413251,4.088952 3.085953,0.140048 3.712944,-3.779762 3.712944,-3.779762"
       id="path4829"
       inkscape:connector-curvature="0"
       sodipodi:nodetypes="czcczc" />
    <ellipse
       style="opacity:1;fill:none;stroke:#666666;stroke-width:1.3768338;stroke-miterlimit:4;stroke-dasharray:none;stroke-opacity:1"
       id="path4833"
       cx="24.488569"
       cy="99.120323"
       rx="21.358936"
       ry="21.626207" />
    <ellipse
       style="opacity:1;fill:#666666;stroke:none;stroke-width:0.89619279;stroke-miterlimit:4;stroke-dasharray:none;stroke-opacity:1"
       id="path4835"
       cx="14.766642"
       cy="99.287369"
       rx="2.80633"
       ry="2.6726952" />
    <ellipse
       style="opacity:1;fill:#666666;stroke:none;stroke-width:0.89619279;stroke-miterlimit:4;stroke-dasharray:none;stroke-opacity:1"
       id="path4835-5"
       cx="33.742779"
       cy="99.421005"
       rx="2.80633"
       ry="2.6726952" />
    <ellipse
       style="opacity:1;fill:none;stroke:#666666;stroke-width:1.3768338;stroke-miterlimit:4;stroke-dasharray:none;stroke-opacity:1"
       id="path4833-6"
       cx="24.568451"
       cy="157.99925"
       rx="21.358938"
       ry="21.626207" />
    <ellipse
       style="opacity:1;fill:#666666;stroke:none;stroke-width:0.89619279;stroke-miterlimit:4;stroke-dasharray:none;stroke-opacity:1"
       id="path4835-58"
       cx="14.846523"
       cy="158.16629"
       rx="2.80633"
       ry="2.6726952" />
    <ellipse
       style="opacity:1;fill:#666666;stroke:none;stroke-width:0.89619279;stroke-miterlimit:4;stroke-dasharray:none;stroke-opacity:1"
       id="path4835-5-9"
       cx="33.822662"
       cy="158.29993"
       rx="2.80633"
       ry="2.6726952" />
    <text
       xml:space="preserve"
       style="font-style:normal;font-weight:normal;font-size:4.11742687px;line-height:1.25;font-family:sans-serif;letter-spacing:0px;word-spacing:0px;fill:#000000;fill-opacity:1;stroke:none;stroke-width:0.10293566"
       x="-73.417923"
       y="44.513603"
       id="text4940"
       transform="matrix(0,-0.95123127,1.0512691,0,0,0)"><tspan
         sodipodi:role="line"
         id="tspan4938"
         x="-73.417923"
         y="44.513603"
         style="stroke-width:0.10293566">TELLDUS</tspan></text>
  </g>
</svg>
