<!DOCTYPE svg PUBLIC "-//W3C//DTD SVG 20010904//EN" "http://www.w3.org/TR/2001/REC-SVG-20010904/DTD/svg10.dtd">
<svg version="1.0" xmlns="http://www.w3.org/2000/svg" width="500px" height="500px" viewBox="0 0 5000 5000" preserveAspectRatio="xMidYMid meet">
<g id="layer101" fill="#a7a9ac" stroke="none">
 <path d="M1125 4786 c-156 -49 -269 -180 -295 -342 -13 -80 -13 -3838 0 -3918 20 -123 99 -239 203 -300 95 -56 92 -56 860 -56 l707 0 0 2315 0 2315 -717 -1 c-551 0 -727 -3 -758 -13z m1395 -2301 l0 -2236 -682 3 c-676 3 -683 3 -730 25 -62 28 -134 96 -163 154 -13 25 -29 75 -35 110 -8 45 -10 632 -8 1989 l3 1925 28 61 c37 79 107 148 183 179 l59 25 673 0 672 0 0 -2235z"/>
 <path d="M2150 2895 l0 -25 -105 0 -105 0 0 -150 0 -150 105 0 105 0 0 -25 c0 -14 4 -25 8 -25 4 0 43 47 86 105 69 93 77 107 65 123 -62 79 -144 172 -151 172 -4 0 -8 -11 -8 -25z m15 -129 c34 -15 44 -29 26 -40 -5 -3 -22 1 -37 9 -37 19 -65 19 -110 0 -58 -24 -77 1 -21 29 40 20 97 20 142 2z m-3 -54 c18 -18 0 -34 -24 -21 -12 6 -39 9 -63 6 -50 -7 -65 2 -33 20 25 15 104 11 120 -5z m-24 -44 c-2 -6 -20 -12 -39 -13 -39 -2 -52 3 -44 16 9 14 88 12 83 -3z"/>
 <path d="M1977 2449 c-22 -13 -47 -61 -47 -93 0 -32 29 -106 42 -106 5 0 18 5 29 10 18 10 18 13 4 40 -21 41 -19 77 5 90 17 9 24 6 45 -16 14 -15 25 -33 25 -40 0 -7 14 -29 31 -49 25 -28 38 -35 68 -35 58 1 91 38 91 105 0 36 -24 95 -38 95 -5 0 -16 -6 -26 -13 -17 -13 -17 -15 -2 -45 20 -38 20 -56 1 -72 -24 -20 -51 -2 -76 51 -13 28 -34 60 -48 70 -26 21 -75 25 -104 8z"/>
 <path d="M2026 2180 c-54 -17 -96 -73 -96 -128 0 -39 38 -93 80 -115 28 -14 56 -17 145 -15 l110 3 0 30 0 30 -105 2 c-132 4 -144 6 -159 39 -15 35 2 82 33 89 11 3 68 6 126 8 l105 2 0 30 0 30 -105 2 c-58 1 -118 -2 -134 -7z"/>
 <path d="M2064 1860 c-87 -19 -124 -80 -124 -199 l0 -81 165 0 165 0 0 70 c0 72 -17 129 -48 163 -36 40 -103 60 -158 47z m112 -94 c29 -29 34 -41 34 -80 l0 -46 -110 0 -110 0 0 33 c0 43 29 99 60 114 46 23 89 16 126 -21z"/>
 <path d="M1940 1435 l0 -95 163 2 162 3 3 27 3 27 -138 3 -138 3 -3 63 c-3 58 -4 62 -27 62 -25 0 -25 -1 -25 -95z"/>
 <path d="M1940 1195 l0 -95 163 2 162 3 3 27 3 27 -138 3 -138 3 -3 63 c-3 58 -4 62 -27 62 -25 0 -25 -1 -25 -95z"/>
 <path d="M1940 925 l0 -105 163 2 162 3 3 103 3 102 -30 0 -30 0 -3 -72 -3 -72 -35 0 -35 0 -3 62 c-3 58 -5 62 -27 62 -22 0 -24 -4 -27 -62 l-3 -61 -40 0 -40 0 -3 71 c-3 69 -4 72 -27 72 -25 0 -25 0 -25 -105z"/>
 <path d="M2210 730 l0 -40 -135 0 -135 0 0 -30 0 -30 135 0 135 0 0 -41 c0 -38 1 -40 28 -37 l27 3 3 108 3 107 -31 0 c-28 0 -30 -2 -30 -40z"/>
 <path d="M3200 2485 l0 -2315 300 0 c278 0 305 2 362 21 129 43 224 138 267 267 21 61 21 67 21 2025 0 2166 4 2015 -62 2119 -43 69 -129 143 -196 170 -55 22 -69 23 -374 26 l-318 3 0 -2316z m684 2200 c65 -33 122 -92 158 -163 l23 -47 0 -1990 0 -1990 -23 -46 c-35 -71 -84 -122 -154 -160 l-63 -34 -272 -3 -273 -3 0 2236 0 2236 273 -3 272 -3 59 -30z"/>
 </g>

</svg>