<?xml version="1.0" encoding="UTF-8" standalone="no"?>
<!DOCTYPE svg PUBLIC "-//W3C//DTD SVG 1.1//EN" "http://www.w3.org/Graphics/SVG/1.1/DTD/svg11.dtd">
<svg version="1.1" xmlns="http://www.w3.org/2000/svg" xmlns:xlink="http://www.w3.org/1999/xlink" preserveAspectRatio="xMidYMid meet" viewBox="0 0 640 640" width="640" height="640"><defs><path d="M161.7 57.18L165.76 58.03L169.97 59.16L174.32 60.56L178.82 62.25L183.45 64.2L188.21 66.43L193.1 68.92L198.13 71.68L203.27 74.71L208.54 78L213.93 81.55L219.43 85.36L225.04 89.42L230.77 93.74L236.59 98.31L242.52 103.13L248.55 108.19L254.67 113.5L260.89 119.05L267.2 124.85L273.59 130.88L280.07 137.14L286.62 143.64L293.25 150.38L299.96 157.34L306.74 164.53L313.58 171.94L320.49 179.57L327.46 187.43L334.49 195.51L341.57 203.8L348.7 212.3L349.37 213.1L350.05 213.9L350.71 214.7L351.38 215.49L352.04 216.27L352.69 217.05L353.34 217.83L353.99 218.59L354.63 219.35L355.26 220.1L355.88 220.84L356.49 221.57L357.1 222.29L357.69 223L358.27 223.69L358.85 224.37L359.41 225.04L359.96 225.69L360.5 226.33L361.02 226.95L361.53 227.56L362.02 228.15L362.5 228.71L362.96 229.26L363.41 229.79L363.84 230.3L364.25 230.79L364.64 231.26L365.01 231.7L365.37 232.12L365.7 232.52L366.01 232.89L366.3 233.23L366.57 233.55L366.82 233.84L367.04 234.11L367.24 234.34L367.41 234.55L367.56 234.73L367.68 234.87L367.84 235.04L368.01 235.19L368.2 235.33L368.4 235.45L368.61 235.56L368.83 235.65L369.07 235.72L369.33 235.79L369.6 235.83L369.89 235.86L370.19 235.87L370.52 235.86L370.87 235.84L371.24 235.8L371.63 235.74L372.04 235.67L372.48 235.57L372.94 235.46L373.43 235.32L373.95 235.17L374.49 235L375.06 234.81L375.66 234.6L376.29 234.36L376.95 234.11L377.65 233.84L378.37 233.54L379.13 233.22L379.93 232.88L380.75 232.52L381.62 232.14L382.52 231.73L383.47 231.3L384.45 230.85L385.47 230.37L386.53 229.87L387.63 229.34L388.78 228.79L389.97 228.22L391.2 227.62L399.22 223.99L407.26 220.83L415.34 218.12L423.42 215.87L431.51 214.06L439.59 212.68L447.64 211.73L455.66 211.2L463.63 211.08L471.55 211.37L479.39 212.06L487.16 213.13L494.83 214.6L502.39 216.43L509.84 218.64L517.16 221.21L524.33 224.13L531.36 227.4L538.22 231.01L544.9 234.96L551.4 239.22L557.69 243.81L563.78 248.71L569.64 253.91L575.26 259.4L580.64 265.19L585.76 271.25L590.61 277.59L595.17 284.2L599.45 291.06L603.41 298.18L607.06 305.54L610.37 313.14L613.35 320.97L615.97 329.02L618.23 337.29L620.11 345.76L621.59 354.44L622.68 363.31L623.36 372.36L623.6 380.84L623.42 389.21L622.86 397.47L621.91 405.6L620.58 413.61L618.89 421.47L616.84 429.19L614.46 436.75L611.73 444.14L608.69 451.37L605.33 458.4L601.67 465.25L597.72 471.9L593.49 478.34L588.98 484.56L584.22 490.55L579.2 496.31L573.95 501.83L568.46 507.1L562.75 512.1L556.84 516.84L550.73 521.29L544.43 525.46L537.95 529.34L531.3 532.91L524.49 536.16L517.54 539.1L510.45 541.71L503.24 543.97L495.91 545.89L488.47 547.45L480.94 548.65L473.33 549.48L465.63 549.92L457.88 549.97L450.07 549.62L442.22 548.86L434.33 547.69L426.42 546.09L418.5 544.06L409.51 541.22L400.84 537.96L392.48 534.27L384.44 530.19L376.73 525.72L369.36 520.88L362.32 515.69L355.62 510.17L349.26 504.34L343.26 498.2L337.6 491.79L332.31 485.11L327.37 478.18L322.81 471.03L318.61 463.66L314.79 456.09L311.35 448.35L308.29 440.45L305.62 432.4L303.34 424.23L301.46 415.94L299.98 407.56L298.9 399.11L298.24 390.6L297.98 382.04L298.15 373.47L298.74 364.88L299.75 356.31L301.2 347.76L303.08 339.26L305.41 330.82L308.17 322.45L311.39 314.19L315.06 306.03L319.18 298.01L323.77 290.13L328.82 282.42L334.34 274.89L340.34 267.55L346.81 260.43L365.79 240.63L340.27 210.92L331.12 200.35L322.13 190.16L313.31 180.36L304.65 170.94L296.17 161.9L287.85 153.25L279.7 144.99L271.73 137.11L263.93 129.63L256.3 122.53L248.85 115.82L241.58 109.5L234.49 103.58L227.59 98.04L220.86 92.9L214.32 88.16L207.97 83.8L201.81 79.85L195.83 76.29L190.05 73.12L184.46 70.36L179.06 67.99L173.87 66.02L168.86 64.46L164.06 63.29L159.46 62.53L155.06 62.17L150.86 62.21L146.87 62.66L143.09 63.51L139.51 64.77L136.15 66.43L133 68.51L130.06 70.99L127.33 73.88L124.83 77.18L122.53 80.89L120.46 85.01L118.61 89.55L116.99 94.5L116.88 94.87L116.79 95.22L116.7 95.56L116.61 95.88L116.54 96.18L116.47 96.46L116.42 96.73L116.37 96.98L116.34 97.22L116.31 97.44L116.3 97.65L116.29 97.84L116.3 98.01L116.32 98.17L116.35 98.32L116.4 98.46L116.46 98.58L116.53 98.68L116.62 98.78L116.72 98.86L116.84 98.93L116.98 98.99L117.13 99.03L117.29 99.07L117.47 99.09L117.68 99.1L117.89 99.1L118.13 99.1L118.38 99.08L118.66 99.05L118.95 99.01L119.26 98.96L119.6 98.91L119.95 98.85L120.33 98.77L120.72 98.69L121.14 98.61L121.58 98.51L122.05 98.41L122.54 98.3L123.26 98.15L123.93 98.03L124.56 97.93L125.15 97.86L125.7 97.82L126.2 97.8L126.66 97.81L127.08 97.84L127.45 97.88L127.79 97.96L128.09 98.05L128.34 98.15L128.55 98.28L128.73 98.43L128.86 98.59L128.96 98.77L129.01 98.96L129.03 99.16L129.01 99.38L128.95 99.61L128.85 99.85L128.71 100.1L128.54 100.36L128.33 100.63L128.08 100.9L127.8 101.19L127.48 101.47L127.13 101.77L126.74 102.06L126.31 102.36L125.85 102.66L125.36 102.97L124.83 103.27L124.27 103.57L123.67 103.87L123.05 104.17L122.38 104.47L121.69 104.76L120.96 105.04L120.21 105.32L119.64 105.51L119.04 105.65L118.42 105.75L117.78 105.82L117.12 105.84L116.45 105.83L115.76 105.78L115.05 105.69L114.34 105.57L113.62 105.42L112.89 105.24L112.16 105.03L111.42 104.79L110.69 104.52L109.95 104.23L109.22 103.91L108.5 103.57L107.78 103.21L107.07 102.82L106.38 102.42L105.69 101.99L105.03 101.55L104.38 101.09L103.75 100.62L103.15 100.14L102.57 99.64L102.01 99.13L101.49 98.61L100.99 98.08L100.53 97.55L100.1 97.01L99.71 96.46L99.35 95.92L99.04 95.36L98.77 94.81L98.54 94.26L98.36 93.71L98.23 93.16L98.15 92.62L98.12 92.08L98.13 91.82L98.16 91.59L98.2 91.37L98.26 91.17L98.34 90.99L98.43 90.83L98.54 90.69L98.66 90.57L98.8 90.47L98.95 90.38L99.11 90.32L99.29 90.27L99.47 90.24L99.67 90.23L99.88 90.23L100.1 90.25L100.33 90.29L100.56 90.35L100.81 90.42L101.06 90.51L101.33 90.62L101.59 90.74L101.87 90.88L102.15 91.03L102.44 91.2L102.73 91.38L103.02 91.58L103.32 91.79L103.62 92.02L103.93 92.26L104.23 92.51L104.54 92.78L104.85 93.07L105.16 93.37L105.47 93.68L105.78 94L106.09 94.34L106.4 94.68L106.7 95.05L107 95.42L111 100.49L113.44 91.16L113.7 90.17L113.98 89.19L114.28 88.22L114.59 87.26L114.92 86.31L115.26 85.36L115.62 84.43L115.99 83.51L116.38 82.6L116.78 81.7L117.2 80.81L117.63 79.93L118.07 79.06L118.53 78.2L119 77.36L119.49 76.53L119.99 75.71L120.5 74.9L121.03 74.11L121.57 73.33L122.12 72.56L122.68 71.8L123.26 71.06L123.85 70.33L124.45 69.62L125.06 68.92L125.69 68.23L126.33 67.56L126.98 66.91L127.64 66.27L128.31 65.65L128.99 65.04L129.69 64.44L130.4 63.87L131.11 63.31L131.84 62.76L132.58 62.24L133.33 61.73L134.09 61.23L134.85 60.76L137.63 59.29L140.58 58.11L143.69 57.23L146.98 56.64L150.42 56.35L154.02 56.34L157.78 56.62L161.7 57.18ZM441.13 217.31L433.08 218.64L425.15 220.42L417.35 222.64L409.69 225.27L402.19 228.31L394.86 231.75L387.72 235.56L380.77 239.74L374.03 244.27L367.51 249.14L361.23 254.33L355.2 259.83L349.42 265.63L343.92 271.71L338.71 278.07L333.8 284.68L329.2 291.53L324.92 298.61L320.98 305.91L317.4 313.41L314.18 321.09L311.33 328.95L308.88 336.97L306.83 345.14L305.19 353.44L303.99 361.87L303.22 370.39L302.91 379.01L303.07 387.71L303.71 396.48L304.84 405.3L306.48 414.15L308.64 423.03L312.77 436.37L317.63 448.9L323.18 460.61L329.37 471.52L336.17 481.64L343.53 490.97L351.41 499.51L359.75 507.27L368.53 514.26L377.69 520.48L387.2 525.94L397 530.65L407.06 534.61L417.33 537.82L427.77 540.3L438.33 542.05L448.97 543.07L459.65 543.38L470.33 542.97L480.95 541.85L491.49 540.04L501.88 537.53L512.1 534.33L522.09 530.45L531.82 525.89L541.24 520.66L550.3 514.77L558.97 508.22L567.19 501.01L574.93 493.16L582.15 484.67L588.79 475.55L594.82 465.79L600.19 455.42L604.85 444.42L608.78 432.82L611.91 420.61L614.21 407.81L615.64 394.41L616.15 380.42L616.08 374.52L615.86 368.7L615.48 362.96L614.94 357.3L614.24 351.72L613.39 346.23L612.38 340.83L611.22 335.52L609.91 330.3L608.44 325.17L606.83 320.13L605.07 315.19L603.16 310.35L601.1 305.6L598.9 300.95L596.55 296.4L594.06 291.96L591.43 287.62L588.65 283.39L585.74 279.26L582.69 275.24L579.5 271.34L576.17 267.54L572.7 263.86L569.11 260.29L565.38 256.84L561.51 253.51L557.52 250.3L553.39 247.21L549.14 244.24L544.75 241.39L540.24 238.67L535.61 236.08L530.85 233.62L525.97 231.28L520.96 229.08L515.83 227.02L510.59 225.08L505.22 223.29L499.74 221.63L491.21 219.45L482.72 217.82L474.27 216.71L465.87 216.12L457.54 216.03L449.29 216.43L441.13 217.31Z" id="a4tDTK3XtU"></path><path d="M412.51 274.21L413.09 274.4L413.67 274.66L414.23 274.98L414.78 275.36L415.32 275.8L415.84 276.31L416.35 276.87L416.84 277.49L417.31 278.17L417.77 278.9L418.21 279.69L418.63 280.54L419.03 281.44L419.41 282.39L419.77 283.39L420.1 284.44L420.42 285.54L420.71 286.69L420.98 287.88L421.22 289.13L421.43 290.42L421.62 291.75L421.79 293.12L421.92 294.54L422.03 296L422.1 297.5L422.15 299.04L422.17 300.62L422.17 303.59L422.2 306.53L422.24 309.46L422.29 312.36L422.36 315.24L422.44 318.1L422.54 320.93L422.65 323.73L422.78 326.49L422.92 329.22L423.07 331.92L423.24 334.57L423.41 337.19L423.61 339.76L423.81 342.29L424.03 344.77L424.25 347.2L424.49 349.58L424.75 351.91L425.01 354.18L425.28 356.4L425.57 358.55L425.86 360.64L426.17 362.67L426.48 364.64L426.81 366.53L427.14 368.35L427.49 370.1L427.84 371.78L428.2 373.38L428.58 374.9L428.96 376.34L429.34 377.7L429.74 378.97L430.14 380.15L430.55 381.25L430.97 382.25L431.39 383.16L431.83 383.97L432.26 384.68L432.77 385.46L433.25 386.19L433.7 386.88L434.12 387.54L434.52 388.17L434.9 388.78L435.24 389.36L435.56 389.92L435.85 390.47L436.11 391.01L436.34 391.55L436.54 392.08L436.71 392.61L436.86 393.15L436.97 393.69L437.05 394.25L437.1 394.83L437.11 395.43L437.1 396.05L437.05 396.7L436.97 397.39L436.85 398.11L436.71 398.87L436.52 399.67L436.31 400.53L436.05 401.43L435.76 402.4L435.44 403.42L435.08 404.5L434.68 405.65L434.25 406.88L433.78 408.18L433.27 409.56L432.72 411.02L432.13 412.57L431.51 414.21L430.84 415.95L430.13 417.78L429.39 419.72L428.6 421.76L427.95 423.46L427.32 425.14L426.72 426.8L426.15 428.44L425.6 430.06L425.08 431.66L424.59 433.24L424.12 434.81L423.68 436.35L423.27 437.88L422.88 439.39L422.52 440.88L422.18 442.35L421.87 443.81L421.59 445.25L421.33 446.68L421.1 448.09L420.89 449.48L420.71 450.86L420.56 452.22L420.43 453.57L420.32 454.9L420.25 456.22L420.2 457.53L420.17 458.82L420.17 460.1L420.2 461.37L420.25 462.63L420.32 463.87L420.42 465.1L420.55 466.32L420.7 467.52L420.88 468.72L421.08 469.9L421.31 471.08L421.57 472.24L421.85 473.4L422.15 474.54L422.48 475.68L422.83 476.81L422.85 476.87L422.86 476.93L422.86 477L422.87 477.06L422.87 477.13L422.87 477.2L422.86 477.27L422.85 477.34L422.84 477.41L422.82 477.48L422.8 477.55L422.78 477.63L422.75 477.7L422.72 477.77L422.69 477.85L422.65 477.92L422.62 478L422.57 478.07L422.53 478.14L422.48 478.22L422.44 478.29L422.38 478.36L422.33 478.44L422.27 478.51L422.21 478.58L422.15 478.65L422.09 478.71L422.02 478.78L421.95 478.85L421.88 478.91L421.81 478.98L421.73 479.04L421.65 479.1L421.57 479.15L421.49 479.21L421.41 479.26L421.32 479.31L421.24 479.36L421.15 479.41L421.06 479.46L420.47 479.7L419.92 479.78L419.4 479.72L418.93 479.52L418.49 479.18L418.08 478.71L417.71 478.11L417.38 477.39L417.09 476.56L416.83 475.61L416.6 474.56L416.41 473.41L416.25 472.16L416.13 470.83L416.04 469.41L415.99 467.91L415.97 466.34L415.98 464.7L416.03 462.99L416.1 461.23L416.21 459.42L416.35 457.56L416.53 455.66L416.73 453.72L416.97 451.75L417.24 449.76L417.53 447.74L417.86 445.71L418.22 443.67L418.61 441.63L419.02 439.58L419.47 437.55L419.94 435.52L420.45 433.51L420.98 431.53L421.54 429.57L422.13 427.64L422.74 425.75L423.38 423.91L424.05 422.11L424.86 420.02L425.63 418.04L426.36 416.16L427.05 414.39L427.7 412.72L428.3 411.14L428.86 409.65L429.39 408.24L429.87 406.92L430.31 405.67L430.71 404.49L431.08 403.38L431.4 402.33L431.68 401.33L431.92 400.39L432.12 399.49L432.28 398.64L432.4 397.83L432.48 397.05L432.53 396.3L432.53 395.58L432.49 394.87L432.42 394.18L432.31 393.51L432.15 392.83L431.96 392.16L431.73 391.49L431.46 390.81L431.15 390.12L430.81 389.41L430.43 388.69L430 387.93L429.54 387.15L429.05 386.33L428.51 385.47L427.94 384.57L427.33 383.62L426.68 382.61L425.99 381.55L425.27 380.42L424.36 379.01L423.44 377.65L422.52 376.34L421.6 375.08L420.68 373.87L419.76 372.7L418.85 371.59L417.94 370.53L417.04 369.52L416.14 368.57L415.25 367.66L414.37 366.81L413.49 366.02L412.63 365.28L411.78 364.59L410.94 363.96L410.11 363.38L409.3 362.87L408.51 362.4L407.72 362L406.96 361.65L406.22 361.36L405.49 361.13L404.79 360.96L404.1 360.85L403.44 360.8L402.8 360.82L402.19 360.89L401.6 361.02L401.04 361.22L400.5 361.48L400 361.8L399.52 362.19L399.07 362.64L398.66 363.15L398.27 363.73L397.92 364.38L397.61 365.09L397.33 365.87L397.09 366.72L397.01 366.99L396.93 367.25L396.85 367.5L396.77 367.74L396.69 367.96L396.6 368.18L396.51 368.39L396.42 368.58L396.33 368.77L396.23 368.94L396.13 369.11L396.02 369.26L395.91 369.4L395.79 369.54L395.67 369.66L395.54 369.78L395.41 369.88L395.27 369.98L395.13 370.07L394.98 370.15L394.82 370.22L394.66 370.28L394.48 370.33L394.3 370.37L394.12 370.4L393.92 370.43L393.72 370.44L393.51 370.45L393.29 370.45L393.06 370.45L392.82 370.43L392.57 370.41L392.31 370.37L392.04 370.33L391.77 370.29L391.48 370.23L391.18 370.17L390.86 370.1L390.54 370.03L390.2 369.94L389.56 369.78L388.96 369.64L388.39 369.52L387.87 369.42L387.39 369.34L386.94 369.28L386.54 369.23L386.18 369.21L385.85 369.2L385.56 369.21L385.32 369.24L385.11 369.28L384.94 369.35L384.81 369.42L384.71 369.52L384.65 369.62L384.63 369.75L384.65 369.89L384.7 370.04L384.79 370.2L384.92 370.38L385.08 370.58L385.28 370.78L385.51 371L385.78 371.23L386.09 371.47L386.43 371.72L386.8 371.98L387.2 372.25L387.65 372.54L388.12 372.83L388.63 373.13L389.17 373.44L389.74 373.76L390.35 374.08L390.99 374.42L391.66 374.76L392.37 375.1L393.1 375.46L393.87 375.82L394.49 376.11L395.09 376.39L395.67 376.66L396.22 376.91L396.74 377.14L397.24 377.36L397.72 377.57L398.18 377.76L398.62 377.93L399.04 378.1L399.44 378.24L399.82 378.38L400.19 378.49L400.54 378.6L400.87 378.69L401.19 378.76L401.5 378.83L401.8 378.87L402.08 378.91L402.36 378.93L402.62 378.93L402.88 378.93L403.13 378.9L403.38 378.87L403.61 378.82L403.85 378.76L404.08 378.68L404.31 378.59L404.53 378.49L404.76 378.38L404.99 378.25L405.21 378.11L405.44 377.95L405.67 377.78L405.91 377.6L406.15 377.41L406.4 377.2L406.65 376.98L406.91 376.75L407.18 376.51L407.34 376.36L407.5 376.21L407.65 376.07L407.81 375.94L407.96 375.81L408.11 375.69L408.25 375.57L408.4 375.46L408.54 375.36L408.68 375.26L408.82 375.17L408.95 375.08L409.08 375.01L409.21 374.93L409.34 374.87L409.46 374.81L409.58 374.76L409.7 374.71L409.81 374.67L409.92 374.64L410.02 374.61L410.12 374.59L410.22 374.58L410.31 374.57L410.39 374.57L410.48 374.57L410.55 374.59L410.63 374.6L410.7 374.63L410.76 374.66L410.81 374.7L410.87 374.75L410.91 374.8L410.95 374.86L410.99 374.92L411.02 375L411.04 375.08L411.05 375.16L411.06 375.26L411.07 375.36L411.07 375.46L411.06 375.57L411.05 375.67L411.04 375.78L411.02 375.89L411 376L410.98 376.11L410.95 376.22L410.93 376.33L410.89 376.44L410.86 376.55L410.82 376.66L410.78 376.77L410.73 376.88L410.69 376.99L410.64 377.1L410.59 377.21L410.53 377.32L410.48 377.42L410.42 377.53L410.35 377.64L410.29 377.74L410.23 377.84L410.16 377.94L410.09 378.04L410.02 378.14L409.94 378.24L409.87 378.33L409.79 378.42L409.71 378.51L409.63 378.6L409.55 378.69L409.46 378.77L409.38 378.85L409.29 378.93L409.21 379L409.12 379.08L409.03 379.14L408.94 379.21L408.85 379.27L408.53 379.49L408.23 379.72L407.96 379.97L407.72 380.23L407.5 380.51L407.3 380.81L407.13 381.11L406.98 381.43L406.86 381.77L406.76 382.11L406.68 382.47L406.63 382.84L406.6 383.21L406.59 383.6L406.61 384L406.64 384.4L406.7 384.81L406.79 385.23L406.89 385.66L407.02 386.1L407.17 386.53L407.34 386.98L407.53 387.43L407.74 387.88L407.97 388.33L408.22 388.79L408.5 389.25L408.79 389.71L409.11 390.18L409.44 390.64L409.8 391.1L410.17 391.57L410.56 392.03L410.98 392.48L411.41 392.94L411.86 393.39L412.33 393.84L412.81 394.29L413.32 394.73L413.84 395.16L414.21 395.47L414.56 395.77L414.9 396.06L415.22 396.34L415.53 396.61L415.83 396.88L416.11 397.13L416.37 397.38L416.62 397.62L416.86 397.85L417.08 398.07L417.29 398.29L417.48 398.49L417.66 398.69L417.83 398.88L417.98 399.06L418.11 399.24L418.23 399.4L418.34 399.56L418.43 399.71L418.51 399.85L418.58 399.99L418.63 400.12L418.66 400.24L418.68 400.35L418.69 400.45L418.68 400.55L418.66 400.64L418.62 400.72L418.57 400.8L418.51 400.87L418.43 400.93L418.33 400.98L418.23 401.03L418.1 401.06L417.97 401.1L417.82 401.12L417.65 401.14L417.48 401.15L417.28 401.15L417.13 401.15L416.97 401.13L416.81 401.11L416.64 401.07L416.46 401.03L416.28 400.98L416.1 400.92L415.91 400.85L415.71 400.77L415.52 400.69L415.32 400.59L415.11 400.49L414.91 400.38L414.7 400.27L414.49 400.14L414.27 400.01L414.06 399.88L413.84 399.73L413.62 399.58L413.4 399.42L413.18 399.26L412.96 399.09L412.73 398.92L412.51 398.74L412.29 398.55L412.07 398.36L411.85 398.17L411.63 397.97L411.41 397.76L411.2 397.56L410.98 397.34L410.77 397.13L410.56 396.91L410.35 396.68L410.15 396.46L409.95 396.23L409.75 395.99L409.56 395.76L409.37 395.52L409.18 395.28L404.74 389.41L399.86 396.2L399.5 396.71L399.13 397.19L398.77 397.65L398.4 398.09L398.04 398.5L397.66 398.89L397.27 399.26L396.88 399.61L396.47 399.94L396.04 400.25L395.6 400.53L395.14 400.8L394.65 401.05L394.14 401.28L393.61 401.48L393.04 401.67L392.45 401.84L391.82 401.99L391.16 402.13L390.45 402.25L389.71 402.34L388.93 402.43L388.11 402.49L387.24 402.54L386.32 402.58L385.34 402.59L384.32 402.6L383.24 402.58L382.11 402.56L380.91 402.52L379.66 402.46L378.34 402.39L376.95 402.31L375.5 402.21L373.98 402.1L372.38 401.98L370.71 401.85L368.97 401.71L367.14 401.55L365.24 401.38L365.04 401.34L364.82 401.25L364.58 401.11L364.31 400.93L364.02 400.71L363.72 400.45L363.4 400.15L363.06 399.82L362.71 399.45L362.35 399.06L361.98 398.63L361.59 398.18L361.2 397.71L360.81 397.22L360.41 396.7L360 396.17L359.6 395.63L359.19 395.07L358.78 394.5L358.38 393.93L357.99 393.34L357.6 392.76L357.21 392.17L356.84 391.59L356.48 391.01L356.12 390.43L355.79 389.87L355.47 389.31L355.16 388.76L354.87 388.23L354.61 387.72L354.36 387.22L354.14 386.75L353.94 386.3L353.77 385.88L353.63 385.48L353.51 385.12L353.43 384.78L353.38 384.48L353.36 384.22L353.37 383.93L353.39 383.66L353.43 383.42L353.48 383.2L353.55 383.02L353.63 382.85L353.72 382.72L353.82 382.61L353.93 382.52L354.06 382.46L354.19 382.42L354.34 382.41L354.49 382.42L354.65 382.45L354.82 382.5L355 382.57L355.19 382.67L355.38 382.78L355.57 382.92L355.78 383.07L355.98 383.25L356.19 383.44L356.41 383.65L356.62 383.88L356.84 384.12L357.06 384.38L357.28 384.66L357.51 384.95L357.73 385.26L357.95 385.58L358.17 385.92L358.39 386.27L358.61 386.64L358.82 387.01L359.03 387.4L359.24 387.81L359.44 388.22L359.64 388.64L359.83 389.08L360.02 389.52L360.23 390.02L360.45 390.51L360.69 390.99L360.95 391.46L361.22 391.92L361.5 392.37L361.79 392.81L362.09 393.23L362.41 393.65L362.73 394.05L363.07 394.44L363.41 394.82L363.76 395.18L364.11 395.53L364.47 395.86L364.84 396.18L365.21 396.48L365.58 396.76L365.96 397.03L366.33 397.28L366.71 397.51L367.09 397.72L367.46 397.91L367.83 398.09L368.21 398.24L368.57 398.37L368.94 398.48L369.29 398.56L369.65 398.63L369.99 398.67L370.33 398.69L370.66 398.68L370.98 398.65L371.29 398.59L371.59 398.51L371.88 398.4L372.15 398.27L372.41 398.11L372.66 397.92L372.89 397.7L372.95 397.63L372.99 397.55L373.03 397.45L373.06 397.34L373.08 397.22L373.09 397.08L373.09 396.93L373.09 396.77L373.08 396.6L373.06 396.42L373.03 396.22L373 396.02L372.95 395.8L372.9 395.57L372.85 395.34L372.78 395.09L372.71 394.84L372.64 394.58L372.55 394.31L372.46 394.03L372.37 393.74L372.26 393.45L372.15 393.15L372.04 392.84L371.92 392.53L371.79 392.21L371.66 391.88L371.52 391.55L371.37 391.22L371.22 390.88L371.07 390.54L370.91 390.19L370.74 389.84L370.57 389.49L370.4 389.13L370.22 388.78L370.03 388.42L369.84 388.06L369.65 387.7L369.45 387.33L369.25 386.96L369.04 386.58L368.84 386.21L368.64 385.83L368.44 385.45L368.25 385.07L368.06 384.68L367.87 384.3L367.68 383.92L367.5 383.54L367.32 383.16L367.15 382.78L366.98 382.41L366.82 382.04L366.65 381.67L366.5 381.3L366.34 380.94L366.2 380.58L366.05 380.23L365.92 379.88L365.78 379.53L365.66 379.2L365.53 378.87L365.42 378.54L365.31 378.23L365.2 377.92L365.11 377.62L365.01 377.33L364.93 377.05L364.85 376.77L364.78 376.51L364.71 376.26L364.65 376.02L364.6 375.79L364.56 375.57L364.52 375.36L364.5 375.17L364.48 374.99L364.46 374.82L364.46 374.67L364.44 374.22L364.39 373.8L364.3 373.42L364.19 373.08L364.04 372.76L363.87 372.48L363.67 372.23L363.44 372.01L363.19 371.83L362.92 371.67L362.62 371.54L362.31 371.45L361.98 371.38L361.63 371.34L361.26 371.33L360.89 371.35L360.5 371.39L360.1 371.47L359.69 371.56L359.27 371.69L358.85 371.84L358.42 372.01L357.99 372.21L357.56 372.43L357.12 372.67L356.69 372.94L356.26 373.23L355.83 373.54L355.41 373.87L355 374.23L354.6 374.6L354.2 375L353.82 375.41L353.45 375.84L353.1 376.3L352.76 376.76L352.43 377.25L352.13 377.76L351.85 378.28L351.59 378.81L351.32 379.44L351.07 380.09L350.85 380.76L350.65 381.46L350.48 382.18L350.33 382.93L350.21 383.71L350.11 384.51L350.04 385.33L349.99 386.19L349.97 387.07L349.97 387.97L350 388.9L350.05 389.86L350.13 390.85L350.23 391.86L350.36 392.9L350.51 393.97L350.69 395.06L350.89 396.19L351.12 397.34L351.38 398.52L351.66 399.73L351.96 400.97L352.29 402.23L352.65 403.53L353.03 404.86L353.44 406.21L353.87 407.6L354.33 409.01L354.82 410.46L355.33 411.94L355.87 413.44L356.43 414.98L357.02 416.55L357.63 418.15L358.27 419.78L358.94 421.45L359.63 423.14L360.35 424.87L360.91 426.25L361.46 427.68L361.99 429.16L362.5 430.67L363.01 432.22L363.49 433.8L363.96 435.42L364.41 437.05L364.85 438.71L365.26 440.38L365.66 442.06L366.04 443.75L366.4 445.45L366.74 447.14L367.06 448.84L367.36 450.52L367.63 452.19L367.89 453.85L368.12 455.49L368.33 457.1L368.52 458.69L368.68 460.24L368.81 461.76L368.93 463.24L369.01 464.67L369.07 466.06L369.11 467.39L369.11 468.67L369.09 469.89L369.05 471.04L368.97 472.13L368.86 473.14L368.73 474.08L368.56 474.94L368.36 475.71L368.13 476.4L367.87 477L367.58 477.49L367.26 477.89L366.9 478.19L366.78 478.26L366.66 478.3L366.54 478.33L366.43 478.34L366.32 478.32L366.21 478.28L366.11 478.23L366.01 478.15L365.91 478.05L365.82 477.93L365.73 477.78L365.64 477.62L365.56 477.43L365.47 477.22L365.4 476.99L365.32 476.73L365.25 476.45L365.18 476.15L365.12 475.83L365.06 475.48L365 475.11L364.94 474.72L364.89 474.3L364.84 473.86L364.79 473.4L364.75 472.91L364.71 472.39L364.67 471.86L364.64 471.29L364.61 470.71L364.58 470.1L364.55 469.46L364.53 468.8L364.51 468.11L364.5 467.4L364.48 466.66L364.47 465.9L364.46 465.11L364.46 464.29L364.46 463.45L364.46 462.46L364.45 461.5L364.43 460.55L364.41 459.64L364.38 458.74L364.35 457.85L364.31 456.99L364.26 456.14L364.2 455.3L364.13 454.48L364.05 453.66L363.97 452.85L363.87 452.05L363.77 451.26L363.65 450.47L363.53 449.68L363.39 448.89L363.24 448.1L363.08 447.31L362.91 446.51L362.72 445.7L362.52 444.89L362.31 444.07L362.09 443.24L361.85 442.39L361.59 441.53L361.33 440.65L361.04 439.76L360.75 438.85L360.43 437.91L360.1 436.96L359.76 435.97L359.39 434.97L359.01 433.93L358.62 432.87L358.2 431.78L357.77 430.65L357.32 429.49L356.85 428.29L356.36 427.06L355.64 425.22L354.95 423.39L354.28 421.57L353.64 419.76L353.03 417.97L352.45 416.2L351.89 414.44L351.36 412.7L350.86 410.98L350.39 409.29L349.95 407.61L349.53 405.96L349.14 404.32L348.79 402.72L348.46 401.14L348.15 399.59L347.88 398.07L347.64 396.57L347.43 395.11L347.24 393.68L347.09 392.28L346.97 390.92L346.87 389.59L346.81 388.3L346.78 387.05L346.77 385.83L346.8 384.66L346.86 383.52L346.95 382.43L347.07 381.38L347.23 380.37L347.41 379.42L347.62 378.5L347.87 377.64L348.15 376.82L348.46 376.06L348.81 375.34L349.18 374.68L349.59 374.07L350.03 373.51L350.36 373.15L350.73 372.78L351.14 372.38L351.58 371.98L352.06 371.57L352.57 371.14L353.12 370.71L353.68 370.26L354.28 369.82L354.9 369.36L355.54 368.91L356.19 368.45L356.87 367.99L357.56 367.53L358.26 367.07L358.98 366.61L359.7 366.16L360.43 365.71L361.16 365.27L361.89 364.84L362.63 364.41L363.36 364L364.09 363.59L364.81 363.2L365.52 362.82L366.22 362.46L366.91 362.12L367.58 361.79L368.23 361.48L368.87 361.19L369.48 360.92L370.07 360.68L370.64 360.46L371.17 360.26L371.68 360.1L372.15 359.96L372.59 359.84L372.99 359.76L373.35 359.71L373.67 359.7L373.77 359.69L373.87 359.67L373.99 359.64L374.12 359.6L374.25 359.55L374.4 359.49L374.55 359.41L374.71 359.33L374.88 359.24L375.06 359.13L375.24 359.02L375.43 358.89L375.63 358.76L375.83 358.62L376.04 358.47L376.26 358.31L376.48 358.14L376.71 357.97L376.94 357.79L377.18 357.59L377.42 357.4L377.67 357.19L377.92 356.98L378.17 356.76L378.42 356.54L378.68 356.31L378.94 356.07L379.21 355.83L379.47 355.58L379.74 355.32L380.01 355.07L380.28 354.8L380.55 354.54L380.82 354.26L381.09 353.99L381.36 353.71L381.63 353.43L381.9 353.14L382.17 352.85L382.44 352.56L382.82 352.13L383.19 351.73L383.55 351.34L383.9 350.96L384.25 350.6L384.59 350.26L384.93 349.93L385.26 349.62L385.58 349.32L385.9 349.04L386.22 348.78L386.53 348.52L386.84 348.28L387.14 348.06L387.45 347.85L387.75 347.65L388.05 347.46L388.35 347.29L388.65 347.13L388.94 346.99L389.24 346.85L389.54 346.73L389.84 346.62L390.14 346.52L390.44 346.43L390.75 346.36L391.06 346.29L391.37 346.24L391.68 346.19L392 346.16L392.33 346.14L392.66 346.12L392.99 346.12L393.33 346.12L393.68 346.14L394.04 346.16L394.4 346.19L394.77 346.23L395.15 346.28L395.53 346.34L402.19 347.37L402.19 313.75L402.19 312.04L402.2 310.37L402.21 308.74L402.22 307.15L402.23 305.61L402.25 304.11L402.27 302.66L402.3 301.24L402.32 299.87L402.36 298.54L402.39 297.25L402.43 296.01L402.47 294.8L402.52 293.64L402.56 292.51L402.62 291.43L402.67 290.39L402.73 289.39L402.79 288.43L402.86 287.51L402.92 286.63L403 285.79L403.07 284.99L403.15 284.23L403.23 283.5L403.32 282.82L403.4 282.18L403.5 281.57L403.59 281L403.69 280.47L403.79 279.98L403.89 279.53L404 279.11L404.11 278.74L404.23 278.39L404.35 278.09L404.47 277.83L404.59 277.6L404.72 277.4L404.85 277.25L405.52 276.59L406.18 276.02L406.84 275.52L407.5 275.09L408.15 274.73L408.79 274.45L409.43 274.24L410.06 274.1L410.69 274.02L411.3 274.02L411.91 274.08L412.51 274.21ZM370.71 364.73L369.96 364.89L369.18 365.1L368.39 365.37L367.57 365.68L367.12 366.01L366.8 366.5L366.58 367.15L366.47 367.95L366.46 368.88L366.54 369.94L366.73 371.1L367 372.35L367.36 373.69L367.8 375.09L368.32 376.55L368.92 378.05L369.59 379.58L370.33 381.13L371.13 382.68L372 384.22L372.92 385.74L373.89 387.22L374.24 387.76L374.58 388.31L374.91 388.86L375.23 389.41L375.54 389.95L375.84 390.5L376.12 391.03L376.38 391.56L376.62 392.07L376.85 392.56L377.06 393.04L377.24 393.5L377.4 393.93L377.53 394.33L377.63 394.71L377.71 395.05L377.76 395.35L377.78 395.62L377.83 396.19L377.98 396.73L378.22 397.24L378.54 397.72L378.94 398.17L379.4 398.59L379.93 398.96L380.52 399.3L381.15 399.58L381.82 399.82L382.52 400.01L383.25 400.14L384 400.22L384.76 400.24L385.52 400.2L386.28 400.08L387.03 399.91L387.76 399.65L388.67 399.14L389.39 398.39L389.94 397.45L390.3 396.31L390.5 394.99L390.53 393.5L390.4 391.87L390.1 390.11L389.65 388.23L389.05 386.24L388.3 384.16L387.4 382.01L386.37 379.79L385.19 377.53L383.89 375.24L382.46 372.94L380.9 370.63L379.22 368.33L378.71 367.71L378.19 367.14L377.66 366.63L377.12 366.18L376.55 365.78L375.98 365.45L375.38 365.16L374.77 364.93L374.14 364.76L373.49 364.65L372.83 364.59L372.14 364.58L371.43 364.63L370.71 364.73ZM389.85 379.4L390.37 381.19L391.54 383.99L392.35 385.52L393.31 386.85L394.35 387.92L395.42 388.7L396.47 389.14L397.42 389.18L399.7 388.35L401.01 387.12L401.36 385.62L400.74 383.97L399.17 382.31L396.64 380.77L393.37 379.3L391.22 378.53L390.09 378.54L389.85 379.4ZM385.95 359.93L384.72 360.2L383.68 360.56L382.89 360.99L382.39 361.47L382.21 362L382.2 362.57L382.16 363.17L382.1 363.77L382.02 364.36L381.92 364.92L381.8 365.4L381.66 365.8L381.71 366.11L382.14 366.43L382.88 366.75L383.92 367.06L385.19 367.34L386.67 367.58L388.32 367.76L390.53 367.88L392.27 367.83L393.58 367.59L394.51 367.12L395.11 366.39L395.43 365.39L395.53 364.07L395.42 362.78L395.09 361.74L394.48 360.95L393.59 360.37L392.38 359.98L390.81 359.76L388.87 359.7L387.35 359.76L385.95 359.93ZM408.51 279.16L408.29 279.19L408.08 279.23L407.88 279.28L407.7 279.35L407.53 279.42L407.37 279.51L407.22 279.61L407.09 279.72L406.97 279.84L406.87 279.97L406.78 280.12L406.72 280.27L406.67 280.44L406.64 280.62L406.63 280.82L406.5 285.21L406.38 289.45L406.27 293.54L406.17 297.49L406.08 301.3L406 304.96L405.94 308.49L405.88 311.88L405.83 315.14L405.79 318.26L405.76 321.25L405.74 324.11L405.73 326.84L405.74 329.45L405.75 331.94L405.77 334.3L405.81 336.55L405.85 338.67L405.91 340.68L405.98 342.58L406.06 344.37L406.14 346.04L406.25 347.61L406.36 349.08L406.48 350.44L406.62 351.69L406.76 352.85L406.92 353.91L407.09 354.87L407.27 355.74L407.46 356.52L407.67 357.21L407.88 357.81L408.11 358.32L408.35 358.75L408.6 359.1L408.87 359.36L409.15 359.55L409.43 359.66L409.74 359.7L409.92 359.7L410.11 359.71L410.31 359.73L410.51 359.75L410.71 359.78L410.92 359.82L411.13 359.86L411.35 359.91L411.57 359.96L411.79 360.02L412.02 360.08L412.24 360.15L412.47 360.23L412.7 360.31L412.93 360.39L413.17 360.48L413.4 360.58L413.64 360.68L413.87 360.78L414.11 360.89L414.34 361L414.58 361.12L414.81 361.24L415.04 361.36L415.27 361.49L415.5 361.62L415.73 361.75L415.96 361.89L416.18 362.03L416.4 362.17L416.62 362.32L416.83 362.47L417.04 362.62L417.25 362.77L417.45 362.93L417.65 363.08L417.84 363.24L418.03 363.4L418.21 363.56L418.39 363.73L418.71 364.01L419.01 364.28L419.3 364.54L419.57 364.78L419.82 365L420.06 365.21L420.29 365.39L420.5 365.56L420.7 365.72L420.89 365.85L421.06 365.96L421.22 366.05L421.37 366.13L421.5 366.18L421.62 366.21L421.73 366.21L421.83 366.2L421.92 366.16L421.99 366.1L422.05 366.02L422.11 365.91L422.15 365.77L422.18 365.61L422.2 365.43L422.22 365.21L422.22 364.98L422.21 364.71L422.2 364.42L422.17 364.09L422.14 363.74L422.1 363.36L422.05 362.95L421.99 362.51L421.92 362.04L421.85 361.54L421.77 361.01L421.69 360.44L421.59 359.84L421.49 359.21L421.39 358.54L421.33 358.15L421.27 357.72L421.22 357.27L421.16 356.79L421.1 356.28L421.05 355.75L420.99 355.19L420.94 354.61L420.89 354L420.84 353.37L420.78 352.73L420.73 352.06L420.69 351.37L420.64 350.66L420.59 349.94L420.55 349.2L420.5 348.45L420.46 347.68L420.42 346.9L420.38 346.11L420.34 345.3L420.3 344.49L420.26 343.67L420.23 342.83L420.2 341.99L420.17 341.15L420.14 340.3L420.11 339.44L420.09 338.58L420.06 337.72L420.04 336.86L420.02 335.99L420 335.13L419.99 334.27L419.98 333.41L419.97 332.55L419.96 331.7L419.95 330.85L419.95 330.01L419.95 329.18L419.95 309.03L413.84 308.68L413.46 308.67L413.1 308.65L412.75 308.63L412.43 308.61L412.12 308.6L411.83 308.58L411.56 308.56L411.31 308.54L411.08 308.52L410.86 308.5L410.66 308.48L410.48 308.46L410.32 308.44L410.18 308.42L410.06 308.39L409.95 308.37L409.86 308.35L409.79 308.32L409.74 308.29L409.71 308.27L409.69 308.24L409.69 308.21L409.71 308.18L409.75 308.14L409.81 308.11L409.88 308.08L409.97 308.04L410.08 308L410.2 307.96L410.35 307.92L410.51 307.88L410.69 307.84L410.88 307.79L411.09 307.74L411.32 307.69L411.57 307.64L411.84 307.59L412.12 307.53L412.42 307.48L412.73 307.42L413.15 307.3L413.55 307.11L413.94 306.87L414.31 306.56L414.67 306.21L415.01 305.79L415.33 305.33L415.64 304.82L415.93 304.27L416.2 303.68L416.46 303.05L416.7 302.39L416.92 301.69L417.12 300.97L417.3 300.22L417.47 299.45L417.61 298.65L417.74 297.85L417.85 297.02L417.93 296.19L418 295.35L418.05 294.5L418.07 293.65L418.08 292.81L418.06 291.97L418.02 291.13L417.96 290.31L417.88 289.49L417.78 288.7L417.65 287.92L417.5 287.16L417.32 286.44L417.13 285.73L416.91 285.06L416.66 284.42L416.39 283.82L416.1 283.26L415.78 282.75L415.43 282.28L415.06 281.85L414.83 281.62L414.6 281.41L414.35 281.2L414.1 281L413.84 280.81L413.58 280.63L413.31 280.46L413.04 280.3L412.76 280.15L412.48 280.01L412.2 279.88L411.92 279.76L411.64 279.65L411.36 279.55L411.08 279.46L410.8 279.38L410.52 279.31L410.25 279.26L409.99 279.21L409.72 279.18L409.47 279.15L409.21 279.14L408.97 279.13L408.73 279.14L408.51 279.16ZM389.18 351.42L386.99 352.56L386.21 353.12L385.78 353.64L385.71 354.12L386 354.58L386.68 355.02L387.74 355.46L389.21 355.9L392.75 356.75L395.68 357.23L397.98 357.34L399.64 357.07L400.66 356.41L401.03 355.37L400.75 353.94L399.82 352.5L398.27 351.44L396.27 350.78L393.99 350.55L391.57 350.76L389.18 351.42Z" id="b81ADhCTd"></path><path d="M523.6 371.21C525.81 371.21 529.7 371.9 532.25 372.59C536.02 373.63 537.36 372.59 538.47 367.76C540.91 357.74 547.57 361.08 547.57 372.36C547.57 380.65 547.01 381.69 541.46 382.27C533.14 383.3 532.14 398.04 540.35 399.31C546.57 400.23 550.12 416.35 545.35 421.53C541.79 425.45 537.58 423.15 537.58 417.16C537.58 413.47 536.02 412.67 528.7 412.67C520.71 412.67 519.82 413.24 519.82 418.54C519.82 449.29 561.22 448.48 565.32 417.73C566.76 406.68 564.32 395.97 559.77 393.09C558 391.94 558.22 390.44 560.44 387.68C577.31 367.41 557.33 336.32 534.25 346.8C524.37 351.17 515.72 371.21 523.6 371.21Z" id="aerMZy5TK"></path><path d="M473.77 393.32L466.78 407.6L459.79 421.88C465.05 421.88 467.97 421.88 468.55 421.88C476.43 421.88 477.43 421.19 478.76 414.97C480.87 404.95 483.87 404.38 485.53 413.7C486.97 421.42 487.53 421.88 495.63 421.88C506.06 421.88 505.95 422.57 497.41 405.99C496.95 405.1 494.65 400.69 490.53 392.75C493.65 386.6 495.39 383.18 495.74 382.5C505.17 364.07 505.17 364.3 495.63 364.3C487.75 364.3 486.97 364.88 485.64 371.67C484.2 379.27 480.98 378.47 479.54 370.06C478.87 366.49 476.65 365.34 469.22 364.76C468.59 364.72 465.45 364.49 459.79 364.07L466.78 378.7L473.77 393.32Z" id="b3dRsGWEBB"></path><path d="M384.32 439.04C385.77 439.96 386.65 438 386.65 433.85C386.65 430.17 388.1 422.22 389.87 416.01C393.76 402.76 392.65 399.65 388.1 410.94C383.44 422.57 381.44 437.19 384.32 439.04Z" id="b44uck9ddp"></path><path d="M106.62 134L111.05 134.01L115.25 134.03L119.26 134.06L123.06 134.09L126.68 134.13L130.11 134.18L133.35 134.24L136.43 134.32L139.34 134.4L142.09 134.51L144.69 134.62L147.14 134.76L149.46 134.91L151.63 135.08L153.69 135.26L155.62 135.47L157.43 135.7L159.14 135.95L160.75 136.23L162.27 136.53L163.69 136.85L165.04 137.2L166.31 137.58L167.51 137.99L168.65 138.43L169.74 138.89L170.77 139.39L171.77 139.92L172.72 140.49L173.65 141.09L174.56 141.72L175.45 142.39L176.32 143.1L177.2 143.85L178.08 144.63L178.97 145.46L179.87 146.33L180.8 147.24L181.56 148L182.29 148.74L182.98 149.49L183.63 150.27L184.25 151.09L184.83 151.97L185.38 152.93L185.9 153.99L186.39 155.16L186.85 156.47L187.27 157.93L187.68 159.55L188.05 161.37L188.4 163.39L188.72 165.63L189.02 168.12L189.29 170.86L189.54 173.88L189.77 177.2L189.98 180.83L190.17 184.8L190.34 189.11L190.5 193.8L190.63 198.87L190.76 204.34L190.86 210.24L190.95 216.57L191.03 223.37L191.1 230.64L191.16 238.41L191.21 246.69L191.25 255.5L191.28 264.86L191.3 274.78L191.32 285.29L191.33 296.41L191.33 308.14L191.34 320.52L191.34 333.55L191.34 347.26L191.34 524.83L186.12 534.96L185.39 536.4L184.67 537.77L183.96 539.08L183.26 540.32L182.56 541.49L181.85 542.6L181.12 543.65L180.36 544.64L179.58 545.57L178.75 546.45L177.88 547.28L176.96 548.05L175.97 548.77L174.92 549.44L173.79 550.07L172.58 550.65L171.28 551.18L169.88 551.68L168.37 552.13L166.76 552.55L165.03 552.93L163.17 553.27L161.17 553.58L159.04 553.86L156.76 554.11L154.32 554.33L151.72 554.53L148.95 554.7L146 554.85L142.87 554.97L139.54 555.08L136.02 555.17L132.29 555.24L128.34 555.3L124.18 555.35L119.79 555.39L115.16 555.41L110.29 555.43L105.17 555.45L99.79 555.46L35.98 555.46L35.98 134L97.12 134L101.99 134L106.62 134ZM103.12 548.09L107.15 548.04L111.01 548L114.69 547.96L118.21 547.91L121.55 547.87L124.74 547.82L127.77 547.78L130.65 547.73L133.38 547.67L135.96 547.62L138.41 547.56L140.73 547.5L142.91 547.44L144.97 547.37L146.92 547.29L148.74 547.22L150.46 547.13L152.07 547.04L153.57 546.95L154.98 546.85L156.3 546.74L157.53 546.63L158.68 546.51L159.74 546.38L160.73 546.24L161.66 546.1L162.52 545.94L163.31 545.78L164.05 545.61L164.74 545.43L165.39 545.24L165.99 545.04L166.55 544.83L167.08 544.61L167.58 544.37L168.05 544.13L168.51 543.87L168.95 543.6L169.39 543.32L169.81 543.02L170.78 542.36L171.69 541.74L172.56 541.15L173.37 540.56L174.15 539.95L174.87 539.31L175.56 538.6L176.2 537.81L176.8 536.92L177.36 535.91L177.88 534.75L178.37 533.42L178.82 531.91L179.23 530.19L179.62 528.25L179.97 526.05L180.29 523.58L180.58 520.82L180.85 517.75L181.09 514.35L181.3 510.59L181.5 506.45L181.66 501.92L181.81 496.96L181.94 491.57L182.05 485.72L182.15 479.39L182.23 472.55L182.29 465.19L182.34 457.29L182.38 448.82L182.41 439.77L182.44 430.11L182.45 419.82L182.46 408.88L182.46 397.26L182.47 384.96L182.46 371.94L182.46 358.19L182.46 343.69L182.46 161.52L174.92 153L167.26 144.36L105 143.67L42.64 142.98L42.64 548.78L103.12 548.09Z" id="cktNRUBvl"></path><path d="M75.27 306.1L75.39 306.21L75.48 306.38L75.56 306.57L75.69 306.76L75.85 306.95L76.05 307.13L76.29 307.3L76.56 307.47L76.87 307.63L77.21 307.78L77.58 307.93L77.98 308.07L78.41 308.2L78.86 308.33L79.34 308.44L79.84 308.55L80.35 308.64L80.89 308.73L81.44 308.81L82.01 308.87L82.6 308.93L83.19 308.97L83.8 309L84.41 309.02L85.03 309.03L93.68 309.03L93.68 338.51L84.81 337.24L84.06 337.14L83.34 337.06L82.65 337L82 336.94L81.38 336.91L80.79 336.89L80.24 336.88L79.72 336.89L79.23 336.91L78.78 336.95L78.36 337L77.97 337.06L77.62 337.14L77.3 337.23L77.01 337.33L76.76 337.45L76.54 337.58L76.35 337.72L76.2 337.88L76.08 338.05L76 338.23L75.94 338.42L75.93 338.62L75.91 339.24L75.84 339.77L75.73 340.22L75.58 340.58L75.39 340.86L75.16 341.06L74.9 341.17L74.59 341.2L74.24 341.15L73.86 341.02L73.44 340.8L72.99 340.51L72.51 340.14L71.99 339.69L71.43 339.16L70.85 338.55L70.23 337.87L69.59 337.11L68.91 336.27L68.21 335.36L67.48 334.37L66.72 333.31L65.94 332.17L59.95 322.96L67.27 313.4L67.79 312.73L68.3 312.07L68.81 311.44L69.31 310.84L69.8 310.27L70.28 309.73L70.75 309.22L71.2 308.74L71.64 308.3L72.07 307.89L72.47 307.52L72.86 307.18L73.23 306.89L73.57 306.63L73.89 306.42L74.19 306.25L74.46 306.13L74.71 306.05L74.93 306.01L75.11 306.03L75.27 306.1ZM74.33 319.26L72.89 320.53L72.24 322.2L72.51 324.18L73.82 326.42L75.15 327.87L76.49 328.88L77.86 329.43L79.24 329.53L80.67 329.17L82.14 328.36L83.66 327.1L85.25 325.38L86.31 324.06L87.07 322.99L87.53 322.14L87.71 321.47L87.59 320.92L87.2 320.46L86.53 320.04L85.58 319.62L82.2 318.57L79.11 318.21L76.45 318.46L74.33 319.26Z" id="b1aOg58Sx"></path><path d="M80.59 359.93C86.25 351.98 89.91 352.67 87.8 361.31C86.8 365.8 87.14 366.95 89.47 366.14C91.35 365.45 92.57 361.88 92.57 357.16C92.57 346.68 82.03 344.15 77.81 353.82C74.37 361.65 68.27 361.77 70.16 353.94C71.71 347.84 67.83 345.65 65.72 351.52C60.72 364.88 72.38 371.44 80.59 359.93Z" id="a1L468l5hm"></path><path d="M74.6 378.12C84.36 378.12 91.02 382.5 88.25 387.22C87.36 388.6 81.81 389.64 75.82 389.64C67.49 389.64 64.83 390.44 64.83 393.09C64.83 397.24 82.48 398.04 89.36 394.13C95.46 390.79 95.13 379.39 88.8 374.78C82.14 370.06 64.83 369.94 64.83 374.67C64.83 377.2 67.38 378.12 74.6 378.12Z" id="d7dGejUJ7E"></path><path d="M81.84 401.4L83.06 401.7L84.23 402.12L85.34 402.65L86.41 403.29L87.41 404.03L88.35 404.87L89.22 405.8L90.03 406.83L90.76 407.94L91.42 409.14L92 410.42L92.5 411.78L92.92 413.21L93.25 414.71L93.49 416.27L93.63 417.89L93.68 419.58L93.68 428.79L64.83 428.79L64.83 419.58L64.84 418.62L64.88 417.7L64.94 416.8L65.02 415.92L65.13 415.07L65.27 414.24L65.42 413.44L65.61 412.66L65.81 411.91L66.05 411.18L66.3 410.48L66.58 409.8L66.89 409.15L67.22 408.52L67.58 407.92L67.97 407.34L68.37 406.79L68.81 406.26L69.27 405.76L69.67 405.36L70.11 404.97L70.57 404.6L71.06 404.23L71.57 403.88L72.1 403.55L72.64 403.23L73.2 402.92L73.77 402.64L74.34 402.38L74.92 402.13L75.5 401.91L76.07 401.72L76.64 401.55L77.19 401.41L77.74 401.3L78.26 401.22L78.77 401.17L79.26 401.15L80.57 401.21L81.84 401.4ZM76.3 408.69L74.9 409.43L73.58 410.42L72.39 411.6L71.35 412.96L70.48 414.46L69.83 416.06L69.41 417.74L69.27 419.46L69.4 419.86L69.78 420.24L70.38 420.59L71.19 420.91L72.18 421.19L73.34 421.43L74.65 421.62L76.09 421.76L77.63 421.85L79.26 421.88L82.09 421.83L84.4 421.65L86.22 421.32L87.56 420.82L88.45 420.11L88.92 419.17L88.97 417.97L88.64 416.48L87.95 414.69L86.91 412.55L86.49 411.81L85.95 411.11L85.31 410.46L84.59 409.88L83.79 409.36L82.94 408.91L82.05 408.55L81.13 408.28L80.19 408.12L79.26 408.06L77.76 408.22L76.3 408.69Z" id="boMv7ZdTj"></path><path d="M77.04 442.61C67.72 442.61 64.83 443.41 64.83 446.06C64.83 448.82 67.94 449.52 79.26 449.52C80.22 449.52 85.03 449.52 93.68 449.52C93.68 443.99 93.68 440.92 93.68 440.3C93.68 435.24 92.68 431.09 91.46 431.09C90.24 431.09 89.24 433.62 89.24 436.85C89.24 442.26 88.58 442.61 77.04 442.61Z" id="aA3eQcFdd"></path><path d="M76.48 464.37C68.38 464.37 64.83 465.18 64.83 467.25C64.83 469.44 68.94 470.24 79.26 470.24C80.22 470.24 85.03 470.24 93.68 470.24C93.68 465.48 93.68 462.83 93.68 462.3C93.68 452.62 89.8 449.29 88.8 458.15C88.14 464.14 87.58 464.49 76.48 464.37Z" id="c6aJHIjqmJ"></path><path d="M64.83 495.58L79.26 495.58L93.68 495.58C93.68 490.05 93.68 486.98 93.68 486.36C93.68 476.12 89.91 473.7 88.8 483.26C87.91 491.55 82.59 493.27 82.59 485.44C82.59 481.64 81.37 479.46 79.26 479.46C77.15 479.46 75.93 481.64 75.93 485.21C75.93 488.78 74.71 490.97 72.6 490.97C70.38 490.97 69.27 488.67 69.27 484.06C69.27 480.26 68.27 477.15 67.05 477.15C65.83 477.15 64.83 481.3 64.83 486.36C64.83 487.59 64.83 490.66 64.83 495.58Z" id="bd7UCf4Sh"></path><path d="M67.05 520.91C68.27 520.91 69.27 519.3 69.27 517.46C69.27 514.81 72.15 514 81.48 514C90.8 514 93.68 513.2 93.68 510.55C93.68 507.9 90.8 507.09 81.48 507.09C72.15 507.09 69.27 506.29 69.27 503.64C69.27 501.68 68.27 500.18 67.05 500.18C65.83 500.18 64.83 504.79 64.83 510.55C64.83 516.19 65.83 520.91 67.05 520.91Z" id="e2Hpkcq0M2"></path></defs><g><g><g><use xlink:href="#a4tDTK3XtU" opacity="1" fill="#000000" fill-opacity="1"></use><g><use xlink:href="#a4tDTK3XtU" opacity="1" fill-opacity="0" stroke="#000000" stroke-width="0" stroke-opacity="0"></use></g></g><g><use xlink:href="#b81ADhCTd" opacity="1" fill="#000000" fill-opacity="1"></use><g><use xlink:href="#b81ADhCTd" opacity="1" fill-opacity="0" stroke="#000000" stroke-width="0" stroke-opacity="0"></use></g></g><g><use xlink:href="#aerMZy5TK" opacity="1" fill="#000000" fill-opacity="1"></use><g><use xlink:href="#aerMZy5TK" opacity="1" fill-opacity="0" stroke="#000000" stroke-width="0" stroke-opacity="0"></use></g></g><g><use xlink:href="#b3dRsGWEBB" opacity="1" fill="#000000" fill-opacity="1"></use><g><use xlink:href="#b3dRsGWEBB" opacity="1" fill-opacity="0" stroke="#000000" stroke-width="0" stroke-opacity="0"></use></g></g><g><use xlink:href="#b44uck9ddp" opacity="1" fill="#000000" fill-opacity="1"></use><g><use xlink:href="#b44uck9ddp" opacity="1" fill-opacity="0" stroke="#000000" stroke-width="0" stroke-opacity="0"></use></g></g><g><use xlink:href="#cktNRUBvl" opacity="1" fill="#000000" fill-opacity="1"></use><g><use xlink:href="#cktNRUBvl" opacity="1" fill-opacity="0" stroke="#000000" stroke-width="0" stroke-opacity="0"></use></g></g><g><use xlink:href="#b1aOg58Sx" opacity="1" fill="#000000" fill-opacity="1"></use><g><use xlink:href="#b1aOg58Sx" opacity="1" fill-opacity="0" stroke="#000000" stroke-width="0" stroke-opacity="0"></use></g></g><g><use xlink:href="#a1L468l5hm" opacity="1" fill="#000000" fill-opacity="1"></use><g><use xlink:href="#a1L468l5hm" opacity="1" fill-opacity="0" stroke="#000000" stroke-width="0" stroke-opacity="0"></use></g></g><g><use xlink:href="#d7dGejUJ7E" opacity="1" fill="#000000" fill-opacity="1"></use><g><use xlink:href="#d7dGejUJ7E" opacity="1" fill-opacity="0" stroke="#000000" stroke-width="0" stroke-opacity="0"></use></g></g><g><use xlink:href="#boMv7ZdTj" opacity="1" fill="#000000" fill-opacity="1"></use><g><use xlink:href="#boMv7ZdTj" opacity="1" fill-opacity="0" stroke="#000000" stroke-width="0" stroke-opacity="0"></use></g></g><g><use xlink:href="#aA3eQcFdd" opacity="1" fill="#000000" fill-opacity="1"></use><g><use xlink:href="#aA3eQcFdd" opacity="1" fill-opacity="0" stroke="#000000" stroke-width="0" stroke-opacity="0"></use></g></g><g><use xlink:href="#c6aJHIjqmJ" opacity="1" fill="#000000" fill-opacity="1"></use><g><use xlink:href="#c6aJHIjqmJ" opacity="1" fill-opacity="0" stroke="#000000" stroke-width="0" stroke-opacity="0"></use></g></g><g><use xlink:href="#bd7UCf4Sh" opacity="1" fill="#000000" fill-opacity="1"></use><g><use xlink:href="#bd7UCf4Sh" opacity="1" fill-opacity="0" stroke="#000000" stroke-width="0" stroke-opacity="0"></use></g></g><g><use xlink:href="#e2Hpkcq0M2" opacity="1" fill="#000000" fill-opacity="1"></use><g><use xlink:href="#e2Hpkcq0M2" opacity="1" fill-opacity="0" stroke="#000000" stroke-width="0" stroke-opacity="0"></use></g></g></g></g></svg>