<?xml version="1.0" encoding="utf-8"?>
<!-- Generator: Adobe Illustrator 21.0.0, SVG Export Plug-In . SVG Version: 6.00 Build 0)  -->
<svg version="1.1" id="Layer_1" xmlns="http://www.w3.org/2000/svg" xmlns:xlink="http://www.w3.org/1999/xlink" x="0px" y="0px"
	 viewBox="0 0 1406 1328.7" style="enable-background:new 0 0 1406 1328.7;" xml:space="preserve">
<path d="M1394.8,538.3c-16.9-18.9-36.3-35.9-56-52C1168.7,347.4,998.2,208.9,828,70.2c-22.2-18.1-43.4-37.5-66-55
	c-26.1-20.1-33.2-19.7-59.5-2.1c-5.3,3.5-10.2,7.7-15.2,11.6c-89.7,68.7-179.2,137.6-269.1,206c-130.4,99.2-261.2,198-391.7,297.1
	C20,532.5,13.1,537,8.1,543c-14.9,17.7-8.6,38.8,14,43.7c13.8,3,28.5,2,42.8,2.1c34.6,0.2,69.2,0.1,107.3,0.1
	c0.9,22.6,2.1,39.7,2.1,56.8c0.1,210.4,0,420.7,0.1,631.1c0,50.7,1,51.4,49.9,51.9c6.4,0.1,12.7,0,19.1,0c302.8,0,605.6,0,908.4,0
	c68.3,0,68.4,0,68.4-68.3c0-205.6,0-411.2,0.1-616.8c0-16.9,1.3-33.7,2.1-52c14.2-1.1,23.5-2.3,32.8-2.4
	c39.8-0.4,79.8,1.4,119.5-1.1C1406.2,586.3,1415.8,561.7,1394.8,538.3z M440.2,883.6l-0.3,0.3c0.5-0.5,47-52.6,47-120.2
	c0-67.6-46.5-119.7-47-120.2l0.3,0.3l83-77.4c2.1,2.2,20.8,22.7,39.2,56.1c24.9,45.2,38,94,38,141.2c0,47.2-13.1,96.1-38,141.2
	c-18.4,33.3-37.1,53.8-39.2,56.1L440.2,883.6z M556.3,986.7l-0.2,0.2c0.9-0.9,87.2-96.4,87.2-223.2c0-66.5-24-124-44.1-160.5
	c-21.6-39.2-42.7-62.3-42.9-62.5l83-77.4c4.8,5.1,117.5,128,117.5,300.4S644,1058.9,639.2,1064.1L556.3,986.7z M762.2,1169.7
	l-85.8-80l-0.1,0.1c0.3-0.4,32.9-35.9,64.7-94.6c28.6-52.6,62.6-135.4,62.6-231.5c0-187.4-125.9-324.6-127.2-326l85.8-80
	c6.5,7,158.7,172.9,158.7,406C921,996.8,768.7,1162.8,762.2,1169.7z"/>
</svg>
