<svg id="svg" version="1.1" width="515" height="515" xmlns="http://www.w3.org/2000/svg" xmlns:xlink="http://www.w3.org/1999/xlink" style="display: block;"><g id="svgg"><path id="path0" d="M262.738 13.662 C 261.769 13.931,261.233 14.567,261.547 15.076 C 261.861 15.584,261.255 16.000,260.199 16.000 C 259.144 16.000,257.435 17.125,256.403 18.500 C 255.370 19.875,254.161 21.000,253.715 21.000 C 253.269 21.000,251.801 22.191,250.452 23.646 C 249.104 25.101,247.986 25.889,247.968 25.396 C 247.951 24.903,247.276 25.374,246.468 26.441 C 245.661 27.509,245.000 28.002,245.000 27.538 C 245.000 27.074,244.213 27.598,243.250 28.704 C 242.287 29.809,240.488 31.034,239.250 31.424 C 238.012 31.815,237.000 32.500,237.000 32.947 C 237.000 34.017,228.291 41.134,226.694 41.369 C 226.011 41.469,223.943 42.993,222.098 44.756 C 220.254 46.518,218.240 47.672,217.622 47.320 C 217.005 46.968,216.822 47.036,217.216 47.472 C 217.908 48.239,214.536 51.484,212.500 52.010 C 211.950 52.153,210.912 53.108,210.193 54.134 C 209.475 55.160,208.285 56.000,207.550 56.000 C 206.815 56.000,205.955 56.675,205.638 57.500 C 205.322 58.325,204.580 59.000,203.989 59.000 C 202.841 59.000,201.611 59.912,196.911 64.250 C 195.272 65.763,193.436 67.000,192.830 67.000 C 192.225 67.000,190.690 68.013,189.419 69.250 C 183.310 75.199,182.361 76.000,181.425 76.000 C 180.872 76.000,178.431 77.800,176.000 80.000 C 173.569 82.200,171.225 84.000,170.790 84.000 C 170.356 84.000,169.153 84.788,168.119 85.750 C 167.084 86.713,165.048 88.400,163.594 89.500 C 162.140 90.600,160.318 92.063,159.546 92.750 C 158.774 93.437,157.771 94.000,157.316 94.000 C 156.861 94.000,154.578 95.800,152.243 98.000 C 149.907 100.200,147.352 102.000,146.565 102.000 C 145.779 102.000,144.849 102.900,144.500 104.000 C 144.151 105.100,143.199 106.000,142.385 106.000 C 141.571 106.000,139.801 107.191,138.452 108.646 C 137.104 110.101,136.000 110.954,136.000 110.540 C 136.000 110.127,134.753 111.123,133.230 112.754 C 131.706 114.385,129.456 116.038,128.230 116.427 C 127.003 116.816,126.000 117.554,126.000 118.067 C 126.000 118.580,125.518 119.000,124.929 119.000 C 124.339 119.000,123.244 119.562,122.495 120.250 C 121.745 120.938,119.736 122.625,118.030 124.000 C 116.324 125.375,113.819 127.492,112.464 128.705 C 111.109 129.917,110.000 130.672,110.000 130.383 C 110.000 130.094,109.399 130.452,108.665 131.179 C 107.931 131.905,106.081 133.400,104.554 134.500 C 103.028 135.600,101.266 136.965,100.639 137.533 C 97.881 140.034,93.227 142.894,92.728 142.395 C 92.428 142.095,91.900 142.671,91.555 143.675 C 90.970 145.374,84.795 150.000,83.111 150.000 C 82.698 150.000,81.444 151.012,80.324 152.250 C 79.204 153.488,77.023 155.400,75.479 156.500 C 73.934 157.600,72.182 158.966,71.585 159.536 C 69.394 161.629,63.312 165.983,62.912 165.745 C 62.685 165.610,62.591 165.666,62.702 165.869 C 63.143 166.672,60.048 169.000,58.540 169.000 C 57.658 169.000,56.678 169.675,56.362 170.500 C 56.045 171.325,55.363 172.000,54.845 172.000 C 54.328 172.000,52.862 173.125,51.588 174.500 C 50.313 175.875,48.838 177.000,48.310 177.000 C 47.781 177.000,46.292 178.125,45.000 179.500 C 43.708 180.875,42.143 182.000,41.522 182.000 C 40.901 182.000,38.866 183.575,37.000 185.500 C 35.134 187.425,33.021 189.000,32.304 189.000 C 31.587 189.000,31.000 189.525,31.000 190.167 C 31.000 190.808,30.728 191.061,30.395 190.728 C 30.062 190.396,28.773 191.221,27.530 192.562 C 26.288 193.903,24.920 195.000,24.491 195.000 C 24.062 195.000,22.763 195.914,21.605 197.031 C 17.684 200.814,12.241 205.000,11.244 205.000 C 9.853 205.000,3.000 211.412,3.000 212.714 C 3.000 213.304,2.325 214.045,1.500 214.362 C -0.842 215.260,-0.499 224.095,2.000 227.273 C 3.100 228.671,4.000 230.232,4.000 230.741 C 4.000 232.195,4.852 232.248,35.250 232.665 L 64.000 233.060 64.000 364.030 C 64.000 509.156,63.402 495.666,70.044 500.319 C 74.231 503.251,436.438 502.854,441.425 499.912 C 443.343 498.780,445.187 496.987,445.523 495.927 C 445.859 494.867,446.442 494.000,446.817 494.000 C 447.193 494.000,447.380 435.299,447.232 363.554 L 446.965 233.107 478.150 232.803 C 502.074 232.571,509.432 232.207,509.753 231.244 C 509.983 230.553,510.552 230.223,511.017 230.510 C 512.887 231.666,514.998 226.484,514.882 221.027 C 514.777 216.148,513.430 208.028,513.118 210.403 C 512.973 211.509,509.000 207.056,509.000 205.788 C 509.000 205.290,508.550 205.160,508.000 205.500 C 507.450 205.840,507.000 205.641,507.000 205.059 C 507.000 204.477,506.341 204.000,505.535 204.000 C 504.730 204.000,503.605 203.130,503.036 202.068 C 502.467 201.005,501.095 199.848,499.987 199.496 C 498.878 199.144,498.229 198.438,498.544 197.928 C 498.860 197.418,498.645 197.000,498.067 197.000 C 497.057 197.000,493.691 194.446,489.829 190.750 C 488.823 189.787,487.747 189.033,487.437 189.074 C 486.168 189.239,480.088 183.240,480.766 182.491 C 481.170 182.044,480.934 182.005,480.243 182.403 C 479.509 182.825,478.737 182.478,478.388 181.569 C 478.059 180.712,477.388 180.260,476.895 180.565 C 476.403 180.869,476.000 180.641,476.000 180.059 C 476.000 179.477,475.298 179.000,474.441 179.000 C 473.584 179.000,473.160 178.550,473.500 178.000 C 473.840 177.450,473.390 177.000,472.500 177.000 C 471.610 177.000,471.152 176.563,471.482 176.029 C 471.812 175.495,470.955 174.776,469.577 174.430 C 468.199 174.084,466.808 172.969,466.485 171.952 C 466.162 170.935,465.021 169.824,463.949 169.484 C 462.877 169.144,462.000 168.446,462.000 167.933 C 462.000 167.420,461.409 167.000,460.687 167.000 C 459.965 167.000,458.081 165.650,456.500 164.000 C 454.919 162.350,453.134 161.000,452.534 161.000 C 451.933 161.000,450.793 160.100,450.000 159.000 C 449.207 157.900,447.983 157.000,447.279 157.000 C 446.576 157.000,446.000 156.610,446.000 156.134 C 446.000 155.657,443.985 153.698,441.522 151.779 C 439.059 149.860,437.371 147.962,437.772 147.562 C 438.172 147.161,438.050 146.924,437.500 147.035 C 435.280 147.483,434.000 146.922,434.000 145.500 C 434.000 144.675,433.663 144.109,433.250 144.242 C 432.145 144.599,427.914 141.419,428.592 140.741 C 429.454 139.879,425.394 137.952,424.471 138.785 C 424.036 139.178,424.003 138.938,424.399 138.250 C 424.846 137.472,424.517 137.000,423.528 137.000 C 422.653 137.000,421.678 136.325,421.362 135.500 C 421.045 134.675,420.159 134.000,419.393 134.000 C 418.627 134.000,418.000 133.298,418.000 132.441 C 418.000 131.584,417.603 131.128,417.117 131.428 C 416.631 131.728,414.493 130.180,412.367 127.988 C 410.240 125.795,408.103 124.001,407.617 124.001 C 407.132 124.000,405.894 123.031,404.867 121.847 C 403.840 120.663,403.000 119.962,403.000 120.291 C 403.000 120.619,400.690 118.673,397.868 115.966 C 395.045 113.260,392.345 111.287,391.868 111.582 C 391.390 111.877,391.000 111.699,391.000 111.188 C 391.000 110.676,389.459 109.202,387.575 107.911 C 385.692 106.621,384.369 105.213,384.634 104.782 C 384.900 104.352,384.390 104.000,383.500 104.000 C 382.532 104.000,382.168 103.536,382.595 102.845 C 383.040 102.126,382.870 101.963,382.143 102.411 C 381.468 102.829,379.616 101.748,377.739 99.841 C 375.958 98.032,374.050 96.519,373.500 96.480 C 372.950 96.441,372.612 95.867,372.750 95.205 C 372.887 94.542,372.550 93.944,372.000 93.875 C 371.450 93.806,370.593 93.694,370.096 93.625 C 369.599 93.556,368.137 92.361,366.846 90.968 C 365.556 89.576,364.050 88.226,363.500 87.968 C 362.950 87.711,362.650 87.050,362.833 86.500 C 363.017 85.950,362.820 85.847,362.396 86.270 C 361.973 86.694,359.910 85.365,357.813 83.317 C 355.716 81.270,354.000 79.928,354.000 80.335 C 354.000 80.743,352.032 79.052,349.627 76.578 C 347.222 74.103,344.972 72.361,344.627 72.706 C 344.282 73.051,344.000 72.808,344.000 72.167 C 344.000 71.525,343.355 71.000,342.567 71.000 C 341.779 71.000,340.856 70.123,340.516 69.051 C 340.176 67.979,338.908 66.795,337.699 66.418 C 336.489 66.042,333.298 63.544,330.607 60.867 C 327.916 58.190,325.182 56.000,324.531 56.000 C 323.881 56.000,322.292 54.875,321.000 53.500 C 319.708 52.125,318.055 51.000,317.326 51.000 C 316.597 51.000,315.994 50.438,315.988 49.750 C 315.981 49.063,314.406 47.483,312.488 46.241 C 310.569 44.998,309.000 43.536,309.000 42.991 C 309.000 42.446,308.388 42.000,307.640 42.000 C 306.892 42.000,305.456 40.902,304.448 39.560 C 303.440 38.218,302.301 37.314,301.917 37.551 C 301.533 37.789,300.486 36.865,299.590 35.498 C 298.695 34.131,297.633 33.110,297.231 33.230 C 296.069 33.575,287.999 27.335,288.700 26.633 C 289.048 26.285,288.583 26.000,287.667 26.000 C 286.750 26.000,286.000 25.550,286.000 25.000 C 286.000 24.450,285.298 24.000,284.441 24.000 C 283.584 24.000,283.160 23.550,283.500 23.000 C 283.840 22.450,283.642 22.000,283.060 22.000 C 282.478 22.000,280.225 20.275,278.052 18.167 C 275.880 16.058,273.517 14.317,272.801 14.297 C 272.086 14.277,269.925 14.015,268.000 13.716 C 266.075 13.417,263.707 13.392,262.738 13.662 M287.693 161.750 C 295.651 170.769,316.000 205.690,316.000 210.326 C 316.000 211.027,316.406 212.028,316.902 212.550 C 318.000 213.707,324.745 233.758,326.136 240.000 C 334.246 276.399,335.008 302.393,328.962 336.500 C 326.964 347.773,323.483 361.626,321.992 364.236 C 321.446 365.191,321.000 366.639,321.000 367.453 C 321.000 368.266,320.263 370.635,319.361 372.716 C 318.460 374.797,317.368 377.400,316.935 378.500 C 311.058 393.424,296.699 418.287,287.337 429.750 C 282.662 435.474,278.759 435.604,272.728 430.239 C 270.402 428.170,265.575 424.029,262.000 421.036 C 246.439 408.011,246.660 409.118,256.644 394.188 C 282.608 355.365,294.446 304.152,285.946 267.424 C 285.319 264.716,284.123 259.575,283.288 256.000 C 278.755 236.594,270.097 217.124,257.534 198.080 C 248.257 184.018,248.264 183.950,260.000 174.484 C 261.375 173.374,266.056 169.437,270.403 165.734 C 279.673 157.835,283.468 156.961,287.693 161.750 M238.843 202.150 C 245.791 208.944,257.508 230.260,262.742 245.629 C 269.618 265.819,270.500 271.490,270.500 295.500 C 270.500 317.946,269.052 328.370,263.833 343.500 C 258.850 357.945,246.170 380.889,237.935 390.359 C 233.649 395.289,228.581 393.047,213.399 379.500 C 212.783 378.950,210.866 377.259,209.139 375.742 C 205.369 372.431,204.898 367.576,208.000 364.000 C 209.100 362.732,210.000 361.398,210.000 361.036 C 210.000 360.673,210.787 359.482,211.750 358.388 C 213.786 356.074,215.469 353.252,218.546 347.000 C 223.164 337.616,223.512 336.669,227.916 321.500 C 230.792 311.595,230.829 281.735,227.978 271.500 C 223.030 253.736,219.341 244.899,211.805 232.761 C 205.089 221.943,205.265 220.848,214.989 213.000 C 217.374 211.075,222.214 207.137,225.745 204.250 C 233.232 198.128,234.518 197.922,238.843 202.150 M193.954 240.750 C 211.924 262.488,216.247 302.274,203.897 332.257 C 196.940 349.147,186.459 361.158,183.833 355.250 C 183.650 354.837,181.025 352.495,178.000 350.045 C 164.108 338.792,162.897 336.904,166.330 331.846 C 179.788 312.014,180.241 283.511,167.428 262.753 C 162.905 255.424,163.084 254.981,174.218 246.000 C 178.649 242.425,182.776 238.955,183.388 238.288 C 185.799 235.661,190.690 236.801,193.954 240.750 " stroke="none" fill="#000000" fill-rule="evenodd"></path></g></svg>