<?xml version="1.0" encoding="UTF-8" standalone="no"?>
<svg xmlns="http://www.w3.org/2000/svg" width="960" height="960" viewBox="0 0 960 960">
  <g transform="translate(230,40) scale(0.3,0.3)">
    <path d="M265 2798 c-3 -7 -4 -602 -3 -1323 l3 -1310 370 -3 c414 -3 471 2
    681 62 146 41 170 53 217 105 l37 41 0 203 0 204 -25 23 -25 23 0 322 0 322
    24 22 c22 20 25 34 31 136 7 103 5 117 -13 147 -19 33 -19 34 -1 173 11 77 28
    210 39 295 19 143 22 157 49 185 22 23 30 42 33 80 4 45 1 54 -31 95 -20 25
    -42 50 -51 57 -28 22 -294 96 -479 132 -93 19 -140 21 -477 21 -291 0 -376 -3
    -379 -12z m820 -18 c17 -4 -141 -8 -350 -8 -209 0 -391 4 -405 8 -32 10 715
    10 755 0z m-758 -16 c21 -6 21 -7 6 -30 -23 -35 -53 -32 -53 6 0 31 7 34 47
    24z m1051 -55 c254 -69 279 -86 134 -96 -209 -15 -665 43 -1002 126 l-75 19
    375 1 375 1 193 -51z m-803 -4 c341 -80 668 -121 890 -113 66 3 129 8 141 12
    16 6 25 1 38 -19 28 -43 11 -50 -142 -54 -305 -8 -762 58 -1154 166 -17 4 -17
    5 0 28 9 14 21 25 25 25 5 0 96 -20 202 -45z m-272 -487 c4 -260 7 -803 7
    -1205 0 -645 -2 -733 -15 -733 -13 0 -15 141 -15 1205 0 663 4 1205 8 1205 5
    0 12 -213 15 -472z m184 418 c416 -97 938 -152 1137 -121 44 7 49 6 43 -9 -4
    -10 -7 -23 -7 -30 0 -10 -102 -14 -467 -19 -256 -4 -470 -10 -474 -14 -11 -12
    -90 -656 -81 -664 12 -10 189 -37 392 -60 145 -16 239 -20 366 -17 113 2 170
    0 168 -7 -2 -5 -5 -44 -7 -85 l-4 -75 -459 -5 c-252 -3 -465 -9 -472 -13 -9
    -6 -12 -92 -12 -371 l0 -363 48 -7 c26 -4 237 -9 470 -12 l423 -6 2 -172 2
    -172 -151 4 c-239 7 -646 -35 -914 -93 -85 -18 -155 -33 -156 -32 -6 8 -9
    2377 -3 2377 4 0 74 -15 156 -34z m1153 -200 c-9 -9 -890 -18 -890 -9 0 5 201
    10 448 12 246 1 445 0 442 -3z m-919 -290 c-17 -141 -31 -270 -31 -286 0 -25
    -26 -67 -36 -57 -4 4 65 583 72 606 3 10 8 11 15 4 7 -7 1 -90 -20 -267z m846
    -28 c-21 -156 -37 -293 -37 -305 0 -49 -18 -53 -213 -52 -137 0 -234 7 -394
    27 -117 15 -215 30 -218 33 -6 7 59 567 68 575 9 9 811 20 821 12 6 -5 -5
    -117 -27 -290z m-663 -344 c155 -20 248 -27 408 -28 123 0 208 -5 208 -10 0
    -6 7 -1 15 10 12 16 16 17 24 4 7 -10 6 -17 -2 -22 -25 -16 -396 -8 -565 12
    -215 25 -311 41 -318 51 -8 13 9 12 230 -17z m598 -266 c-1 -5 -187 -10 -414
    -13 -226 -3 -414 -8 -418 -10 -4 -3 -13 2 -20 10 -10 13 9 15 146 18 286 5
    709 2 706 -5z m-842 -363 c0 -275 -2 -324 -15 -335 -13 -11 -15 27 -15 335 0
    308 2 346 15 335 13 -11 15 -60 15 -335z m843 3 l-3 -333 -307 3 c-170 1 -354
    5 -410 8 l-103 6 0 319 0 318 93 4 c50 1 236 4 412 5 l320 2 -2 -332z m27
    -355 c40 -16 -108 -20 -435 -12 -198 4 -379 8 -403 9 -25 0 -41 4 -37 10 6 10
    848 3 875 -7z m9 -408 c7 -7 4 -18 -7 -33 -16 -21 -21 -22 -62 -13 -152 35
    -698 -21 -1012 -104 l-88 -23 -19 27 -20 28 142 31 c183 40 361 65 657 92 125
    11 396 8 409 -5z m-111 -62 c92 -11 51 -36 -138 -87 -84 -23 -114 -26 -240
    -25 -80 1 -137 3 -127 6 18 5 19 28 1 28 -45 -1 -134 -18 -134 -25 0 -6 -70
    -10 -172 -10 -94 0 -169 2 -167 5 8 8 250 53 399 74 239 34 467 48 578 34z
    m-1094 -87 c17 -27 15 -30 -26 -40 -27 -6 -28 -5 -28 29 0 28 4 35 19 35 10 0
    26 -11 35 -24z m671 -53 c-194 -7 -683 -7 -678 0 2 4 174 6 381 5 207 -1 341
    -3 297 -5z" fill="#000000"/>
  </g>
</svg>