<?xml version="1.0" encoding="UTF-8" standalone="no" ?>
<!DOCTYPE svg PUBLIC "-//W3C//DTD SVG 1.1//EN" "http://www.w3.org/Graphics/SVG/1.1/DTD/svg11.dtd">
<svg xmlns="http://www.w3.org/2000/svg" xmlns:xlink="http://www.w3.org/1999/xlink" version="1.1" width="960" height="960" viewBox="0 0 960 960" xml:space="preserve">
<desc>Created with Fabric.js 3.6.6</desc>
<defs>
</defs>
<g transform="matrix(1.54 0 0 1.54 487.67 477.33)"  >
<g style=""   >
		<g transform="matrix(0.8 0 0 0.8 -63.62 0)"  >
<g style=""   >
		<g transform="matrix(0.07 0 0 -0.07 -4.7 -0.37)"  >
<path style="stroke: none; stroke-width: 1; stroke-dasharray: none; stroke-linecap: butt; stroke-dashoffset: 0; stroke-linejoin: miter; stroke-miterlimit: 4; fill: rgb(0,0,0); fill-rule: nonzero; opacity: 1;"  transform=" translate(-2929.48, -5525.5)" d="M 1520 10801 c -1158 -305 -1118 -284 -1437 -723 c -23 -32 -24 -76 -3 -266 c 26 -243 79 -337 215 -380 c 25 -8 45 -24 45 -35 c 0 -11 68 -572 150 -1246 c 177 -1445 170 -1298 68 -1421 c -81 -98 -82 -102 -68 -210 c 7 -60 21 -173 31 -250 c 9 -77 18 -244 18 -371 l 1 -231 l 76 -74 c 42 -41 87 -74 100 -74 c 18 0 24 -317 24 -1390 c 0 -1188 -4 -1390 -28 -1390 c -16 0 -61 -38 -100 -84 l -72 -83 l 0 -843 l 0 -844 l 131 -163 c 198 -246 264 -278 999 -477 l 480 -130 l 1070 12 c 589 6 1354 12 1701 12 l 632 0 l 111 155 l 111 155 l 9 5087 l 10 5087 l -104 153 l -105 153 l -1777 3 l -1778 2 l -510 -134 z m 4076 60 c 24 -33 44 -62 44 -65 c 0 -3 -795 -4 -1766 -1 l -1766 5 l -82 -116 l -82 -116 l 11 -5035 l 11 -5035 l 73 -104 l 72 -104 l 1745 -5 c 959 -3 1744 -12 1744 -20 c -1 -8 -17 -35 -36 -60 l -34 -45 l -1720 5 l -1719 5 l -92 134 l -92 134 l -13 5092 l -13 5092 l 92 139 l 93 139 l 732 5 c 402 3 1187 8 1743 10 l 1011 5 l 44 -59 z m -3655 -99 c -45 -67 -86 -122 -90 -122 c -92 0 -1503 -396 -1585 -445 c -93 -55 -82 -21 34 109 c 123 139 266 203 705 316 c 168 43 463 122 655 175 c 193 53 353 95 357 93 c 4 -3 -31 -60 -76 -126 z m 239 -14 c 0 -29 -126 -168 -152 -168 c -40 0 -36 15 34 102 c 53 67 118 104 118 66 z m 3518 -85 l 63 -97 l -1 -5014 l 0 -5013 l -73 -110 l -73 -109 l -1692 0 l -1692 1 l -62 95 l -62 95 l -10 5029 l -10 5029 l 69 95 l 69 96 l 1706 0 l 1706 0 l 62 -97 z m -3851 -866 c 7 -431 13 -2700 13 -5043 l 0 -4259 l -45 13 c -25 7 -247 66 -495 130 c -247 65 -503 138 -567 162 c -209 79 -193 2 -193 938 l 0 819 l 150 14 l 150 14 l -5 1542 l -5 1543 l -100 5 c -201 11 -184 -22 -198 380 c -7 195 -17 405 -24 465 c -13 128 23 178 163 227 c 50 17 81 41 85 65 c 4 33 -297 2530 -326 2700 c -11 61 -13 63 -154 76 c -79 7 -148 17 -153 22 c -26 27 -58 402 -36 428 c 37 46 329 173 503 219 c 401 107 1201 318 1212 321 c 6 1 17 -350 25 -781 z m 213 -784 c 0 -829 6 -1643 13 -1810 l 13 -303 l -53 0 l -53 0 l 0 1615 c 0 888 -6 1703 -13 1810 l -13 195 l 53 0 l 53 0 l 0 -1507 z m -1672 535 c 18 -7 32 -35 32 -62 c 0 -62 -97 -49 -187 27 l -56 47 l 90 0 c 49 0 104 -5 121 -12 z m 42 -153 c 33 -97 312 -2481 293 -2500 c -45 -45 -58 33 -202 1255 c -80 682 -150 1247 -155 1255 c -4 8 6 15 23 15 c 18 0 36 -11 41 -25 z m 330 -2553 c 0 -36 -109 -100 -131 -77 c -10 9 103 115 123 115 c 4 0 8 -17 8 -38 z m 1320 -432 c 0 -426 -2 -450 -37 -450 c -51 0 -63 100 -63 543 l 0 357 l 50 0 l 50 0 l 0 -450 z m 0 -3170 c 0 -2687 0 -2700 -40 -2700 c -40 0 -40 13 -40 2700 c 0 2687 0 2700 40 2700 c 40 0 40 -13 40 -2700 z m -1315 2407 c 62 -10 75 -20 75 -60 c 0 -71 -100 -64 -185 12 c -74 68 -55 76 110 48 z m 68 -780 c -7 -349 -13 -964 -13 -1368 c 0 -635 -4 -736 -30 -746 c -26 -10 -30 150 -30 1368 l 0 1379 l 43 0 l 43 0 l -13 -633 z m -13 -2205 c 0 -56 -3 -59 -110 -65 c -123 -8 -130 -2 -65 57 c 93 85 175 89 175 8 z m 37 -1955 c 70 -26 328 -100 574 -163 l 447 -115 l 82 -115 c 45 -63 75 -114 66 -114 c -116 1 -943 248 -1092 326 c -112 58 -336 284 -244 245 c 22 -9 97 -38 167 -64 z m 1291 -307 c 49 -74 50 -80 14 -80 c -34 0 -79 46 -130 135 c -39 68 68 17 116 -55 z" stroke-linecap="round" />
</g>
		<g transform="matrix(0.07 0 0 -0.07 62.1 -1.1)"  >
<path style="stroke: none; stroke-width: 1; stroke-dasharray: none; stroke-linecap: butt; stroke-dashoffset: 0; stroke-linejoin: miter; stroke-miterlimit: 4; fill: rgb(0,0,0); fill-rule: nonzero; opacity: 1;"  transform=" translate(-3931.5, -5536.5)" d="M 2740 10705 l -510 -6 l -45 -69 l -45 -69 l 0 -5014 l 0 -5013 l 55 -87 l 55 -87 l 1672 0 l 1673 0 l 56 84 l 55 85 l 7 3310 c 3 1821 7 4078 8 5016 l 2 1705 l -60 77 l -61 76 l -1176 -1 c -647 -1 -1405 -4 -1686 -7 z m -110 -35 c -11 -3 -45 -12 -75 -19 c -44 -9 -55 -23 -55 -69 l 0 -56 l 295 5 l 295 6 l 60 72 l 60 71 l 610 -2 c 336 0 601 -4 590 -8 c -11 -3 -45 -12 -75 -19 c -41 -9 -55 -24 -55 -59 c 0 -66 23 -70 302 -60 c 296 11 294 4 -24 -74 c -480 -117 -698 -158 -848 -158 l -150 0 l 0 160 c 0 112 -7 160 -24 160 c -14 0 -310 -72 -658 -160 c -349 -88 -653 -160 -676 -160 c -62 0 -60 190 3 301 l 45 79 l 200 -2 c 110 -1 191 -4 180 -8 z m 2531 -61 c -299 -76 -305 -75 -238 9 l 47 60 l 230 -1 l 230 -1 l -269 -67 z m 480 10 c 55 -78 107 -56 -478 -197 c -564 -135 -725 -152 -764 -80 c -28 52 -101 27 571 192 c 692 169 618 159 671 85 z m -2921 -9 c -44 -47 -100 -67 -100 -37 c 0 31 69 87 107 87 c 38 0 38 -2 -7 -50 z m 220 37 c 0 -31 -69 -87 -107 -87 c -38 0 -38 2 7 50 c 44 47 100 67 100 37 z m 200 -4 c 0 -38 -75 -79 -145 -79 c -85 0 -87 2 -44 45 c 42 41 71 40 56 -4 c -10 -28 -3 -26 35 10 c 47 45 98 60 98 28 z m 1384 -7 c -41 -41 -26 -64 16 -26 c 45 40 79 27 43 -17 c -35 -41 -183 -37 -168 5 c 9 26 3 24 -32 -7 c -33 -29 -50 -32 -67 -15 c -31 31 -11 47 63 53 c 34 3 68 11 75 18 c 7 7 31 13 53 13 c 32 0 36 -5 17 -24 z m 196 11 c 0 -26 -66 -87 -93 -87 c -36 0 -34 19 6 63 c 32 36 87 51 87 24 z m 169 -36 c -25 -38 -49 -48 -110 -47 c -83 1 -95 12 -55 52 c 37 37 77 30 63 -11 c -10 -28 -3 -26 35 10 c 66 63 109 61 67 -4 z m -2279 -11 c -42 -46 -90 -53 -90 -12 c 0 31 29 48 88 50 c 37 2 37 1 2 -38 z m 210 24 c 0 -26 -46 -64 -77 -64 c -23 0 -22 8 7 40 c 37 41 70 52 70 24 z m 660 -184 l 0 -140 l -545 2 l -545 2 l 530 136 c 292 75 537 137 545 138 c 8 1 15 -61 15 -138 z m 60 0 c 0 -80 -9 -140 -20 -140 c -11 0 -20 60 -20 140 c 0 80 9 140 20 140 c 11 0 20 -60 20 -140 z m 2153 -925 c -7 -553 -13 -1362 -13 -1798 l 0 -793 l -55 -13 c -30 -7 -72 -18 -92 -24 c -34 -10 -37 2 -33 156 c 3 92 4 237 3 322 l -3 155 l -70 0 l -70 0 l 0 140 l 0 140 l 129 0 c 168 0 163 -27 82 471 c -58 352 -71 486 -71 721 l 0 288 l -70 0 l -69 0 l -6 505 l -5 505 l -270 10 l -270 10 l 430 103 c 237 56 438 104 448 105 c 11 1 13 -400 5 -1003 z m -1313 803 c 0 -10 -79 -17 -175 -16 l -175 2 l 150 35 c 144 33 200 27 200 -21 z m -385 -58 l 1325 0 l 0 -490 l 0 -490 l -370 0 l -370 0 l 0 -660 l 0 -660 l 165 -4 c 91 -2 257 -4 370 -4 l 205 1 l 0 -217 l 0 -216 l -270 0 l -270 0 l 0 -330 l 0 -330 l 270 0 l 270 0 l 0 -1910 l 0 -1910 l -1570 -5 l -1570 -5 l 0 1406 l 0 1405 l 100 -13 c 224 -30 379 305 259 560 c -63 134 -104 162 -238 162 l -115 0 l -13 280 c -7 154 -13 995 -13 1868 l 0 1588 l 255 -13 c 140 -7 851 -13 1580 -13 z m 1065 -1650 l 0 -630 l -220 0 l -220 0 l 0 630 l 0 630 l 220 0 l 220 0 l 0 -630 z m 418 445 c -2 -194 -3 -194 -48 60 l -12 65 l -139 0 l -139 0 l 0 -85 c 1 -47 39 -317 87 -600 l 85 -515 l -106 0 l -106 0 l 0 327 c 0 180 -6 463 -13 630 l -13 303 l 203 0 l 203 0 l -2 -185 z m -83 76 c 6 -6 205 -1242 205 -1274 c 0 -53 -217 -16 -228 38 c -28 138 -192 1186 -192 1226 c 0 39 177 48 215 10 z m -382 -1658 c 2 -2 10 -131 18 -288 l 15 -285 l -112 0 l -112 0 l -6 285 c -3 157 -3 293 1 302 c 6 13 181 1 196 -14 z m 447 -67 c 0 -58 -5 -69 -24 -50 c -100 100 -316 -8 -316 -157 c 0 -144 225 -283 290 -179 c 27 44 50 16 50 -62 c 0 -67 -6 -80 -32 -70 c -17 7 -107 12 -200 12 l -168 0 l 0 290 l 0 290 l 200 0 l 200 0 l 0 -74 z m -180 -53 c 0 -4 -15 -37 -33 -74 c -31 -61 -31 -74 -3 -153 c 34 -93 10 -118 -49 -51 c -67 76 -57 201 20 260 c 31 24 65 33 65 18 z m 146 -29 c 87 -96 44 -284 -66 -284 c -102 0 -138 207 -47 279 c 64 50 72 50 113 5 z m 254 -894 l 0 -470 l -160 0 l -160 0 l 0 428 l 0 428 l 155 40 c 85 22 157 41 160 42 c 3 1 5 -209 5 -468 z m -3247 55 c 21 -19 29 -28 18 -20 c -40 31 -185 15 -238 -26 c -42 -34 -53 -36 -53 -12 c 0 83 200 126 273 58 z m 6 -57 c 30 -18 66 -52 80 -75 c 26 -42 25 -42 -13 -8 c -68 61 -206 23 -206 -56 c 0 -14 -30 -28 -67 -32 c -67 -8 -68 -8 -48 52 c 42 131 149 181 254 119 z m -2 -170 c -18 -11 -29 -6 -34 15 c -4 18 5 40 20 49 c 18 11 29 6 34 -15 c 4 -18 -5 -40 -20 -49 z m 123 -59 c 0 -11 -90 -18 -205 -17 c -119 2 -180 8 -145 16 c 95 21 350 21 350 1 z m -65 -53 c -19 -5 -35 -26 -35 -47 c 0 -49 -59 -52 -62 -4 c -2 32 -3 32 -12 -1 c -8 -30 -14 -32 -41 -10 c -31 26 72 74 155 72 c 20 0 19 -4 -5 -10 z m -177 -67 c 58 -78 176 -81 166 -4 c -7 51 25 61 44 13 c 20 -51 -92 -148 -173 -148 c -85 0 -124 30 -162 125 l -31 75 l 55 0 c 39 0 69 -19 101 -61 z m -48 -156 c 33 -9 92 -9 130 -1 l 70 15 l -47 -38 c -92 -76 -262 -24 -263 80 c 0 22 6 21 25 -6 c 14 -18 52 -41 85 -50 z m 3410 -2685 c 0 -2545 -2 -2682 -35 -2674 c -19 5 -181 44 -360 86 l -325 77 l 0 247 c 0 151 8 246 20 246 c 12 0 20 80 20 200 l 0 200 l 140 0 l 140 0 l 0 60 l 0 60 l -160 0 l -160 0 l 0 230 l 0 230 l 160 0 l 160 0 l 0 60 l 0 60 l -140 0 l -140 0 l 0 200 c 0 120 -8 200 -20 200 c -11 0 -20 60 -20 140 l 0 140 l 200 0 l 200 0 l 0 1460 l 0 1460 l 160 0 l 160 0 l 0 -2682 z m -1240 -355 l 0 -117 l -380 -13 c -209 -7 -718 -19 -1130 -26 l -750 -13 l 0 143 l 0 143 l 1130 0 l 1130 0 l 0 -117 z m 100 -23 c 0 -120 -5 -140 -35 -140 c -30 0 -35 21 -37 140 c -1 123 3 140 35 140 c 32 0 37 -18 37 -140 z m 394 0 l -4 -140 l -185 0 l -185 0 l 0 140 l 0 140 l 189 0 l 190 0 l -5 -140 z m -559 -135 c -42 -4 -105 -4 -140 1 c -36 4 -2 8 75 7 c 77 0 106 -3 65 -8 z m -2154 -225 c 10 0 19 -14 19 -31 c 0 -20 -14 -29 -35 -25 c -39 7 -61 173 -32 233 c 11 22 18 -3 23 -72 c 3 -58 15 -105 25 -105 z m 1279 60 l 0 -140 l -92 0 c -80 0 -90 5 -77 35 c 81 190 55 202 -471 222 l -450 17 l 545 3 l 545 3 l 0 -140 z m 1280 23 l 0 -117 l -195 -13 c -107 -7 -392 -13 -632 -13 l -438 0 l 13 63 c 6 34 12 92 12 130 l 0 67 l 620 0 l 620 0 l 0 -117 z m 200 -81 c 0 -109 5 -213 12 -230 c 8 -21 1 -32 -20 -32 c -27 0 -32 30 -32 200 c 0 200 0 200 -50 200 c -47 0 -50 -7 -51 -105 c -2 -134 -36 -71 -38 70 l -1 95 l 90 0 l 90 0 l 0 -198 z m -2640 28 l 0 -150 l -79 0 c -43 0 -84 9 -91 20 c -7 11 10 20 39 20 c 54 0 78 88 28 104 c -49 17 0 156 54 156 c 48 0 49 -4 49 -150 z m 895 99 c 39 -12 30 -99 -24 -226 c -27 -64 -55 -163 -62 -220 l -14 -103 l -446 0 l -447 0 l 8 135 c 7 125 11 135 56 141 c 50 6 74 86 74 247 l 0 58 l 415 -12 c 228 -7 426 -16 440 -20 z m 101 -85 c -12 -55 -46 -31 -51 36 c -5 67 -4 68 25 30 c 17 -21 29 -51 26 -66 z m 1562 -564 c 0 -280 -9 -528 -18 -550 c -14 -32 -17 -25 -19 35 l -1 75 l -366 0 l -367 0 l -33 69 c -42 88 -29 94 138 70 c 254 -36 275 -36 341 -9 c 170 71 210 424 63 571 c -62 62 -62 62 -224 48 c -89 -7 -202 -13 -252 -13 c -73 -1 -81 -4 -40 -16 c 46 -15 47 -16 6 -18 c -66 -3 -74 31 -26 108 l 43 70 l 359 0 l 358 0 l 0 65 c 1 49 5 58 20 35 c 11 -17 19 -243 18 -540 z m -1609 465 c -29 -67 -87 -295 -88 -350 c -1 -51 5 -55 79 -55 c 57 0 80 -8 80 -30 c 0 -19 -28 -34 -80 -42 c -73 -12 -80 -18 -80 -74 c 0 -171 106 -448 224 -588 l 64 -76 l -86 80 c -129 121 -224 351 -247 600 l -5 60 l -495 -7 c -491 -7 -495 -6 -495 35 c 0 41 6 42 497 42 l 498 0 l 12 95 c 16 118 94 345 119 345 c 10 0 11 -16 3 -35 z m 811 -41 c 0 -69 -51 -86 -250 -80 c -230 7 -292 55 -100 78 c 157 19 350 20 350 2 z m -480 -44 c 0 -36 -13 -40 -140 -40 l -140 0 l 0 -62 l 0 -63 l 240 9 c 241 8 275 -1 216 -60 c -42 -42 -32 -313 13 -363 l 37 -41 l -253 0 l -253 0 l 0 -60 l 0 -60 l 140 0 c 127 0 140 -4 140 -40 c 0 -36 -13 -40 -140 -40 c -98 0 -140 -7 -141 -25 c -3 -92 -119 302 -119 404 c 0 12 41 21 90 21 c 75 0 90 6 90 38 c 0 21 6 54 13 74 c 12 31 3 33 -92 22 c -101 -12 -105 -11 -95 32 c 6 24 22 95 35 158 l 25 114 l 152 7 c 84 4 159 9 167 11 c 8 2 15 -14 15 -36 z m -1400 -150 c 0 -120 -6 -150 -30 -150 c -24 0 -30 30 -30 150 c 0 120 6 150 30 150 c 24 0 30 -30 30 -150 z m 1675 55 c -4 -48 -535 -42 -535 6 c 0 24 48 29 269 29 c 243 0 268 -3 266 -35 z m 1200 0 c 5 -15 -9 -25 -33 -25 c -25 0 -42 13 -42 31 c 0 37 62 32 75 -6 z m -567 -28 c -10 -16 -4 -20 20 -11 c 20 8 29 6 22 -6 c -7 -11 -3 -20 7 -20 c 11 0 26 -18 33 -40 c 7 -22 20 -36 30 -30 c 9 5 12 -10 6 -35 c -7 -32 -4 -37 9 -18 c 24 33 11 -160 -16 -244 c -10 -32 -13 -66 -7 -76 c 6 -10 4 -16 -6 -13 c -9 2 -36 -6 -60 -20 l -44 -24 l 41 93 c 62 139 2 423 -90 428 c -13 1 -5 10 17 19 c 54 23 54 23 38 -3 z m -465 -200 c -23 -93 -25 -141 -9 -200 c 20 -75 -11 -146 -48 -110 c -7 7 -2 13 12 13 c 13 0 18 10 11 22 c -7 12 -30 17 -51 12 c -21 -6 -44 -1 -51 11 c -8 12 -4 15 10 7 c 26 -16 28 -9 11 36 c -7 18 -19 28 -27 23 c -16 -10 8 181 31 237 c 11 29 8 35 -12 22 c -18 -11 -21 -8 -11 8 c 8 14 20 20 26 13 c 19 -19 85 53 71 77 c -7 12 5 6 27 -13 c 38 -33 39 -40 10 -158 z m 202 172 c 6 -7 -10 -49 -37 -95 c -59 -104 -62 -219 -8 -319 l 40 -75 l -42 0 c -29 0 -39 9 -31 30 c 7 16 4 50 -4 74 l -16 43 l -12 -44 c -6 -23 -3 -38 7 -32 c 35 22 18 -5 -27 -42 c -25 -21 -34 -26 -21 -11 c 16 18 17 43 5 76 c -12 31 -12 44 1 36 c 17 -11 13 102 -9 214 c -4 19 3 33 16 30 c 13 -2 22 12 20 32 c -2 20 2 32 8 25 c 6 -6 24 7 39 29 c 29 41 50 49 71 29 z m 222 -75 c 38 -50 38 -55 7 -90 c -47 -51 -43 -118 7 -134 c 31 -10 37 -23 26 -57 c -7 -23 -15 -60 -17 -81 c -4 -44 -66 -60 -106 -27 c -19 16 -23 49 -13 120 c 8 60 3 133 -11 187 c -40 142 25 193 107 82 z m -574 -39 c 0 -36 -4 -53 -8 -39 c -6 18 -20 12 -47 -18 c -43 -50 -48 -32 -16 59 c 29 83 71 82 71 -2 z m 419 -10 c -7 -6 -12 1 -12 17 c -1 23 -4 23 -20 -2 c -28 -44 -26 -279 2 -240 c 18 25 20 23 10 -8 c -7 -20 -3 -48 8 -62 c 15 -18 10 -33 -15 -52 c -32 -26 -33 -25 -6 9 c 26 33 25 36 -9 30 c -35 -6 -38 8 -42 170 c -2 98 4 167 12 153 c 11 -18 20 -12 30 21 c 13 41 17 42 34 11 c 11 -19 14 -40 8 -47 z m -2112 -345 c 0 -164 -5 -200 -30 -200 c -25 0 -30 36 -30 200 c 0 164 5 200 30 200 c 25 0 30 -36 30 -200 z m 901 195 c 79 -565 298 -815 716 -815 c 228 0 243 -12 243 -201 c 0 -135 1 -139 55 -150 c 89 -20 111 -25 200 -49 l 85 -22 l 0 -136 l 0 -137 l -265 67 c -146 37 -281 77 -300 88 c -19 11 -50 20 -70 20 c -19 0 -231 47 -470 104 l -435 104 l 0 127 c 0 196 -3 199 -255 216 c -358 24 -430 83 -367 302 c 10 35 10 71 1 80 c -9 9 -11 105 -5 212 l 12 195 l 427 0 c 235 0 427 -2 428 -5 z m 767 -100 c 15 -66 -13 -73 -46 -10 c -18 36 -21 37 -11 5 c 7 -26 5 -33 -8 -20 c -11 11 -15 45 -9 77 c 13 67 52 40 74 -52 z m 19 -113 c -9 -7 -17 -25 -17 -42 c 0 -25 -45 -31 -265 -35 c -212 -4 -265 1 -265 22 c 0 33 139 53 366 53 c 98 0 152 7 144 20 c -7 11 2 14 21 7 c 18 -7 25 -18 16 -25 z m 108 -57 c 5 -16 -11 -25 -43 -25 c -34 0 -52 11 -52 31 c 0 38 82 32 95 -6 z m 1245 15 c 0 -11 -60 -20 -139 -20 l -140 0 l -5 -205 c -6 -215 -37 -261 -132 -198 c -34 22 -59 243 -27 243 c 14 0 23 -38 23 -100 c 0 -93 3 -100 50 -100 c 50 0 50 0 50 200 l 0 200 l 160 0 c 93 0 160 -8 160 -20 z m -1365 -136 c -221 -6 -255 0 -255 45 c 0 52 403 54 433 1 c 23 -39 18 -40 -178 -46 z m 885 -159 l 0 -125 l -195 -2 c -107 -2 -395 -8 -638 -15 c -244 -7 -440 -10 -436 -5 c 4 4 -28 48 -72 97 c -46 53 -79 111 -79 140 l 0 49 l 710 -7 l 710 -7 l 0 -125 z m -2540 95 c 0 -11 -9 -20 -20 -20 c -11 0 -20 -50 -20 -111 c 0 -69 -8 -107 -20 -99 c -42 26 -24 250 20 250 c 22 0 40 -9 40 -20 z m 306 -360 c 253 -13 253 -14 254 -204 c 0 -143 -6 -136 130 -165 c 33 -7 94 -22 135 -33 l 75 -20 l 0 -136 l 0 -137 l -490 122 l -490 122 l 0 276 l 0 276 l 85 -44 c 66 -35 133 -47 301 -57 z m 2383 -135 c -8 -129 -16 -237 -19 -240 c -2 -3 -172 28 -377 69 l -373 76 l 0 86 c 0 150 -11 158 -255 174 c -118 7 -242 26 -275 40 c -51 23 39 27 626 28 l 687 2 l -14 -235 z m -369 -206 c 377 -74 379 -75 316 -148 l -47 -55 l -164 35 c -134 29 -164 43 -169 76 c -5 31 -32 46 -126 66 c -66 15 -140 31 -165 37 c -25 6 -45 25 -45 42 c 0 20 13 27 35 21 c 19 -5 184 -39 365 -74 z m -1360 -219 c 0 -80 -9 -140 -20 -140 c -11 0 -20 60 -20 140 c 0 80 9 140 20 140 c 11 0 20 -60 20 -140 z m 250 81 l 140 -37 l -185 -2 c -185 -2 -185 -2 -185 48 c 0 56 -19 57 230 -9 z m 1030 -81 c 0 -80 -9 -140 -20 -140 c -11 0 -20 60 -20 140 c 0 80 9 140 20 140 c 11 0 20 -60 20 -140 z m 850 49 c 176 -42 323 -78 327 -81 c 12 -9 -65 -128 -82 -128 c -21 0 -683 164 -692 172 c -16 13 83 130 104 122 c 13 -5 167 -43 343 -85 z m -2650 -99 c 247 -62 453 -117 458 -121 c 5 -5 -186 -9 -425 -9 l -433 0 l -60 83 c -68 94 -82 186 -25 169 c 19 -6 237 -61 485 -122 z m 2307 -3 c 470 -109 479 -102 -142 -112 l -345 -5 l 0 116 c 0 101 5 115 35 107 c 19 -5 223 -53 452 -106 z m -1375 60 c 221 -13 223 -13 258 -73 l 36 -60 l -260 11 c -309 14 -426 42 -411 97 c 11 43 33 45 377 25 z m 792 -173 c 14 -6 -257 -11 -604 -11 c -346 0 -619 5 -605 10 c 14 6 25 27 25 47 c 0 32 9 35 63 19 c 102 -29 542 -67 602 -52 c 54 13 55 16 27 69 l -29 56 l 248 -64 c 136 -35 259 -69 273 -74 z" stroke-linecap="round" />
</g>
		<g transform="matrix(0.07 0 0 -0.07 46.04 -242)"  >
<path style="stroke: none; stroke-width: 1; stroke-dasharray: none; stroke-linecap: butt; stroke-dashoffset: 0; stroke-linejoin: miter; stroke-miterlimit: 4; fill: rgb(0,0,0); fill-rule: nonzero; opacity: 1;"  transform=" translate(-3690.59, -9150)" d="M 3413 9265 c -7 -41 -13 -127 -13 -190 l 0 -115 l 230 0 l 230 0 l 0 68 c 0 60 8 70 60 82 c 79 17 82 95 6 174 c -52 55 -58 56 -277 56 l -224 0 l -12 -75 z m 83 11 c 48 -48 30 -136 -28 -136 c -45 0 -51 7 -41 45 c 7 25 13 61 13 80 c 0 41 22 45 56 11 z m 424 -26 l 47 -50 l -172 0 c -155 0 -178 5 -229 49 l -56 50 l 182 0 c 168 1 184 -3 228 -49 z m -278 -70 c 10 0 18 -9 18 -20 c 0 -11 -22 -20 -50 -20 c -33 0 -50 11 -50 32 c 0 21 11 28 32 20 c 17 -7 40 -12 50 -12 z m 278 -20 c 0 -11 -54 -20 -121 -20 c -76 0 -117 8 -109 20 c 7 11 61 20 121 20 c 60 0 109 -9 109 -20 z m -200 -90 c 0 -24 -30 -30 -150 -30 c -235 0 -187 49 55 57 c 72 2 95 -4 95 -27 z m 116 -25 c -9 -85 -96 -91 -96 -6 c 0 52 7 61 51 61 c 45 0 51 -8 45 -55 z m -180 -60 c -41 -4 -113 -4 -160 0 c -48 5 -14 8 74 8 c 88 0 126 -3 86 -8 z" stroke-linecap="round" />
</g>
		<g transform="matrix(0.07 0 0 -0.07 -12.59 -151.37)"  >
<path style="stroke: none; stroke-width: 1; stroke-dasharray: none; stroke-linecap: butt; stroke-dashoffset: 0; stroke-linejoin: miter; stroke-miterlimit: 4; fill: rgb(0,0,0); fill-rule: nonzero; opacity: 1;"  transform=" translate(-2811.14, -7790.56)" d="M 2736 7828 c -44 -95 49 -166 125 -97 c 49 44 49 59 -1 109 c -54 54 -96 50 -124 -12 z m 99 -38 c 0 -52 -23 -66 -46 -29 c -15 26 3 79 28 79 c 10 0 18 -22 18 -50 z" stroke-linecap="round" />
</g>
		<g transform="matrix(0.07 0 0 -0.07 98.6 -151.28)"  >
<path style="stroke: none; stroke-width: 1; stroke-dasharray: none; stroke-linecap: butt; stroke-dashoffset: 0; stroke-linejoin: miter; stroke-miterlimit: 4; fill: rgb(0,0,0); fill-rule: nonzero; opacity: 1;"  transform=" translate(-4479.03, -7789.27)" d="M 4424 7856 c -28 -28 -31 -94 -5 -135 c 27 -43 129 -4 137 52 c 11 77 -80 135 -132 83 z" stroke-linecap="round" />
</g>
		<g transform="matrix(0.07 0 0 -0.07 4.15 -105.46)"  >
<path style="stroke: none; stroke-width: 1; stroke-dasharray: none; stroke-linecap: butt; stroke-dashoffset: 0; stroke-linejoin: miter; stroke-miterlimit: 4; fill: rgb(0,0,0); fill-rule: nonzero; opacity: 1;"  transform=" translate(-3062.21, -7101.94)" d="M 3029 7118 c -18 -28 21 -67 49 -49 c 12 7 22 26 22 42 c 0 34 -51 39 -71 7 z" stroke-linecap="round" />
</g>
		<g transform="matrix(0.07 0 0 -0.07 23.23 -105.51)"  >
<path style="stroke: none; stroke-width: 1; stroke-dasharray: none; stroke-linecap: butt; stroke-dashoffset: 0; stroke-linejoin: miter; stroke-miterlimit: 4; fill: rgb(0,0,0); fill-rule: nonzero; opacity: 1;"  transform=" translate(-3348.44, -7102.58)" d="M 3320 7098 c 0 -48 47 -42 56 9 c 4 19 -6 33 -25 33 c -18 0 -31 -17 -31 -42 z" stroke-linecap="round" />
</g>
		<g transform="matrix(0.07 0 0 -0.07 42.35 -105.36)"  >
<path style="stroke: none; stroke-width: 1; stroke-dasharray: none; stroke-linecap: butt; stroke-dashoffset: 0; stroke-linejoin: miter; stroke-miterlimit: 4; fill: rgb(0,0,0); fill-rule: nonzero; opacity: 1;"  transform=" translate(-3635.3, -7100.45)" d="M 3600 7100 c 0 -45 50 -54 66 -12 c 13 33 -2 52 -39 52 c -15 0 -27 -18 -27 -40 z" stroke-linecap="round" />
</g>
		<g transform="matrix(0.07 0 0 -0.07 79.91 -105.49)"  >
<path style="stroke: none; stroke-width: 1; stroke-dasharray: none; stroke-linecap: butt; stroke-dashoffset: 0; stroke-linejoin: miter; stroke-miterlimit: 4; fill: rgb(0,0,0); fill-rule: nonzero; opacity: 1;"  transform=" translate(-4198.58, -7102.41)" d="M 4169 7118 c -21 -33 26 -71 53 -44 c 23 23 9 66 -22 66 c -10 0 -24 -10 -31 -22 z" stroke-linecap="round" />
</g>
		<g transform="matrix(0.07 0 0 -0.07 133.65 -45.02)"  >
<path style="stroke: none; stroke-width: 1; stroke-dasharray: none; stroke-linecap: butt; stroke-dashoffset: 0; stroke-linejoin: miter; stroke-miterlimit: 4; fill: rgb(0,0,0); fill-rule: nonzero; opacity: 1;"  transform=" translate(-5004.75, -6195.26)" d="M 4875 6529 c -131 -71 -194 -385 -110 -542 c 82 -153 263 -208 374 -115 c 308 259 74 840 -264 657 z m 276 -54 c 21 -25 25 -34 9 -20 c -104 91 -368 -52 -305 -166 c 13 -23 25 -12 51 47 c 34 76 100 124 173 124 c 44 0 161 -104 161 -143 c -1 -21 -5 -20 -22 3 c -16 23 -18 20 -8 -15 c 8 -28 4 -45 -11 -45 c -14 0 -20 19 -14 50 c 18 94 -145 86 -175 -9 c -17 -56 -129 -77 -164 -30 c -24 34 -26 32 -26 -17 l 0 -53 l 220 11 c 147 7 220 3 220 -11 c 0 -13 -80 -21 -220 -21 c -209 0 -220 -2 -220 -41 c 0 -23 8 -36 18 -30 c 10 6 14 -6 8 -27 c -27 -104 190 -213 299 -150 c 14 8 8 -5 -13 -29 c -172 -195 -404 134 -321 457 c 10 41 8 44 -11 20 c -20 -27 -22 -27 -15 0 c 5 17 18 30 30 30 c 12 0 44 25 72 55 c 68 73 207 79 264 10 z m -14 -217 c -18 -11 -29 -6 -34 15 c -4 18 5 40 20 49 c 18 11 29 6 34 -15 c 4 -18 -5 -40 -20 -49 z m 58 -112 c -19 -5 -35 -27 -35 -49 c 0 -47 -47 -40 -56 8 c -6 30 32 50 96 50 c 19 0 18 -3 -5 -9 z m -170 -67 c 45 -79 170 -82 159 -4 c -4 25 3 45 14 45 c 11 0 15 -15 8 -33 c -9 -23 -5 -29 11 -19 c 49 30 20 -27 -39 -76 c -98 -83 -210 -64 -268 48 c -61 118 48 155 115 39 z" stroke-linecap="round" />
</g>
		<g transform="matrix(0.07 0 0 -0.07 77.93 233.63)"  >
<path style="stroke: none; stroke-width: 1; stroke-dasharray: none; stroke-linecap: butt; stroke-dashoffset: 0; stroke-linejoin: miter; stroke-miterlimit: 4; fill: rgb(0,0,0); fill-rule: nonzero; opacity: 1;"  transform=" translate(-4168.89, -2015.54)" d="M 4161 2081 c -12 -21 -20 -73 -19 -115 c 3 -76 3 -76 19 18 c 8 52 21 103 28 115 c 8 12 9 21 3 21 c -6 0 -20 -17 -31 -39 z" stroke-linecap="round" />
</g>
</g>
</g>
		<g transform="matrix(-1.06 0.02 -0.01 -0.51 144.41 -88.88)"  >
<path style="stroke: rgb(0,0,0); stroke-width: 4; stroke-dasharray: none; stroke-linecap: butt; stroke-dashoffset: 0; stroke-linejoin: miter; stroke-miterlimit: 10; fill: none; fill-rule: evenodd; opacity: 1;" vector-effect="non-scaling-stroke"  transform=" translate(-59.83, -29.92)" d="m 0 14.960629 l 89.732285 0 l 0 -14.960629 l 29.921257 29.921259 l -29.921257 29.921259 l 0 -14.9606285 l -89.732285 0 z" stroke-linecap="round" />
</g>
		<g transform="matrix(1 0 0 1 182.33 -108.52)" style=""  >
		<text xml:space="preserve" font-family="'Open Sans', sans-serif" font-size="18" font-style="normal" font-weight="normal" style="stroke: none; stroke-width: 1; stroke-dasharray: none; stroke-linecap: butt; stroke-dashoffset: 0; stroke-linejoin: miter; stroke-miterlimit: 4; fill: rgb(0,0,0); fill-rule: nonzero; opacity: 1; white-space: pre;" ><tspan x="-40" y="6.91" style="stroke-width: 1; font-family: 'Open Sans', sans-serif; font-size: 22px; font-style: normal; font-weight: bold; fill: rgb(0,0,0); ">x3</tspan></text>
</g>
</g>
</g>
</svg>